<?xml version="1.0" encoding="utf-8"?>
<!-- Generator: Adobe Illustrator 23.0.1, SVG Export Plug-In . SVG Version: 6.00 Build 0)  -->
<svg version="1.1" id="Capa_1" xmlns="http://www.w3.org/2000/svg" xmlns:xlink="http://www.w3.org/1999/xlink" x="0px" y="0px"
	 viewBox="0 0 240 400" style="enable-background:new 0 0 240 400;" xml:space="preserve">
<style type="text/css">
	.st0{fill:#FFFFFF;}
</style>
<path class="st0" d="M170,10v106.7c-0.2-0.1-17.4-16.7-50.9-16.7c-60.4,0-112,47.2-117.3,109.2C0.7,222.2,0.1,235.8,0,250
	c0.1,14.2,0.7,27.8,1.8,40.8C7.1,352.8,58.6,400,119.1,400c33.5,0,50.8-16.6,50.9-16.7v6.7c0,5.5,4.5,10,10,10h50
	c5.5,0,10-4.5,10-10V10c0-5.5-4.5-10-10-10h-50C174.5,0,170,4.5,170,10z M119.1,329c-24.5,0-45.4-19.5-47.5-44.4
	c-1-11.5-1.5-23.1-1.5-34.7c0.1-11.5,0.5-23.2,1.5-34.7c2.1-24.9,23-44.4,47.5-44.4c38.5,0,50.8,8.7,50.9,8.8v140.5
	C169.8,320.3,157.6,329,119.1,329z"/>
</svg>
