<?xml version="1.0" encoding="utf-8"?>
<!-- Generator: Adobe Illustrator 23.0.1, SVG Export Plug-In . SVG Version: 6.00 Build 0)  -->
<svg version="1.1" id="Capa_1" xmlns="http://www.w3.org/2000/svg" xmlns:xlink="http://www.w3.org/1999/xlink" x="0px" y="0px"
	 viewBox="0 0 249.9 299.7" style="enable-background:new 0 0 249.9 299.7;" xml:space="preserve">
<style type="text/css">
	.st0{fill:#FFFFFF;}
</style>
<path class="st0" d="M248.1,184.9c1.2-11.6,1.9-23.6,1.9-35.2c0-15.4-1.2-30.9-3.4-46.1C238.1,45.8,190.2,2.2,132.7,0
	c-5.1-0.2-10.5-0.2-15.6,0C60,2.1,12.3,44.7,3.7,101.2c-2.4,16-3.7,32.4-3.7,48.6c0,15.3,1.1,30.7,3.2,45.9
	c8.2,58.2,56.2,102,114,104c2.5,0.1,5.1,0.1,7.6,0.1c40.5,0,73.1-9.7,100.1-26.3c4.3-2.6,5.9-8.1,3.8-12.7L210.8,222
	c-2.2-4.9-7.9-7.1-12.9-5.1c-20.2,8.4-39.8,12.9-73.1,12.9c-1.7,0-3.4,0-5.1-0.1c-24.2-0.9-44.3-19.8-47.4-44.8c0,0,0,0,0,0
	L248.1,184.9z M119.7,70c3.4-0.1,7-0.1,10.4,0c23.8,0.9,43.6,19.3,47.2,43.8c0.1,0.4,0.1,0.7,0.1,1.1l-105,0.1
	c0.1-1.1,0.3-2.1,0.4-3.2C76.4,88.4,96.1,70.8,119.7,70z"/>
</svg>
