<?xml version="1.0" encoding="utf-8"?>
<!-- Generator: Adobe Illustrator 23.0.1, SVG Export Plug-In . SVG Version: 6.00 Build 0)  -->
<svg version="1.1" id="Layer_1" xmlns="http://www.w3.org/2000/svg" xmlns:xlink="http://www.w3.org/1999/xlink" x="0px" y="0px"
	 viewBox="0 0 50 50" style="enable-background:new 0 0 50 50;" xml:space="preserve">
<style type="text/css">
	.st0{fill:#FFFFFF;}
</style>
<path class="st0" d="M15.9,45c18.6,0,28.7-15.4,28.7-28.7c0-0.4,0-0.9,0-1.3c2-1.4,3.7-3.2,5-5.2c-1.8,0.8-3.8,1.3-5.8,1.6
	c2.1-1.2,3.7-3.2,4.4-5.6c-2,1.2-4.1,2-6.4,2.5C40,6.2,37.4,5,34.5,5c-5.6,0-10.1,4.5-10.1,10.1c0,0.8,0.1,1.6,0.3,2.3
	C16.2,17,8.8,13,3.8,6.8c-0.9,1.5-1.4,3.2-1.4,5.1c0,3.5,1.8,6.6,4.5,8.4c-1.7-0.1-3.2-0.5-4.6-1.3c0,0,0,0.1,0,0.1
	c0,4.9,3.5,9,8.1,9.9c-0.8,0.2-1.7,0.4-2.7,0.4c-0.7,0-1.3-0.1-1.9-0.2c1.3,4,5,6.9,9.4,7c-3.5,2.7-7.8,4.3-12.5,4.3
	c-0.8,0-1.6,0-2.4-0.1C4.9,43.3,10.2,45,15.9,45"/>
</svg>
