<?xml version="1.0" encoding="utf-8"?>
<!-- Generator: Adobe Illustrator 23.0.1, SVG Export Plug-In . SVG Version: 6.00 Build 0)  -->
<svg version="1.1" id="Layer_1" xmlns="http://www.w3.org/2000/svg" xmlns:xlink="http://www.w3.org/1999/xlink" x="0px" y="0px"
	 viewBox="0 0 50 50" style="enable-background:new 0 0 50 50;" xml:space="preserve">
<style type="text/css">
	.st0{fill-rule:evenodd;clip-rule:evenodd;fill:#FFFFFF;}
</style>
<g>
	<path class="st0" d="M27.5,21.7c0.2-0.2,0.2-0.2,0.3-0.3c2.4-3.4,5.7-4.5,9.7-3.9c4.5,0.7,7.5,3.9,8.2,8.8c0.2,1.2,0.3,2.3,0.3,3.5
		c0,4.8,0,9.7,0,14.5c0,0.5-0.1,0.7-0.7,0.7c-2.5,0-5.1,0-7.6,0c-0.6,0-0.7-0.2-0.7-0.7c0-4.5,0-9,0-13.6c0-1-0.1-2-0.4-3
		c-0.9-3.2-4.6-4.3-7.1-2.2c-1.4,1.1-1.9,2.7-1.9,4.4c0,4.3,0,8.5,0,12.8c0,0.6,0,1.1,0,1.7c0,0.5-0.2,0.6-0.6,0.6
		c-2.6,0-5.2,0-7.8,0c-0.5,0-0.6-0.1-0.6-0.6c0-3.8,0.1-7.7,0.1-11.5c0-4.7,0-9.5,0-14.2c0-0.5,0.1-0.7,0.6-0.7c2.6,0,5.2,0,7.8,0
		c0.5,0,0.6,0.1,0.6,0.6C27.5,19.6,27.5,20.5,27.5,21.7z"/>
	<path class="st0" d="M13.6,31.5c0,4.3,0,8.5,0,12.8c0,0.5-0.1,0.7-0.7,0.7c-2.6,0-5.1,0-7.7,0c-0.5,0-0.6-0.1-0.6-0.6
		c0-8.6,0-17.2,0-25.8c0-0.4,0.1-0.6,0.6-0.6c2.6,0,5.2,0,7.8,0c0.5,0,0.6,0.2,0.6,0.6C13.6,22.9,13.6,27.2,13.6,31.5z"/>
	<path class="st0" d="M9.2,5c3.4,0,5.7,2.7,4.9,5.9c-0.6,2.4-3.1,3.8-6,3.3C5,13.8,3.3,10.8,4.4,7.9C5.1,6.1,6.9,5,9.2,5z"/>
</g>
</svg>
