<?xml version="1.0" encoding="utf-8"?>
<!-- Generator: Adobe Illustrator 23.0.1, SVG Export Plug-In . SVG Version: 6.00 Build 0)  -->
<svg version="1.1" id="Capa_1" xmlns="http://www.w3.org/2000/svg" xmlns:xlink="http://www.w3.org/1999/xlink" x="0px" y="0px"
	 viewBox="0 0 222 110" style="enable-background:new 0 0 222 110;" xml:space="preserve">
<style type="text/css">
	.st0{fill-rule:evenodd;clip-rule:evenodd;fill:#FFFFFF;}
	.st1{fill:#FFFFFF;}
</style>
<g>
	<g>
		<path class="st0" d="M81.3,42.1L74.4,64c2.1,0.8,4.5,1.2,7,1.2c2.5,0,4.8-0.4,6.9-1.2l-6.8-21.9H81.3z"/>
		<path class="st0" d="M133.2,35h-4.8v17.6h4.8c6.4,0,11.5-2.1,11.5-8.9C144.8,37.1,139.7,35,133.2,35z"/>
		<path class="st0" d="M0,0v110h112.4L222,0H0z M135.5,67.7h-7.1v21H96l-3.2-10.1c-3.4,1.1-7.3,1.8-11.4,1.8
			c-4.2,0-8.2-0.7-11.7-1.8l-3.3,10.1H46.5l2.2-5.9c-0.3,0.2-0.5,0.5-0.8,0.7c-5,4-11.2,6.2-18.8,6.3l-1.1,0
			c-8.8,0-17.5-2.4-24.8-6.6l6.8-13.4c7.3,4.3,11.9,5.3,18.1,5.2c3.2-0.1,5.5-0.7,7.1-2.2c0.9-1,1.4-2.1,1.4-3.4
			c0.1-3.5-4.9-5.1-11-7c-4.9-1.5-10.5-3.6-14.9-6.8C5.5,51.7,3,47,3.1,40.3C3.2,35.4,5,31,8.4,27.5c4.8-5,12.6-8,21.9-8h0.1
			c8,0,17.7,2.3,24.8,5.9l-7.6,13.2c-7.7-3.7-11.6-4.1-16-4.3c-6.5-0.4-9.9,2-9.9,4.5c-0.1,3.1,6.2,5.9,12.1,7.8
			c8.9,2.8,20.3,6.6,22,17.6L72,20.7h19l19.1,52v-52l21.9,0c20.9,0,30.7,7.5,30.7,23.7C162.7,59,152.6,67.7,135.5,67.7z"/>
	</g>
	<path class="st1" d="M139.3,102.8c0-3.4,2.5-5.9,5.8-5.9c3.2,0,5.8,2.6,5.8,5.9c0,3.4-2.6,6-5.8,6
		C141.8,108.8,139.3,106.3,139.3,102.8z M145.1,110c3.9,0,7.2-3,7.2-7.2c0-4.1-3.3-7.1-7.2-7.1c-3.9,0-7.2,3-7.2,7.1
		C137.8,107,141.1,110,145.1,110z M143.5,103.4h1.4l2.2,3.6h1.4l-2.3-3.6c1.2-0.1,2.1-0.8,2.1-2.3c0-1.6-1-2.3-2.9-2.3h-3.1v8.2h1.2
		V103.4z M143.5,102.4v-2.5h1.7c0.9,0,1.8,0.2,1.8,1.2c0,1.3-0.9,1.3-2,1.3H143.5z"/>
</g>
</svg>
