<?xml version="1.0" encoding="utf-8"?>
<!-- Generator: Adobe Illustrator 23.0.1, SVG Export Plug-In . SVG Version: 6.00 Build 0)  -->
<svg version="1.1" id="Capa_1" xmlns="http://www.w3.org/2000/svg" xmlns:xlink="http://www.w3.org/1999/xlink" x="0px" y="0px"
	 viewBox="0 0 142 120" style="enable-background:new 0 0 142 120;" xml:space="preserve">
<style type="text/css">
	.st0{fill:#FFFFFF;}
</style>
<g>
	<g>
		<polygon class="st0" points="32.9,46.2 32.9,33.1 25.7,33.1 7.3,33.1 0.1,33.1 0.1,46.2 7.3,46.2 7.3,73.8 0.1,73.8 0.1,86.9 
			7.3,86.9 25.7,86.9 32.9,86.9 32.9,73.8 25.7,73.8 25.7,46.2 		"/>
		<path class="st0" d="M51.8,46.7c0-1.9,2.9-2.5,5-2.5C69,44.2,73,52.2,73,52.2h10.5V33.8H73v3.5c-2.3-1.3-9.3-4.8-16-4.8
			c-16,0-21,8.1-21,16.8c0,20.6,33.3,18,33.3,23.4c0,1.6-3,2.7-6.9,2.7c-10.5,0-14.7-6.6-15.6-8.4l-0.2-0.4H36.1v19.7h11.8v-3.9
			c3.7,2.4,9.7,5.2,17.4,5.2c13.5,0,19.9-8.7,19.9-16.6C85.2,49.5,51.8,53.2,51.8,46.7z"/>
		<path class="st0" d="M116.9,32.5h-5c-13.8,0-25,11.2-25,25v5c0,13.8,11.2,25,25,25h5c13.8,0,25-11.2,25-25v-5
			C141.9,43.7,130.7,32.5,116.9,32.5z M114.7,74.4h-0.3h-0.3c-8.2,0-8.7-5.3-8.7-14.4c0-9.1,0.5-14.4,8.7-14.4h0.3h0.3
			c8.2,0,8.7,5.3,8.7,14.4C123.4,69.1,122.9,74.4,114.7,74.4z"/>
	</g>
	<g>
		<path class="st0" d="M119.3,92.1c-3.5,5.2-7.7,9.8-12.6,13.6c-1.8-1.5-3.9-2.9-6.1-4.1c2.6-3,4.9-6.2,6.9-9.5h-2.3
			c-1.9,3-4,5.9-6.4,8.6c-3.3-1.6-6.9-2.9-10.8-3.8c0.8-1.6,1.5-3.2,2.2-4.8H88c-0.6,1.5-1.3,2.9-2,4.3c-4.4-1-9.2-1.5-14-1.6v-2.8
			h-2v2.8c-4.9,0.1-9.6,0.6-14,1.6c-0.7-1.4-1.4-2.9-2-4.3h-2.1c0.7,1.6,1.4,3.2,2.2,4.8c-3.9,1-7.5,2.2-10.8,3.8
			c-2.4-2.7-4.5-5.6-6.4-8.6h-2.3c2,3.4,4.3,6.6,6.9,9.5c-2.3,1.2-4.3,2.6-6.1,4.1c-4.9-3.8-9.1-8.4-12.6-13.6h-2.4
			C31,108.9,49.7,120,71,120s40-11.1,50.6-27.9H119.3z M87.1,98.7c3.7,0.9,7.2,2.1,10.3,3.5c-0.4,0.4-0.8,0.9-1.2,1.3
			c-3.9,3.9-8.2,7.4-13,10.2c-1.5-0.9-3-1.7-4.6-2.3c2.5-3.1,4.8-6.4,6.8-9.8C86,100.7,86.5,99.7,87.1,98.7z M72,96.9
			c4.5,0.1,8.9,0.5,13.1,1.4c-0.4,0.8-0.9,1.7-1.4,2.5c-2.1,3.6-4.5,7-7.1,10.1c-1.5-0.4-3.1-0.6-4.6-0.7V96.9z M70,96.9v13.3
			c-1.6,0.1-3.1,0.3-4.6,0.7c-2.6-3.2-5-6.6-7.1-10.1c-0.5-0.8-0.9-1.6-1.4-2.5C61.1,97.4,65.5,96.9,70,96.9z M54.9,98.7
			c0.5,1,1.1,2,1.7,3c2,3.4,4.3,6.7,6.8,9.8c-1.6,0.6-3.1,1.3-4.6,2.3c-4.7-2.9-9.1-6.3-13-10.2c-0.4-0.4-0.8-0.9-1.2-1.3
			C47.7,100.8,51.2,99.6,54.9,98.7z M55.8,116c-6.9-1.9-13.3-5-18.9-9.1c1.7-1.4,3.7-2.6,5.8-3.8c0.5,0.6,1.1,1.2,1.7,1.8
			c3.8,3.9,8,7.2,12.6,10.1C56.6,115.3,56.2,115.7,55.8,116z M71,118c-4.4,0-8.7-0.5-12.8-1.4c3.7-2.9,8.2-4.5,12.8-4.5
			c4.6,0,9.1,1.6,12.8,4.5C79.7,117.5,75.4,118,71,118z M86.2,116c-0.4-0.3-0.8-0.7-1.2-1c4.6-2.9,8.8-6.2,12.6-10.1
			c0.6-0.6,1.1-1.2,1.7-1.8c2.1,1.1,4.1,2.4,5.8,3.8C99.4,111,93.1,114.2,86.2,116z"/>
		<path class="st0" d="M22.7,27.9c3.4-5.2,7.7-9.7,12.6-13.6c1.9,1.5,3.9,2.9,6.3,4.2c-2.5,2.9-4.8,6.1-6.8,9.4h2.3
			c1.9-3,4-5.8,6.3-8.5c3.3,1.6,6.9,2.8,10.7,3.8c-0.8,1.5-1.4,3.1-2.1,4.7h2.1c0.6-1.4,1.2-2.8,1.9-4.2c4.4,1,9.1,1.5,14,1.5v2.6h2
			v-2.6c4.8-0.1,9.5-0.6,14-1.5c0.7,1.4,1.3,2.8,1.9,4.2H90c-0.6-1.6-1.3-3.1-2.1-4.7c3.9-1,7.5-2.2,10.7-3.8
			c2.3,2.6,4.4,5.5,6.3,8.5h2.3c-2-3.3-4.3-6.5-6.8-9.4c2.3-1.2,4.4-2.6,6.3-4.2c4.9,3.8,9.1,8.4,12.6,13.6h2.4
			C111,11.1,92.3,0,71,0S31,11.1,20.4,27.9H22.7z M55,21.4c-3.7-0.9-7.2-2.1-10.3-3.5c0.4-0.4,0.8-0.9,1.2-1.3
			c3.9-3.9,8.2-7.3,12.9-10.2c1.4,0.9,3,1.7,4.6,2.3c-2.5,3.1-4.8,6.3-6.7,9.7C56.1,19.4,55.5,20.4,55,21.4z M70,23.3
			c-4.5-0.1-8.9-0.5-13-1.4c0.4-0.8,0.9-1.6,1.4-2.5c2.1-3.5,4.4-6.9,7.1-10.1c1.5,0.4,3.1,0.6,4.6,0.7V23.3z M72,23.3V10
			c1.6-0.1,3.1-0.3,4.6-0.7c2.6,3.2,5,6.6,7.1,10.1c0.5,0.8,0.9,1.6,1.4,2.5C80.9,22.7,76.5,23.2,72,23.3z M87,21.4
			c-0.5-1-1.1-2-1.7-3c-2-3.4-4.3-6.7-6.7-9.7c1.6-0.6,3.1-1.3,4.6-2.3c4.7,2.8,9.1,6.3,12.9,10.2c0.4,0.4,0.8,0.9,1.2,1.3
			C94.2,19.4,90.7,20.5,87,21.4z M86.3,4c6.9,1.9,13.2,5,18.8,9.1c-1.8,1.4-3.8,2.7-6,3.9c-0.5-0.6-1.1-1.2-1.7-1.8
			c-3.8-3.8-8-7.2-12.6-10C85.4,4.8,85.9,4.4,86.3,4z M71,2c4.5,0,8.8,0.5,13,1.5c-3.8,3-8.3,4.6-13,4.6s-9.2-1.6-13-4.6
			C62.2,2.5,66.5,2,71,2z M55.7,4c0.5,0.4,0.9,0.8,1.4,1.2c-4.6,2.8-8.8,6.2-12.6,10c-0.6,0.6-1.1,1.2-1.7,1.8
			c-2.2-1.2-4.2-2.5-6-3.9C42.5,9,48.8,5.9,55.7,4z"/>
	</g>
</g>
</svg>
