<svg id="Capa_1" data-name="Capa 1" xmlns="http://www.w3.org/2000/svg" xmlns:xlink="http://www.w3.org/1999/xlink" viewBox="0 0 269.18 242.82"><defs><style>.cls-1{fill:url(#radial-gradient);}.cls-2{fill:#e94848;}.cls-3{fill:#fff;}.cls-4{fill:#010101;}</style><radialGradient id="radial-gradient" cx="126.02" cy="91.9" r="89" gradientUnits="userSpaceOnUse"><stop offset="0" stop-color="#d11134"/><stop offset="1" stop-color="#be1823"/></radialGradient></defs><title>logoTomaTurno</title><path class="cls-1" d="M215,91.9a89,89,0,1,1-89-89A89,89,0,0,1,215,91.9Z"/><path class="cls-2" d="M130.5,162.81l31.62-49.63,4.38-83.69,44.41,89.22A89,89,0,1,0,126,180.9c1.71,0,3.42-.06,5.12-.16l-16.23-19.39Z"/><path class="cls-3" d="M161,26.9h-9a6.34,6.34,0,0,0-6.15,4.79c-2.73,10.37-10.2,30.75-19.78,37.83C116,62.08,108.41,40,106.24,31.7a6.33,6.33,0,0,0-6.16-4.8h-9a6.37,6.37,0,0,0-6.36,6.36v83.26a6.36,6.36,0,0,0,6.36,6.36h2.26c3.76,11.57,13.94,38.19,30.06,45.4a6.51,6.51,0,0,0,2.57.54h.38a6.44,6.44,0,0,0,2.6-.56c16.09-7.19,26.13-33.79,29.82-45.38H161a6.36,6.36,0,0,0,6.36-6.36V33.26A6.37,6.37,0,0,0,161,26.9Zm-1.44,88.18H153l-.83,2.8c-5.12,17.34-14.63,37.66-26,43.09-11.38-5.46-21-25.77-26.22-43.11l-.84-2.78H92.5V34.7H99c1.82,6.62,9.51,37.63,25.2,42.86,2,.67,4.55.74,8.09,2.53a12.19,12.19,0,0,1,6.54,11.08,12.68,12.68,0,1,1-18.94-11,34.78,34.78,0,0,1-5.82-5,20.1,20.1,0,1,0,20.08-2.41c10.91-11.13,17.36-32.34,18.94-38h6.48Z"/><path class="cls-4" d="M31.33,205.38a1.24,1.24,0,0,1-.9,2.13H18.83v32a1.38,1.38,0,1,1-2.75,0v-32H4.48a1.24,1.24,0,1,1,0-2.47h26A1.21,1.21,0,0,1,31.33,205.38Z"/><path class="cls-4" d="M47.58,217.17a12.05,12.05,0,0,1,4.61,4.6,13,13,0,0,1,1.68,6.56,12.84,12.84,0,0,1-1.68,6.51,12,12,0,0,1-4.61,4.61,12.84,12.84,0,0,1-6.51,1.68,13,13,0,0,1-6.56-1.68,12.05,12.05,0,0,1-4.6-4.61,12.84,12.84,0,0,1-1.68-6.51,13,13,0,0,1,1.68-6.56,12.1,12.1,0,0,1,4.6-4.6,13,13,0,0,1,6.56-1.68A12.84,12.84,0,0,1,47.58,217.17Zm-11.64,2.24a10,10,0,0,0-3.63,3.69,10.95,10.95,0,0,0,0,10.46,9.76,9.76,0,0,0,3.63,3.67,10.58,10.58,0,0,0,10.27,0,9.54,9.54,0,0,0,3.6-3.67,11.1,11.1,0,0,0,0-10.46,9.81,9.81,0,0,0-3.6-3.69,10.44,10.44,0,0,0-10.27,0Z"/><path class="cls-4" d="M92.11,216.82a9.2,9.2,0,0,1,3.35,3.83,12.52,12.52,0,0,1,1.19,5.57v13.26a1.39,1.39,0,0,1-.36,1,1.33,1.33,0,0,1-1,.39,1.33,1.33,0,0,1-1.38-1.37V226.22A8.64,8.64,0,0,0,92,220.45a6,6,0,0,0-4.81-2.25A6.74,6.74,0,0,0,82,220.31a7.48,7.48,0,0,0-1.88,5.59v13.58a1.4,1.4,0,0,1-.37,1,1.33,1.33,0,0,1-1,.39,1.33,1.33,0,0,1-1.38-1.37V226.22a8.64,8.64,0,0,0-1.88-5.77,6,6,0,0,0-4.81-2.25,6.92,6.92,0,0,0-7.2,7.24v14a1.36,1.36,0,0,1-.37,1,1.46,1.46,0,0,1-2,0,1.33,1.33,0,0,1-.39-1V217.14a1.33,1.33,0,0,1,.39-1,1.55,1.55,0,0,1,2,0,1.35,1.35,0,0,1,.37,1v1.79a9,9,0,0,1,3.16-2.57,9.13,9.13,0,0,1,4-.91,8.9,8.9,0,0,1,4.77,1.3,9.61,9.61,0,0,1,3.35,3.6,9.28,9.28,0,0,1,3.43-3.6,9.54,9.54,0,0,1,5-1.3A9,9,0,0,1,92.11,216.82Z"/><path class="cls-4" d="M122.43,217.17a12.1,12.1,0,0,1,4.6,4.6,13,13,0,0,1,1.68,6.56v11.15a1.36,1.36,0,0,1-.37,1,1.31,1.31,0,0,1-1,.39,1.33,1.33,0,0,1-1.37-1.37V235.9a10.66,10.66,0,0,1-4.15,3.83,12.44,12.44,0,0,1-5.9,1.4,12.93,12.93,0,0,1-6.55-1.68,12,12,0,0,1-4.61-4.61,12.84,12.84,0,0,1-1.68-6.51,13,13,0,0,1,1.68-6.56,12.05,12.05,0,0,1,4.61-4.6,13.55,13.55,0,0,1,13.07,0Zm-1.38,20.06a9.54,9.54,0,0,0,3.6-3.67,11.1,11.1,0,0,0,0-10.46,9.81,9.81,0,0,0-3.6-3.69,10.09,10.09,0,0,0-13.9,3.69,10.95,10.95,0,0,0,0,10.46,9.76,9.76,0,0,0,3.63,3.67,10.58,10.58,0,0,0,10.27,0Z"/><path class="cls-2" d="M160.47,205.66a2.32,2.32,0,0,1,0,3.16,2.17,2.17,0,0,1-1.59.62H149v29a2.32,2.32,0,0,1-.69,1.7,2.38,2.38,0,0,1-4.08-1.7v-29h-9.91a2.23,2.23,0,0,1-1.58-3.78,2.11,2.11,0,0,1,1.58-.62h24.53A2.13,2.13,0,0,1,160.47,205.66Z"/><path class="cls-2" d="M181.4,216.36a2.3,2.3,0,0,1,.64,1.7v20.45a2.3,2.3,0,0,1-.64,1.68,2.25,2.25,0,0,1-1.69.66,2.26,2.26,0,0,1-2.34-2.34V238a10.09,10.09,0,0,1-3.49,2.27,11.63,11.63,0,0,1-4.31.8,11.79,11.79,0,0,1-5.69-1.37,9.73,9.73,0,0,1-3.94-4,13.15,13.15,0,0,1-1.42-6.35V218.06a2.27,2.27,0,0,1,2.34-2.34,2.24,2.24,0,0,1,1.67.67,2.28,2.28,0,0,1,.67,1.67v11.28a6.76,6.76,0,0,0,7.29,7.52,7.86,7.86,0,0,0,3.51-.78,6.17,6.17,0,0,0,2.47-2.11,5.18,5.18,0,0,0,.9-3V218.06a2.27,2.27,0,0,1,.66-1.7,2.34,2.34,0,0,1,1.68-.64A2.32,2.32,0,0,1,181.4,216.36Z"/><path class="cls-2" d="M206.4,216.23a2.13,2.13,0,0,1,1.37,1.83,1.62,1.62,0,0,1-.05.46,1.77,1.77,0,0,1-1.83,1.47,3.39,3.39,0,0,1-.69-.1,18.4,18.4,0,0,0-3-.32,8.65,8.65,0,0,0-5.32,1.52,4.85,4.85,0,0,0-2,4.08v13.39a2.38,2.38,0,0,1-.57,1.7,2.3,2.3,0,0,1-1.72.59,2.38,2.38,0,0,1-1.7-.57,2.31,2.31,0,0,1-.59-1.72v-20.5a2.06,2.06,0,0,1,2.29-2.29,2,2,0,0,1,2.29,2.29v.87a9.66,9.66,0,0,1,3.4-2.52,10.29,10.29,0,0,1,4.31-.92A8.18,8.18,0,0,1,206.4,216.23Z"/><path class="cls-2" d="M230.75,216.91a9.73,9.73,0,0,1,3.94,4,13.15,13.15,0,0,1,1.42,6.35v11.28a2.27,2.27,0,0,1-2.34,2.34,2.24,2.24,0,0,1-1.67-.67,2.28,2.28,0,0,1-.67-1.67V227.28a6.76,6.76,0,0,0-7.29-7.52,7.86,7.86,0,0,0-3.51.78,6.17,6.17,0,0,0-2.47,2.11,5.18,5.18,0,0,0-.9,3v12.93a2.29,2.29,0,0,1-.64,1.67,2.45,2.45,0,0,1-3.37,0,2.27,2.27,0,0,1-.66-1.67V218.11a2.26,2.26,0,0,1,.66-1.7,2.33,2.33,0,0,1,4,1.7v.5a10.23,10.23,0,0,1,3.49-2.27,11.63,11.63,0,0,1,4.31-.8A11.76,11.76,0,0,1,230.75,216.91Z"/><path class="cls-2" d="M261.72,217.21a11.77,11.77,0,0,1,4.5,4.52,14.17,14.17,0,0,1,0,13.16,11.56,11.56,0,0,1-4.47,4.52,14,14,0,0,1-13.09,0,11.51,11.51,0,0,1-4.5-4.52,14.33,14.33,0,0,1,0-13.16,11.51,11.51,0,0,1,4.5-4.52,13.16,13.16,0,0,1,6.56-1.63A12.94,12.94,0,0,1,261.72,217.21ZM251,220.81a7.75,7.75,0,0,0-2.91,3.07,9.23,9.23,0,0,0-1.06,4.45,9.1,9.1,0,0,0,1.06,4.43,7.77,7.77,0,0,0,2.91,3.05,8.55,8.55,0,0,0,8.39,0,7.65,7.65,0,0,0,2.89-3.05,9.31,9.31,0,0,0,1-4.43,9.45,9.45,0,0,0-1-4.45,7.64,7.64,0,0,0-2.89-3.07,8.55,8.55,0,0,0-8.39,0Z"/></svg>