<?xml version="1.0" encoding="utf-8"?>
<!-- Generator: Adobe Illustrator 23.0.2, SVG Export Plug-In . SVG Version: 6.00 Build 0)  -->
<svg version="1.1" id="Capa_1" xmlns="http://www.w3.org/2000/svg" xmlns:xlink="http://www.w3.org/1999/xlink" x="0px" y="0px"
	 viewBox="0 0 24 24" style="enable-background:new 0 0 24 24;" xml:space="preserve">
<style type="text/css">
	.st0{fill:#FFBD41;}
</style>
<g>
	<path class="st0" d="M12,0C5.4,0,0,5.4,0,12s5.4,12,12,12s12-5.4,12-12S18.6,0,12,0z M12,22C6.5,22,2,17.5,2,12S6.5,2,12,2
		s10,4.5,10,10S17.5,22,12,22z"/>
	<path class="st0" d="M19.7,11H13V4.3c0-0.6-0.4-1-1-1s-1,0.4-1,1V11H4.3c-0.6,0-1,0.4-1,1s0.4,1,1,1H11v6.7c0,0.6,0.4,1,1,1
		s1-0.4,1-1V13h6.7c0.6,0,1-0.4,1-1S20.2,11,19.7,11z"/>
</g>
</svg>
