<?xml version="1.0" encoding="utf-8"?>
<!-- Generator: Adobe Illustrator 23.0.1, SVG Export Plug-In . SVG Version: 6.00 Build 0)  -->
<svg version="1.1" id="Capa_1" xmlns="http://www.w3.org/2000/svg" xmlns:xlink="http://www.w3.org/1999/xlink" x="0px" y="0px"
	 viewBox="0 0 144 120" style="enable-background:new 0 0 144 120;" xml:space="preserve">
<style type="text/css">
	.st0{fill:#FFFFFF;}
</style>
<g>
	<path class="st0" d="M143.8,36.7H99.4c-15.5,0-28.9,9.7-35.1,23.8C59.9,52,51.4,46.9,38.3,46.9c-12.3,0-20.5,8.8-20.5,8.8
		C21.9,0,64.6,2.9,64.6,2.9V0.1c0,0-64.4-5.8-64.4,68.7c0,30.7,13.2,51.2,38.1,51.2c13.4,0,22.5-7.7,26.6-22.3
		C71.5,111,84.4,120,99.4,120c21.5,0,38.9-18.6,38.9-41.6c0-13.1-5.7-24.8-14.5-32.4h20V36.7z M36.8,117.6
		c-13.5,0-18.9-17.5-18.9-35.7C17.9,54.6,29,50,36.8,50c7.8,0,18.9,4.6,18.9,31.9C55.7,100,50.3,117.6,36.8,117.6z M124.8,78.4
		c0,17.9-11.4,32.4-25.4,32.4c-14,0-25.4-14.5-25.4-32.4s11.4-32.4,25.4-32.4C113.4,45.9,124.8,60.5,124.8,78.4z"/>
</g>
</svg>
