<?xml version="1.0" encoding="utf-8"?>
<!-- Generator: Adobe Illustrator 23.0.1, SVG Export Plug-In . SVG Version: 6.00 Build 0)  -->
<svg version="1.1" id="Capa_1" xmlns="http://www.w3.org/2000/svg" xmlns:xlink="http://www.w3.org/1999/xlink" x="0px" y="0px"
	 viewBox="0 0 270 98" style="enable-background:new 0 0 270 98;" xml:space="preserve">
<style type="text/css">
	.st0{fill:#FFFFFF;}
</style>
<g>
	<path class="st0" d="M30.5,47c0-2.7-2.2-4.9-4.9-4.9c-2.7,0-4.9,2.2-4.9,4.9c0,2.7,2.2,4.9,4.9,4.9C28.3,51.9,30.5,49.7,30.5,47"/>
	<path class="st0" d="M42.7,44.7c0-2.5-2-4.5-4.5-4.5c-2.5,0-4.5,2-4.5,4.5c0,2.5,2,4.5,4.5,4.5C40.7,49.2,42.7,47.2,42.7,44.7"/>
	<path class="st0" d="M54.3,48.2c0-2.3-1.8-4.1-4.1-4.1c-2.3,0-4.1,1.8-4.1,4.1c0,2.3,1.8,4.1,4.1,4.1
		C52.4,52.3,54.3,50.5,54.3,48.2"/>
	<path class="st0" d="M16.3,67.7c0-3.1-2.5-5.5-5.5-5.5c-3.1,0-5.5,2.5-5.5,5.5c0,3.1,2.5,5.5,5.5,5.5
		C13.8,73.3,16.3,70.8,16.3,67.7"/>
	<path class="st0" d="M20.9,55c0-2.9-2.4-5.3-5.3-5.3c-2.9,0-5.3,2.4-5.3,5.3c0,2.9,2.4,5.3,5.3,5.3C18.6,60.3,20.9,57.9,20.9,55"/>
	<path class="st0" d="M62.7,57c0-2-1.6-3.6-3.6-3.6c-2,0-3.6,1.6-3.6,3.6s1.6,3.6,3.6,3.6C61.1,60.6,62.7,59,62.7,57"/>
	<path class="st0" d="M66.2,68.2c0-1.9-1.5-3.3-3.3-3.3c-1.8,0-3.3,1.5-3.3,3.3c0,1.8,1.5,3.3,3.3,3.3C64.7,71.5,66.2,70,66.2,68.2"
		/>
	<path class="st0" d="M64.2,79.5c0-1.6-1.3-2.8-2.8-2.8c-1.6,0-2.8,1.3-2.8,2.8c0,1.6,1.3,2.8,2.8,2.8C62.9,82.3,64.2,81,64.2,79.5"
		/>
	<path class="st0" d="M57.9,89.6c0-1.3-1.1-2.4-2.4-2.4c-1.3,0-2.4,1.1-2.4,2.4c0,1.4,1.1,2.4,2.4,2.4C56.8,92.1,57.9,91,57.9,89.6"
		/>
	<path class="st0" d="M48.7,95.3c0-1.3-1-2.3-2.3-2.3c-1.3,0-2.3,1-2.3,2.3c0,1.3,1,2.3,2.3,2.3C47.7,97.6,48.7,96.6,48.7,95.3"/>
	<path class="st0" d="M24.7,4.6c-0.3-2,1.1-3.8,3.1-4.1c2-0.3,3.9,1.1,4.1,3.1c0.3,2-1.1,3.8-3.1,4.1C26.9,8,25,6.6,24.7,4.6"/>
	<path class="st0" d="M15.3,4.3c-0.3-1.8,1-3.6,2.9-3.8c1.8-0.3,3.6,1,3.8,2.9c0.3,1.8-1,3.6-2.9,3.8C17.2,7.4,15.5,6.1,15.3,4.3"/>
	<path class="st0" d="M6.7,8.4C6.4,6.7,7.6,5.1,9.3,4.9c1.7-0.2,3.2,0.9,3.5,2.6c0.2,1.7-0.9,3.3-2.6,3.5C8.5,11.2,6.9,10.1,6.7,8.4
		"/>
	<path class="st0" d="M37.7,18.7c-0.3-2.3,1.2-4.4,3.5-4.7c2.3-0.3,4.4,1.2,4.7,3.5c0.3,2.3-1.2,4.4-3.5,4.7
		C40.1,22.6,38,21,37.7,18.7"/>
	<path class="st0" d="M32.8,9.7c-0.3-2.1,1.2-4.1,3.3-4.4c2.1-0.3,4.1,1.2,4.4,3.3c0.3,2.1-1.2,4.1-3.3,4.5
		C35.1,13.3,33.1,11.8,32.8,9.7"/>
	<path class="st0" d="M1.5,15.7c-0.2-1.5,0.8-2.9,2.3-3.1c1.5-0.2,2.9,0.8,3.1,2.3c0.2,1.5-0.8,2.9-2.3,3.1
		C3.1,18.3,1.7,17.3,1.5,15.7"/>
	<path class="st0" d="M0,24.5c-0.2-1.4,0.8-2.7,2.2-2.9c1.4-0.2,2.7,0.8,2.9,2.2c0.2,1.4-0.8,2.7-2.2,2.9C1.5,26.9,0.2,25.9,0,24.5"
		/>
	<path class="st0" d="M2.8,32.9c-0.2-1.2,0.6-2.3,1.8-2.4c1.2-0.2,2.3,0.6,2.4,1.8c0.2,1.2-0.6,2.3-1.8,2.4C4.1,34.8,3,34,2.8,32.9"
		/>
	<path class="st0" d="M8.6,39.8c-0.1-1,0.6-2,1.6-2.1c1-0.1,2,0.6,2.1,1.6c0.2,1-0.6,2-1.6,2.1C9.7,41.5,8.8,40.8,8.6,39.8"/>
	<path class="st0" d="M16.2,43.1c-0.1-1,0.5-1.9,1.5-2c1-0.1,1.9,0.5,2,1.5c0.1,1-0.5,1.9-1.5,2C17.2,44.7,16.3,44,16.2,43.1"/>
	<path class="st0" d="M60.4,39.9c-1.1,6.3,6,8.4,10.5,8.4c7.2,0,13.5-4.5,13.5-11.9c0-11.7-15.1-8.6-15.1-16.1
		c0-3.8,3.3-6.1,7.5-6.1c2.4,0,5.8,0.8,5.3,3.4L81.6,20h4.5l0.8-4c0.9-4.8-5.4-6.6-9.5-6.6c-6.9,0-13.2,3.8-13.2,11.1
		c0,11.2,15.1,8.3,15.1,16.1c0,4-3.2,6.9-7.8,6.9c-3.3,0-7-1.1-6.5-4.4l0.5-2.9h-4.5L60.4,39.9z"/>
	<path class="st0" d="M104.9,20c3.6,0,9.5,1.5,8.7,6.3l-0.6,3.1h-4.2l0.3-1.8c0.3-2.2-2.4-3.1-4.8-3.1C99,24.5,94,29.9,94,36.1
		c0,4.7,2.8,7.7,7.4,7.7c4.9,0,8.5-3.5,8.5-3.5l1.4,4c0,0-3.8,4-10.3,4c-7.2,0-11.8-4.8-11.8-11.8C89.2,27.7,96.2,20,104.9,20"/>
	<path class="st0" d="M117.8,47.6h4.7l1.8-10c1.1-6.2,5.2-12.2,9.7-12.2c0.6,0,1.1,0.1,1.3,0.2l0.9-5.1c-0.3-0.1-0.8-0.1-1.5-0.1
		c-3.9,0-7.2,3.4-8.9,7.2h-0.1c0.4-1.3,0.9-3.9,0.9-4.6c0-1.5-0.7-2.3-2.6-2.3h-5.6l-0.8,4h3.1c0.8,0,1,0.5,0.9,1.2L117.8,47.6z"/>
	<path class="st0" d="M141.5,37.8l2.3-13.1h-4.1l0.7-4h8.9l-2.8,16c-0.2,1.1-0.4,2.2-0.4,3.1c0,2.3,0.9,3.8,3.7,3.8
		c4.9,0,9-5.5,9.8-10.7l1.5-8.3h-4.1l0.7-4h8.9l-3.4,19.1c-0.1,0.6-0.1,1.2-0.1,1.6c0,1.9,1,2.3,2.2,2.3c0.7,0,1.2-0.1,1.2-0.1
		l-0.7,4c0,0-1.1,0.1-2.3,0.1c-3.3,0-5.3-1.9-4.9-5.9h-0.1c-1.6,2.8-5,6.4-10.2,6.4c-3.8,0-6.9-2-6.9-7.1
		C141.1,40.2,141.2,39,141.5,37.8"/>
	<path class="st0" d="M176.5,25.8c0.1-0.7-0.1-1.1-0.9-1.1h-3.1l0.7-4h5.6c2,0,2.7,0.8,2.7,2.2c0,0.6-0.4,2.7-0.7,3.7h0.1
		c1.2-2.4,5.2-6.6,9.8-6.6c4,0,6,2.3,6.2,6.6h0.1c1.9-3.7,5.6-6.6,9.7-6.6c4.2,0,6.8,2.6,6.8,7.1c0,3.2-2.2,12.1-2.2,14.2
		c0,2,1,2.3,2.2,2.3c0.7,0,1.2-0.1,1.2-0.1l-0.7,4c0,0-0.9,0.1-2.1,0.1c-2.2,0-5.4-0.5-5.4-5.1c0-2.5,2.1-11.5,2.1-14.1
		c0-2.3-0.8-3.9-3.6-3.9c-4.6,0-8.1,5.4-9,10.6l-2.2,12.3H189l2.9-16.1c0.1-1.1,0.3-2.1,0.3-3c0-2.2-0.8-3.7-3.5-3.7
		c-4.7,0-8.3,5.5-9.3,10.9l-2.2,12h-4.8L176.5,25.8z"/>
	<path class="st0" d="M69.5,93.2H73l17.7-34.4h3.8l5.4,34.4h3.5l-0.5,3.1H92l0.5-3.1h4L95,83.6H81.6l-4.9,9.6h3.9L80,96.3H69
		L69.5,93.2z M94.6,80.4l-2.3-15.3c-0.2-1.2-0.2-2.4-0.2-2.4H92c0,0-0.3,1.2-0.9,2.4l-7.9,15.3H94.6z"/>
	<path class="st0" d="M108.6,89.6l4.9-27.8h-4.4l0.5-3h7.7L112,89.2c-0.1,0.6-0.2,1.3-0.2,1.8c0,2.2,1.2,2.4,2.3,2.4
		c0.8,0,1.2-0.1,1.2-0.1l-0.5,3.1c0,0-0.9,0.2-1.7,0.2c-1.9,0-4.8-0.6-4.8-4.9C108.3,91.1,108.4,90.3,108.6,89.6"/>
	<path class="st0" d="M121.7,89.6l4.9-27.8h-4.4l0.5-3h7.7l-5.4,30.3c-0.1,0.6-0.2,1.3-0.2,1.8c0,2.2,1.2,2.4,2.4,2.4
		c0.8,0,1.2-0.1,1.2-0.1l-0.5,3.1c0,0-0.9,0.2-1.7,0.2c-1.9,0-4.8-0.6-4.8-4.9C121.4,91.1,121.5,90.3,121.7,89.6"/>
	<path class="st0" d="M135.8,89.7l3.1-17.3h-4.4l0.5-3h7.7l-3.6,19.9c-0.1,0.6-0.1,1.1-0.1,1.5c0,2.2,1.2,2.5,2.4,2.5
		c0.8,0,1.2-0.1,1.2-0.1l-0.5,3c0,0-1,0.1-1.7,0.1c-1.9,0-4.8-0.5-4.8-4.7C135.6,91.2,135.7,90.5,135.8,89.7 M141.2,58.8h3.8
		l-0.8,4.5h-3.8L141.2,58.8z"/>
	<path class="st0" d="M163.4,79.9h1.6c0,0,0.4-2.1,0.4-3c0-2.8-1.3-4.8-5-4.8c-4.1,0-7.4,2.5-7.4,2.5l-1-2.9c0,0,3.8-2.8,9-2.8
		c4.7,0,7.9,2.3,7.9,7.5c0,3.1-2.4,12.4-2.4,14.6c0,2.2,1.2,2.5,2.3,2.5c0.8,0,1.3-0.1,1.3-0.1l-0.5,3c0,0-1,0.1-1.9,0.1
		c-2.9,0-4.7-1.7-4.5-5.2H163c0.1,0-3.2,5.8-9.1,5.8c-4,0-7.2-2.4-7.2-6.7C146.8,81.6,156.7,79.9,163.4,79.9 M154.8,94
		c4.6,0,8.5-5.5,9.5-10.2l0.2-1.2h-1.4c-4.1,0-13,0.5-13,7.1C150.1,92,151.5,94,154.8,94"/>
	<path class="st0" d="M176,96.3h3.3l2.2-12.3c1.1-6.3,6-11.7,11.3-11.7c2.7,0,4.3,1.4,4.3,4.5c0,3-2.3,12.7-2.3,15.1
		c0,4,2.9,4.6,4.7,4.6c0.8,0,1.8-0.1,1.8-0.1l0.5-3c0,0-0.4,0.1-1.2,0.1c-1.2,0-2.4-0.2-2.4-2.5c0-2.1,2.3-11.9,2.3-15.2
		c0-4.4-2.4-6.9-6.7-6.9c-6.1,0-10,4.8-11,7.1h-0.1c0.4-1.1,0.8-3.7,0.8-4.3c0-1.4-0.6-2.2-2.5-2.2h-4.7l-0.5,3h3.3
		c0.8,0,1,0.5,0.9,1.2L176,96.3z"/>
	<path class="st0" d="M222.3,68.9c3.3,0,8.9,1.5,8.2,5.9l-0.5,2.8h-3.1l0.3-2c0.4-2.5-2.9-3.5-5.3-3.5c-5.7,0-11.7,5.6-11.7,12.9
		c0,5.4,3.3,8.6,8.1,8.6c5.1,0,8.7-3.7,8.7-3.7l1.1,3c0,0-3.7,4-10,4c-6.7,0-11.3-4.5-11.3-11.7C206.8,76.2,214.1,68.9,222.3,68.9"
		/>
	<path class="st0" d="M248.3,68.9c6.1,0,8.9,4.1,8.9,9.7c0,2.1-0.7,4.4-0.7,4.4h-18.9c0,0-0.2,1.1-0.2,2.5c0,4.6,2.7,8.3,7.9,8.3
		c4.5,0,8.1-3.2,8.1-3.2l1,3c0,0-4.1,3.5-9.2,3.5c-6.7,0-11.2-4.5-11.2-11.3C233.9,76.9,239.9,68.9,248.3,68.9 M253.5,80.3
		c0,0,0.2-1,0.2-2c0-4.3-2.4-6.3-5.6-6.3c-4.1,0-8.2,2.9-10,8.4H253.5z"/>
	<path class="st0" d="M264.1,62.6c3.2,0,5.9,2.6,5.9,5.8c0,3.2-2.6,5.8-5.9,5.8c-3.2,0-5.8-2.6-5.8-5.8
		C258.3,65.2,260.9,62.6,264.1,62.6 M264.1,73.2c2.6,0,4.7-2.1,4.7-4.7c0-2.7-2-4.7-4.7-4.7c-2.6,0-4.6,2.1-4.6,4.7
		C259.5,71.1,261.6,73.2,264.1,73.2 M262.2,65.4h2.4c1.2,0,1.9,0.7,1.9,1.8c0,0.9-0.6,1.5-1.1,1.6v0l0.2,0.3l1.2,2.2h-1.3l-1.1-2.3
		h-1v2.3h-1.2V65.4z M264.3,68.3c0.6,0,1-0.4,1-1c0-0.6-0.4-1-1-1h-1v2H264.3z"/>
</g>
</svg>
