<?xml version="1.0" encoding="utf-8"?>
<!-- Generator: Adobe Illustrator 23.0.1, SVG Export Plug-In . SVG Version: 6.00 Build 0)  -->
<svg version="1.1" id="Capa_1" xmlns="http://www.w3.org/2000/svg" xmlns:xlink="http://www.w3.org/1999/xlink" x="0px" y="0px"
	 viewBox="0 0 250 105" style="enable-background:new 0 0 250 105;" xml:space="preserve">
<style type="text/css">
	.st0{fill:#FFFFFF;}
</style>
<g>
	<path class="st0" d="M149.8,35.8c-5.5,0-9.6,2.7-9.6,9.2c0,4.9,2.7,8.3,9.3,8.3c5.6,0,9.4-3.3,9.4-8.5
		C158.9,38.9,155.5,35.8,149.8,35.8L149.8,35.8L149.8,35.8z M138.9,81.6c-1.3,1.6-2.6,3.3-2.6,5.3c0,4,5.1,5.2,12.1,5.2
		c5.8,0,13.7-0.4,13.7-5.8c0-3.2-3.8-3.4-8.6-3.7L138.9,81.6L138.9,81.6z M168.4,36.1c1.8,2.3,3.7,5.5,3.7,10.1
		c0,11.1-8.7,17.5-21.2,17.5c-3.2,0-6.1-0.4-7.9-0.9l-3.3,5.3l9.8,0.6c17.2,1.1,27.4,1.6,27.4,14.8c0,11.5-10.1,17.9-27.4,17.9
		c-18,0-24.9-4.6-24.9-12.5c0-4.5,2-6.9,5.5-10.2c-3.3-1.4-4.4-3.9-4.4-6.6c0-2.2,1.1-4.2,2.9-6.1c1.8-1.9,3.8-3.8,6.2-6
		c-4.9-2.4-8.6-7.6-8.6-14.9c0-11.5,7.6-19.3,22.8-19.3c4.3,0,6.9,0.4,9.2,1h19.4v8.5L168.4,36.1L168.4,36.1z"/>
	<path class="st0" d="M195.1,18c-5.7,0-9-3.3-9-9c0-5.7,3.3-8.8,9-8.8c5.8,0,9.1,3.1,9.1,8.8C204.1,14.7,200.8,18,195.1,18L195.1,18
		L195.1,18z M182.2,77.9V70l5.1-0.7c1.4-0.2,1.6-0.5,1.6-2V38.1c0-1.1-0.3-1.8-1.3-2.1l-5.4-1.9l1.1-8.1h20.6v41.3
		c0,1.6,0.1,1.8,1.6,2l5.1,0.7v7.9H182.2L182.2,77.9z"/>
	<path class="st0" d="M250,74c-4.3,2.1-10.6,4-16.2,4c-11.9,0-16.3-4.8-16.3-16V35.9c0-0.6,0-1-0.8-1h-7V26
		c8.8-1,12.3-5.4,13.4-16.2h9.5v14.2c0,0.7,0,1,0.8,1h14v10h-14.8v23.8c0,5.9,1.4,8.2,6.8,8.2c2.8,0,5.7-0.7,8.1-1.6L250,74"/>
	<path class="st0" d="M102.4,47.9L56.8,2.3c-2.6-2.6-6.9-2.6-9.5,0l-9.5,9.5l12,12c2.8-0.9,6-0.3,8.2,1.9c2.2,2.2,2.9,5.5,1.9,8.3
		l11.6,11.6c2.8-1,6-0.3,8.3,1.9c3.1,3.1,3.1,8.2,0,11.3c-3.1,3.1-8.2,3.1-11.3,0c-2.3-2.4-2.9-5.8-1.7-8.7L55.9,39.3l0,28.4
		c0.8,0.4,1.5,0.9,2.1,1.5c3.1,3.1,3.1,8.2,0,11.3c-3.1,3.1-8.2,3.1-11.3,0c-3.1-3.1-3.1-8.2,0-11.3c0.8-0.8,1.7-1.4,2.6-1.7V38.8
		c-1-0.4-1.8-1-2.6-1.7c-2.4-2.4-2.9-5.8-1.7-8.7L33.2,16.4L2,47.7c-2.6,2.6-2.6,6.9,0,9.5l45.6,45.6c2.6,2.6,6.9,2.6,9.5,0
		l45.3-45.3C105,54.8,105,50.5,102.4,47.9"/>
</g>
</svg>
