<?xml version="1.0" encoding="utf-8"?>
<!-- Generator: Adobe Illustrator 23.0.1, SVG Export Plug-In . SVG Version: 6.00 Build 0)  -->
<svg version="1.1" id="Capa_1" xmlns="http://www.w3.org/2000/svg" xmlns:xlink="http://www.w3.org/1999/xlink" x="0px" y="0px"
	 viewBox="0 0 110 205" style="enable-background:new 0 0 110 205;" xml:space="preserve">
<style type="text/css">
	.st0{fill:#FFFFFF;}
</style>
<g>
	<path class="st0" d="M105.4,161.5h-0.8v-0.4h2.1v0.4h-0.8v2.2h-0.5V161.5z M109.5,161.7L109.5,161.7l-0.8,2h-0.3l-0.8-2h0v2h-0.5
		v-2.6h0.7l0.7,1.8l0.7-1.8h0.7v2.6h-0.5L109.5,161.7L109.5,161.7z"/>
	<path class="st0" d="M36.4,108.7c0,0-5.4,3.1,3.8,4.2c11.1,1.3,16.8,1.1,29.1-1.2c0,0,3.2,2,7.7,3.8
		C49.5,127.2,14.8,114.8,36.4,108.7"/>
	<path class="st0" d="M33,93.4c0,0-6,4.5,3.2,5.4c11.9,1.2,21.3,1.3,37.5-1.8c0,0,2.2,2.3,5.8,3.5C46.2,110.2,9.2,101.3,33,93.4"/>
	<path class="st0" d="M61.3,67.3c6.8,7.8-1.8,14.8-1.8,14.8s17.2-8.9,9.3-20c-7.4-10.4-13-15.5,17.6-33.3
		C86.4,28.9,38.4,40.9,61.3,67.3"/>
	<path class="st0" d="M97.6,120.1c0,0,4,3.3-4.4,5.8c-15.9,4.8-66,6.3-79.9,0.2c-5-2.2,4.4-5.2,7.3-5.8c3.1-0.7,4.8-0.5,4.8-0.5
		c-5.6-3.9-36,7.7-15.5,11C66.1,139.8,112.2,126.6,97.6,120.1"/>
	<path class="st0" d="M38.9,77.4c0,0-25.5,6.1-9,8.3c7,0.9,20.8,0.7,33.7-0.4c10.6-0.9,21.2-2.8,21.2-2.8s-3.7,1.6-6.4,3.4
		c-25.9,6.8-75.9,3.6-61.5-3.3C29,76.8,38.9,77.4,38.9,77.4"/>
	<path class="st0" d="M84.7,103C111,89.3,98.9,76.2,90.4,78c-2.1,0.4-3,0.8-3,0.8s0.8-1.2,2.2-1.7c16.8-5.9,29.7,17.4-5.4,26.7
		C84.2,103.7,84.6,103.3,84.7,103"/>
	<path class="st0" d="M68.8,0.2c0,0,14.6,14.6-13.8,37c-22.8,18-5.2,28.2,0,40c-13.3-12-23.1-22.6-16.5-32.4
		C48.1,30.4,74.7,23.4,68.8,0.2"/>
	<path class="st0" d="M41.5,140.1c25.3,1.6,64.1-0.9,65-12.9c0,0-1.8,4.5-20.9,8.1c-21.6,4.1-48.2,3.6-64,1
		C21.7,136.4,24.9,139,41.5,140.1"/>
	<path class="st0" d="M37.4,185.8c-2.4,2.1-4.9,3.2-7.2,3.2c-3.2,0-5-1.9-5-5c0-3.4,1.9-5.8,9.4-5.8h2.8V185.8 M44,193.2v-23
		c0-5.9-3.3-9.7-11.4-9.7c-4.7,0-8.8,1.2-12.2,2.6l1,4.1c2.6-1,6.1-1.9,9.4-1.9c4.6,0,6.6,1.9,6.6,5.7v2.9h-2.3
		c-11.3,0-16.4,4.4-16.4,11c0,5.7,3.4,8.9,9.7,8.9c4.1,0,7.1-1.7,9.9-4.1l0.5,3.5L44,193.2L44,193.2z"/>
	<path class="st0" d="M65.9,193.2h-8.2l-9.9-32.1H55l6.1,19.7l1.4,5.9c3.1-8.6,5.3-17.3,6.4-25.7h7C74,171.7,70.6,183.3,65.9,193.2"
		/>
	<path class="st0" d="M97.4,185.8c-2.4,2.1-4.9,3.2-7.2,3.2c-3.2,0-5-1.9-5-5c0-3.4,1.9-5.8,9.4-5.8h2.8V185.8 M104,193.2v-23
		c0-5.9-3.4-9.7-11.4-9.7c-4.7,0-8.8,1.2-12.2,2.6l1,4.1c2.6-1,6.1-1.9,9.4-1.9c4.6,0,6.6,1.9,6.6,5.7v2.9h-2.3
		c-11.3,0-16.4,4.4-16.4,11c0,5.7,3.4,8.9,9.7,8.9c4.1,0,7.1-1.7,9.9-4.1l0.5,3.5L104,193.2L104,193.2z"/>
	<path class="st0" d="M11.5,198.7c-1.9,2.7-4.9,4.9-8.2,6.1L0,201c2.5-1.3,4.7-3.4,5.7-5.3c0.9-1.7,1.2-4,1.2-9.3v-36.7h7v36.2
		C13.9,193,13.3,195.9,11.5,198.7"/>
</g>
</svg>
