<?xml version="1.0" encoding="utf-8"?>
<!-- Generator: Adobe Illustrator 23.0.1, SVG Export Plug-In . SVG Version: 6.00 Build 0)  -->
<svg version="1.1" id="Capa_1" xmlns="http://www.w3.org/2000/svg" xmlns:xlink="http://www.w3.org/1999/xlink" x="0px" y="0px"
	 viewBox="0 0 200 200" style="enable-background:new 0 0 200 200;" xml:space="preserve">
<style type="text/css">
	.st0{fill:#FFBC85;}
	.st1{fill:#FFFFFF;}
	.st2{fill:#002759;}
</style>
<circle class="st0" cx="100" cy="100" r="100"/>
<path class="st1" d="M100,192.5c-24.7,0-47.9-9.6-65.4-27.1C17.1,147.9,7.5,124.7,7.5,100c0-24.7,9.6-47.9,27.1-65.4
	C52.1,17.1,75.3,7.5,100,7.5c24.7,0,47.9,9.6,65.4,27.1c17.5,17.5,27.1,40.7,27.1,65.4c0,24.7-9.6,47.9-27.1,65.4
	C147.9,182.9,124.7,192.5,100,192.5z"/>
<path class="st0" d="M148.6,43.5l-6.3,7.9h-8c0.1-2.5,0.2-5.1,0.2-7.7h3.3v-4.2H62.1v4.2h3.3c0,2.6,0.1,5.2,0.2,7.7h-8l-6.3-7.9
	H37.9l0.3,3c0.1,0.6,1.6,14.4,7.6,28.5c7.7,18.1,19.5,28.1,34,29.2c5.3,8.3,11.3,12.8,16.5,12.8v7.3c-1.6,1.2-2.7,3-2.7,5.2
	c0,2.1,1,4,2.6,5.1c-0.6,7.3-8.7,10.3-8.7,10.3h-5.8l-7.9,10.4h-4.6v5h61.6v-5h-4.6l-7.9-10.4h-5.8c0,0-8.1-3.1-8.7-10.3
	c1.6-1.2,2.6-3,2.6-5.1c0-2.1-1.1-4-2.7-5.2v-7.3c5.2,0,11.2-4.5,16.5-12.8c14.6-1.1,26.3-11.2,34-29.2c6-14.1,7.5-27.9,7.6-28.5
	l0.3-3H148.6z M44,49h4.7l6.3,7.9h11c1.4,17.2,5.4,31.3,10.5,41.4C52.9,93.3,45.7,59.3,44,49z M123.5,98.3
	c5.1-10.2,9.1-24.3,10.5-41.4h11l6.3-7.9h4.7C154.3,59.3,147.1,93.3,123.5,98.3z"/>
<g>
	<path class="st2" d="M100,201c-24,0-47.3-8.6-65.5-24.2c-0.4-0.4-0.5-1-0.1-1.4c0.4-0.4,1-0.5,1.4-0.1C53.6,190.6,76.5,199,100,199
		c54.6,0,99-44.4,99-99S154.6,1,100,1S1,45.4,1,100c0,21.8,7,42.5,20.1,59.8c0.3,0.4,0.2,1.1-0.2,1.4c-0.4,0.3-1.1,0.2-1.4-0.2
		C6.1,143.4-1,122.3-1,100C-1,44.3,44.3-1,100-1s101,45.3,101,101C201,155.7,155.7,201,100,201z"/>
	<path class="st2" d="M28,170.4c-0.3,0-0.5-0.1-0.7-0.3c-1.7-1.7-3.3-3.5-4.8-5.4c-0.4-0.4-0.3-1.1,0.1-1.4c0.4-0.4,1.1-0.3,1.4,0.1
		c1.5,1.8,3.1,3.6,4.7,5.3c0.4,0.4,0.4,1,0,1.4C28.5,170.3,28.3,170.4,28,170.4z"/>
	<path class="st2" d="M100,193.5c-25,0-48.5-9.7-66.1-27.4C16.2,148.5,6.5,125,6.5,100s9.7-48.5,27.4-66.1C51.5,16.2,75,6.5,100,6.5
		c12.4,0,24.5,2.4,35.8,7.1c0.5,0.2,0.8,0.8,0.5,1.3s-0.8,0.7-1.3,0.5c-11.1-4.6-22.9-6.9-35-6.9c-24.4,0-47.4,9.5-64.7,26.8
		C18,52.6,8.5,75.6,8.5,100c0,24.4,9.5,47.4,26.8,64.7c17.3,17.3,40.3,26.8,64.7,26.8s47.4-9.5,64.7-26.8s26.8-40.3,26.8-64.7
		c0-24.4-9.5-47.4-26.8-64.7c-4.3-4.3-9-8.2-14-11.5c-0.5-0.3-0.6-0.9-0.3-1.4c0.3-0.5,0.9-0.6,1.4-0.3c5.1,3.4,9.9,7.4,14.3,11.8
		c17.7,17.7,27.4,41.1,27.4,66.1s-9.7,48.5-27.4,66.1S125,193.5,100,193.5z"/>
	<path class="st2" d="M144.8,20c-0.2,0-0.3,0-0.5-0.1c-1.4-0.8-2.8-1.5-4.2-2.2c-0.5-0.2-0.7-0.8-0.5-1.3c0.2-0.5,0.8-0.7,1.3-0.5
		c1.4,0.7,2.9,1.4,4.2,2.2c0.5,0.3,0.7,0.9,0.4,1.4C145.5,19.8,145.1,20,144.8,20z"/>
	<path class="st2" d="M130.8,161.4H87c-0.6,0-1-0.4-1-1s0.4-1,1-1h42.8v-3h-3.6c-0.3,0-0.6-0.1-0.8-0.4l-7.6-10h-5.3
		c-0.1,0-0.2,0-0.4-0.1c-0.4-0.1-8.7-3.4-9.3-11.2c0-0.3,0.1-0.7,0.4-0.9c1.4-1,2.2-2.6,2.2-4.3c0-1.7-0.8-3.3-2.2-4.4
		c-0.3-0.2-0.4-0.5-0.4-0.8v-7.3c0-0.6,0.4-1,1-1c4.9,0,10.6-4.5,15.6-12.4c0.2-0.3,0.5-0.4,0.8-0.5c12.8-1,23.5-9.2,30.9-23.8
		c0.3-0.5,0.9-0.7,1.3-0.4c0.5,0.3,0.7,0.9,0.4,1.3c-7.7,15.1-18.8,23.7-32.1,24.9c-5,7.7-10.8,12.3-16.1,12.8v5.8
		c1.7,1.4,2.7,3.5,2.7,5.7c0,2.1-0.9,4.2-2.6,5.6c0.8,5.7,6.8,8.5,7.8,8.9h5.6c0.3,0,0.6,0.1,0.8,0.4l7.6,10h4.1c0.6,0,1,0.4,1,1v5
		C131.8,161,131.3,161.4,130.8,161.4z M84,161.4h-2.2c-0.6,0-1-0.4-1-1s0.4-1,1-1H84c0.6,0,1,0.4,1,1S84.5,161.4,84,161.4z
		 M78.5,161.4h-9.3c-0.6,0-1-0.4-1-1v-5c0-0.6,0.4-1,1-1h4.1l7.6-10c0.2-0.2,0.5-0.4,0.8-0.4h5.6c1.1-0.5,7-3.3,7.8-8.9
		c-1.6-1.4-2.6-3.4-2.6-5.6c0-2.2,1-4.3,2.7-5.7V118c-5.3-0.5-11-5.1-16.1-12.8c-14.7-1.3-26.6-11.6-34.4-29.8
		c-6.1-14.2-7.6-28.2-7.7-28.8l-0.3-3c0-0.3,0.1-0.6,0.3-0.8c0.2-0.2,0.5-0.3,0.7-0.3h13.5c0.3,0,0.6,0.1,0.8,0.4l6,7.5h6.5
		c-0.1-1.9-0.1-3.8-0.1-5.7h-2.3c-0.6,0-1-0.4-1-1v-4.2c0-0.6,0.4-1,1-1h75.7c0.6,0,1,0.4,1,1v4.2c0,0.6-0.4,1-1,1h-2.3
		c0,1.9-0.1,3.8-0.1,5.7h6.5l5.9-7.5c0.2-0.2,0.5-0.4,0.8-0.4h13.5c0.3,0,0.6,0.1,0.7,0.3c0.2,0.2,0.3,0.5,0.3,0.8l-0.3,3
		c-0.1,0.6-1.6,14.6-7.7,28.8c-0.2,0.5-0.8,0.7-1.3,0.5c-0.5-0.2-0.7-0.8-0.5-1.3c6-13.9,7.5-27.6,7.5-28.2l0.2-1.9h-11.9l-5.9,7.5
		c-0.2,0.2-0.5,0.4-0.8,0.4h-8c-0.3,0-0.5-0.1-0.7-0.3c-0.2-0.2-0.3-0.5-0.3-0.7c0.1-2.6,0.2-5.1,0.2-7.7c0-0.6,0.4-1,1-1h2.3v-2.2
		H63.1v2.2h2.3c0.6,0,1,0.4,1,1c0,2.5,0.1,5.1,0.2,7.7c0,0.3-0.1,0.5-0.3,0.7c-0.2,0.2-0.5,0.3-0.7,0.3h-8c-0.3,0-0.6-0.1-0.8-0.4
		l-6-7.5H39l0.2,1.9c0.1,0.6,1.6,14.3,7.5,28.2c7.6,17.7,19,27.6,33.2,28.6c0.3,0,0.6,0.2,0.8,0.5c5,7.9,10.7,12.4,15.6,12.4
		c0.6,0,1,0.4,1,1v7.3c0,0.3-0.2,0.6-0.4,0.8c-1.4,1-2.2,2.6-2.2,4.4c0,1.7,0.8,3.3,2.2,4.3c0.3,0.2,0.4,0.5,0.4,0.9
		c-0.7,7.8-9,11.1-9.3,11.2c-0.1,0-0.2,0.1-0.4,0.1h-5.3l-7.6,10c-0.2,0.2-0.5,0.4-0.8,0.4h-3.6v3h8.3c0.6,0,1,0.4,1,1
		S79.1,161.4,78.5,161.4z M123.5,99.3c-0.3,0-0.6-0.1-0.8-0.4c-0.2-0.3-0.3-0.7-0.1-1.1c3.9-7.7,8.8-21.1,10.4-41.1
		c0-0.5,0.5-0.9,1-0.9h10.5l5.9-7.5c0.2-0.2,0.5-0.4,0.8-0.4h4.7c0.3,0,0.6,0.1,0.8,0.4c0.2,0.2,0.3,0.5,0.2,0.8
		c-1.7,10.5-9.1,45-33.2,50.2C123.7,99.3,123.6,99.3,123.5,99.3z M134.9,57.9c-1.6,18.2-5.9,31-9.6,38.9
		c20.5-6.2,27.5-35.9,29.5-46.9h-3.1l-5.9,7.5c-0.2,0.2-0.5,0.4-0.8,0.4H134.9z M76.5,99.3c-0.1,0-0.1,0-0.2,0
		C52.1,94.1,44.7,59.6,43,49.1c0-0.3,0-0.6,0.2-0.8c0.2-0.2,0.5-0.4,0.8-0.4h4.7c0.3,0,0.6,0.1,0.8,0.4l5.9,7.5H66
		c0.5,0,1,0.4,1,0.9c0.4,4.4,0.9,8.8,1.6,13c0.1,0.5-0.3,1.1-0.8,1.2c-0.5,0.1-1.1-0.3-1.2-0.8c-0.7-3.9-1.2-8.1-1.6-12.2H55
		c-0.3,0-0.6-0.1-0.8-0.4L48.2,50h-3.1c1.9,11,8.9,40.7,29.5,46.9c-2-4.3-3.7-9-5.2-14.1c-0.2-0.5,0.2-1.1,0.7-1.2
		c0.5-0.1,1.1,0.2,1.2,0.7c1.6,5.8,3.6,11.1,6,15.7c0.2,0.3,0.1,0.8-0.1,1.1C77.1,99.2,76.8,99.3,76.5,99.3z M68.9,77.1
		c-0.5,0-0.9-0.3-1-0.8c-0.2-0.8-0.4-1.7-0.5-2.5c-0.1-0.5,0.2-1.1,0.8-1.2c0.5-0.1,1.1,0.2,1.2,0.8c0.2,0.8,0.3,1.7,0.5,2.5
		c0.1,0.5-0.2,1.1-0.8,1.2C69,77.1,68.9,77.1,68.9,77.1z"/>
</g>
</svg>
