<?xml version="1.0" encoding="utf-8"?>
<!-- Generator: Adobe Illustrator 23.0.1, SVG Export Plug-In . SVG Version: 6.00 Build 0)  -->
<svg version="1.1" id="Layer_1" xmlns="http://www.w3.org/2000/svg" xmlns:xlink="http://www.w3.org/1999/xlink" x="0px" y="0px"
	 viewBox="0 0 50 50" style="enable-background:new 0 0 50 50;" xml:space="preserve">
<style type="text/css">
	.st0{fill:#FFFFFF;}
</style>
<path class="st0" d="M33.9,24.9c0,0,0.5-3.3,0.8-6.8c-0.7,0-6.2,0-6.2,0s0-3.9,0-4.5c0-0.7,0.9-1.6,1.8-1.6c0.9,0,3,0,4.7,0
	c0-0.9,0-4,0-6.9c-2.3,0-5.2,0-6.3,0c-8.5,0-8.3,6.6-8.3,7.6s0,5.4,0,5.4h-5.3v6.8h5.3V45h8.1V24.9H33.9z"/>
</svg>
