<?xml version="1.0" encoding="utf-8"?>
<!-- Generator: Adobe Illustrator 23.0.2, SVG Export Plug-In . SVG Version: 6.00 Build 0)  -->
<svg version="1.1" id="Capa_1" xmlns="http://www.w3.org/2000/svg" xmlns:xlink="http://www.w3.org/1999/xlink" x="0px" y="0px"
	 viewBox="0 0 1920 1100" style="enable-background:new 0 0 1920 1100;" xml:space="preserve">
<style type="text/css">
	.st0{opacity:0.8;}
	.st1{fill:url(#SVGID_1_);}
	.st2{fill:#FFFFFF;}
	.st3{fill:#C81E32;}
	.st4{fill:#AF1E32;}
	.st5{fill:#A01E32;}
</style>
<g class="st0">
	<g>
		
			<radialGradient id="SVGID_1_" cx="960.1" cy="604.2135" r="782.258" gradientTransform="matrix(1 0 0 -0.8 0 1033.3208)" gradientUnits="userSpaceOnUse">
			<stop  offset="0" style="stop-color:#35007A"/>
			<stop  offset="0.5" style="stop-color:#35007A;stop-opacity:0.6"/>
			<stop  offset="1" style="stop-color:#35007A;stop-opacity:0"/>
		</radialGradient>
		<path class="st1" d="M34.6,164.7c0-1.7-1.3-3-3-3H0v6.1h31.6C33.3,167.7,34.6,166.4,34.6,164.7z M28.9,148.6c0-1.7-1.3-3-3-3H0
			v6.1h25.8C27.6,151.6,28.9,150.3,28.9,148.6z M1899.5,108.8c-1,1.3-0.6,3.3,0.7,4.3L1920,127v-7.6l-16.2-11.3
			C1902.5,107.1,1900.5,107.5,1899.5,108.8z M1914,93.5c-1,1.3-0.6,3.3,0.7,4.3l5.2,3.7V94l-1.7-1.2C1917,91.8,1915,92.1,1914,93.5z
			 M1919.4,7.9c-0.1,0-0.4-0.1-0.5-0.1l-5.7-1.5l4.4-6.3H1900l-1.7,2.4l-9.2-2.4h-39.2c0.7,0.9,1.7,1.5,2.8,1.8l38.9,10.2
			L1776,179.5L1816.6,0h-6.3l-28.2,124.4l-77.8-18.6l25-105.8h-6.3l-24.6,104.4L1621,85.9L1640.4,0h-6.3l-18.9,84.5l-95.9-23
			L1533.8,0h-6.3l-14.2,60l-34.5-8.3L1489,0h-6.2l-10,50.3l-36.6-8.8l9.2-41.5h-6.3l-8.9,40.2l-36.2-8.7l8.2-31.6h-6.4l-7.9,30.1
			l-32.8-7.9l3.6-22.2h-6.3l-3.5,20.7l-40.8-9.8l2.6-11h-6.2l-2.3,9.5l-24.9-6c-0.6-0.1-1.1-0.1-1.6,0.1l-3.4-3.6h-15.1
			c0.1,0.1,0.1,0.2,0.2,0.2l211,222.8l53,60.7l72.6,81.4c0.4,0.4,0.7,0.7,1.1,1l64,41.7l-0.7,2l-85.7-50.6l-45.8-65.1
			c-0.1-0.2-0.4-0.5-0.5-0.6L1247.7,0h-15.2c0.1,0.1,0.1,0.2,0.2,0.2l8.4,8.9L1193.3,51l-9-31.4L1208.4,0h-9.6l-16.3,13.3L1178.6,0
			h-12.7l3.7,12.8l-41.4-9l1.2-3.8h-17.7l-9.4,30.5L1009,6.1l1-4.9l3.6-1.2h-19.4l-28,9.4c-2.9-1.5-6.2-2.4-10-2.7V0h-6.1v6.7
			c-8,0.6-17.4,3.4-27.2,8.7c-0.2,0.1-0.6,0.4-0.9,0.5V0h-6v0.5L906.9,0H789l35.2,1.8l-3.5,25.6l-57.2-5.7L766,0h-6.2l-6,53.5
			l-46.3-5.7L712.7,0h-19.6l-5,45.6l-50.7-5.9l4-39.7h-6l-4.1,39l-41.4-6.7L593.1,0h-19.7l-9.1,88.8L536,87.5
			c-0.5-0.9-1.5-1.3-2.4-1.3s-2,0.5-2.4,1.2l-25-1.2c-0.1,0-0.2,0-0.4,0l5.4-56.1l47.4,5.4c0.1,0,0.2,0,0.4,0c1.6,0,2.8-1.1,3-2.7
			c0.2-1.7-1-3.2-2.7-3.4l-15.4-1.7L547.7,0h-6.1l-3.7,26.9L511.8,24l2-24h-6.2l-4.9,51.1L319.1,32.2c-0.4-0.2-0.9-0.5-1.3-0.5
			l-2.8-0.2l0.5-12.1l101.4,7.3l-1.3-12.3l13.7,2c0.1,0,0.2,0,0.5,0c0.6,0,1.2-0.2,1.8-0.6L453.3,0h-10.5l-14,10.1L359.8,0h-52.2
			l-1.2,30.7L130.3,14.6L10.6,7.2L11.4,0h-6L4.6,6.8L0,6.7v6.1l3.8,0.1L0,49.2v27h0.4l79,6.8v7.6c0,0.2,0,0.5,0.1,0.9l2.8,5.9H63
			c-0.5,0-0.9,0.1-1.2,0.5l-8.7,7.6c-0.2,0.1-0.4,0.4-0.5,0.6l-3.5,8.3H11c-1,0-1.8,0.4-2.4,1.1L0,126.1v9.8l0.1-0.1l3.9-4.9
			c0.4,0.1,0.7,0.2,1.2,0.2h60.2c1.7,0,3-1.3,3-3s-1.3-3-3-3H8.5l3.8-4.8h56.4c1.2,0,2.3-0.7,2.8-1.8h7.8c0.7,0,1.2-0.5,1.2-1.2V101
			H85c0.6,0,1.2-0.4,1.6-0.9s0.4-1.2,0.1-1.7l-3.9-8.2v-6.8L186,92.3l40.5,3.5l-113.8-4.4V94l5.5,102h169.1l-10.5,22.7l-176.9,2.6
			V214l16.1-7.3c1.3-0.6,2.1-2.2,1.7-3.7l-4.6-15.5c-0.1-0.5-0.5-1-0.9-1.3l-8.7-8c-0.9-0.9-2.2-1.1-3.3-0.6L87.4,183l-17.9-5.4
			c-1.6-0.5-3.3,0.4-3.8,2.1c-0.5,1.6,0.4,3.3,2.1,3.8l18.9,5.7c0.7,0.2,1.5,0.1,2.1-0.1l11.9-5l6.6,6.1l3.7,12.2l-15.5,7.1
			c-1.1,0.5-1.8,1.6-1.8,2.8v9.4l-50,0.7L0,213.7v6.2l11.6,2.3l-3.5,11.5c-0.1,0.4-0.1,0.6-0.1,1l1.7,52.9L0,287.8v5.7l9.8-0.3
			l0.2,8.2l3,96.9l-13,0.5v6.5l48.6-1.9l8.4-0.1v63.3l-57-2.9v6.1l57.1,2.8v40.8L0,510.8v6.1l56,2.7l-6,43l-50-3.1v6l86.7,5.3
			l2.2,40.8c0.1,1.6,1.5,2.9,3,2.9H92c1.7-0.1,2.9-1.5,2.9-3.2l-2.3-43.5c-0.1-1.6-1.3-2.8-2.8-2.9l-33.5-2.1l6-43l79.8,3.8
			l-1.1,2.6c-0.1,0.1-0.1,0.4-0.1,0.5l-25.8,94.8l-7.2,9.5l-6.2-6.7c-0.7-0.7-1.7-1.1-2.8-1L61,630.2c-0.1,0-0.1,0-0.2,0L32,637.9
			l-11.7,2.9l-7.2-5.4c-0.4-0.2-0.7-0.4-1.1-0.5l-12-3.1v6.2l10.1,2.6l2.7,2.1L0,645.9v6.2l32.7-8.2L88,657.5l-6,8l-64.5,37.3
			L3.3,683.7c-0.8-1-2.1-1.4-3.3-1.1v6.8l12.2,16.4L0,713.1v8.5l2.8-3.1l18.6-10.8l1.8,20.7L0,757.5v9.5c0.3-0.2,0.6-0.4,0.9-0.7
			L29,731.2c0.5-0.6,0.7-1.3,0.6-2.2l-2.1-24.7L73,677.9l-13,17.2c-0.7,1-1.2,2-1.6,3L18,836.2L0.6,824.7L0,823.6v7.9l16.3,10.9
			l-9.5,32.4c0,0.2-0.1,0.4-0.1,0.6L0,905.5v88.4l2.9-13.2l21.5,3.7c0.1,0,0.4,0,0.5,0c1.5,0,2.7-1.1,3-2.6c0.2-1.7-0.9-3.3-2.4-3.5
			l-21.1-3.7l17.2-77c0.6,0.9,1.6,1.5,2.7,1.5l48.8-2.3c0.9,0,1.7-0.5,2.3-1.2L97,867.1l29.7-6.2c0.5-0.1,1-0.4,1.3-0.6l25.2-20.8
			l12.7-2.1c2-0.4,4-0.1,5.7,0.7h0.1l15.5,6c0.2,0.1,0.5,0.1,0.7,0.1l22.1,2.9l9.4,13.3l-39.1-7.7h-0.1c-0.1,0-0.1,0-0.2,0
			s-0.4,0-0.5,0h-0.1l-28.6,3.4c-1.2,0.1-2.2,1-2.6,2.2L119,965.7l-24.7-6.1l-8-3.2l15.1-62.2c0.2-1.1,0-2.2-0.9-2.9
			c-0.7-0.7-1.8-1.1-2.9-0.7L62,899.7c-1.1,0.2-2,1.2-2.2,2.3l-8.7,44.1c-0.2,1.5,0.5,2.9,1.8,3.4l26,10.4l-16.8,68.9l-23.5-5.6
			c-0.7-0.1-1.5-0.2-2.2,0L0,1030.6v9.9l24.1-4.9l-13.5,4.6c-0.7,0.2-1.3,0.7-1.7,1.5L0,1058.6v13l13.7-26l31.4-10.6l14.5,3.7
			l-15,61.4h6.2l14.7-59.9l30.7,7.8l-14.3,52h6.4l13.8-50.5l16.3,4.1l-12.6,46.4h6.5l12.2-44.8l32.7,8.3L145,1100h6.4l11.6-35.1
			l7.2,1.8l6.1,6.3l-7.1,26.9h6.3l7.1-26.9c0.2-1,0-2.1-0.7-2.9l-3.2-3.3l10.1-7.4l12.8,29.4l-3.5,11.2h6.5l1.8-5.7l5.4,5.7h8.3
			l-12.5-13.2l-13.9-31.1l26-19.1l61.3,14l-10.2,49.4h20.4l-13.5-3.4l9.1-44.5l139.7,31.6l-7.8,16.3h6.8l7.2-15.1l35.1,7.9
			c0.1,0,0.1,0,0.2,0l41.1,7.1h51.4l27.8-16.8l3.2,16.8h19.6l-6.1-31.8l17.1-17.1l188-70.7l-14.1,46.2L615.1,1100h16.2l162.6-65.9
			l-20.2,65.9h76.2l-17.5-16l-12.7-28l67.6,34.1l-21.1,10h100.9l-44.6-13.5l1.2-4.4l3.4-1.6l52.9-13.4l-6,32.9h108l32.2-60.2
			l42.4-2.3c0.1,0,0.2,0,0.4,0l24.4-3l-3.8,9.1c-0.1,0.5-0.4,0.9-0.4,1.3l-2.9,14.1l-20.8-0.9c-1.7,0-3,1.2-3.2,2.9
			c-0.1,1.7,1.2,3,2.9,3.2l19.9,0.9l-7.2,34.8h15l10.7-51.4l6.1-14.6l34.9,1.3l14.7,64.7h6.3l-14.8-64.6l69.2-14.6l39.9,0.2
			l-12.2,78.9h6.3l12.3-78.8l74.1,0.5l-20.5,70.3c-0.5,1.6,0.5,3.3,2.1,3.8c0.2,0.1,0.6,0.1,0.9,0.1c1.3,0,2.6-0.9,2.9-2.2l21-71.9
			l48.3,0.4l26.2,0.9l-6.2,53.5c-0.1,1.2,0.4,2.3,1.5,2.9l8.4,5.2l-7.1,11.9c-0.2,0.4-0.4,0.7-0.4,1.2l-0.3,2.2h6.1l0.1-0.8
			l8.3-13.9c0.9-1.5,0.4-3.3-1-4.1l-9.3-5.9l6-52l53.3,1.8c0.2,0.1,0.5,0.2,0.9,0.2c0.2,0,0.4,0,0.6,0c0.4,0,0.9-0.1,1.2-0.2h1.7
			l-9.7,74.9h6.2l9.7-74.6c0-0.1,0-0.1,0-0.2l33.6,1.1l-9.1,36.3c-0.4,1.6,0.5,3,2,3.7l39.2,13.8l-9.3,19.9h6.8l8.3-17.9l3.2,1.1
			c0,0,0,0,0.1,0c0,0,0,0,0.1,0c0,0,0,0,0.1,0s0.1,0,0.2,0.1l33.9,6.1c1.1,0.2,2.2-0.2,2.9-1.1l6.6-8.2h3.8l-2.2,19.8h4.6l2.3-20.2
			l7.4-2.2l15.6,5.1l-6.7,17.3h8l6.1-15.8l52.7,15l-0.3,0.8h40.5l-1.3-1.3c-0.5-0.5-1.2-0.9-2-1l-29.9-2.9l17.4-34.5l19.5,9.5
			c0.1,0.1,0.4,0.1,0.6,0.2l4.8,1.2l-7.2,28.7h7.6l7-27.5l42.3,11.3l-8.9,16.2h7l8-14.6l25.3,6.7v-5.3l-19.8-5.3l10-44.9l9.9,0.3
			v-8.6l-66.8-2.2l20-80.1c0.7-0.4,1.5-1.1,1.6-2c0.2-1,0-1.8-0.5-2.6l11.7-46.8l34,8.5v-6.4l-32.2-8.1l11.9-48l20.2,5.5V840
			l-18.6-5l11.5-46l7.2,2v-24l-1.7-0.1l1.7-6.7v-25.1l-7.9,31.6l-61.3-2l31.4-76.5l37.8,43v-12.8l-11.9-13.6l11.9-2.7V696l-16.4,3.7
			l-37.1-42.2l53.5-11.1v-6.2l-56.4,11.7c-0.2,0-0.5,0.1-0.7,0.2l-27.7-45.5l41.1-4.8c0.1,0,0.2,0,0.2,0l34.1-7.2l9.4,45.4v-29.7
			l-3.5-17l3.5-0.7v-6.2l-4.6,1l-10.6-51.8l15.2-2.6v-6.3l-16.4,2.8l-7.9-38.9l24.4,1.7v-11l-158.6-11.2l-7.3-4.3l121.4,8.5
			c0.4,0,0.9,0,1.2,0l12.1-1.8l31.2,1.9v-11.1l-31.1-1.9c-0.4,0-0.7,0-1.1,0l-12.1,1.8l-8-0.6c0.2-0.1,0.4-0.4,0.5-0.5l21.5-26.3
			l30.3,9.3v-6.4l-27.5-8.4l4.3-12.9c0.5-1.6-0.4-3.3-2-3.8s-3.3,0.4-3.8,2l-5,15.4l-22.4,27.5c-1,1.2-0.9,3,0.2,4.1l-106.3-7.4
			c0-1.2-0.4-2.4-1-3.7l-54.6-92c-0.6-1.1-1.6-2-2.6-2.6l20-41.9c0.1,0,0.1,0,0.1,0.1l80.4,20.4l-16.2,65.9
			c-0.4,1.6,0.6,3.3,2.2,3.7c0.2,0,0.5,0.1,0.7,0.1c1.3,0,2.6-1,2.9-2.3l16.2-65.8l44.2,12.7c0.2,0.1,0.6,0.1,0.9,0.1s0.6,0,0.9-0.1
			l29.4-8.8l38.9,8.8v-6.4l-32.8-7.4l32.8-29.8V298l-40.6,37l-28.6,8.5l-46.4-13.3l-82.4-20.8l39.5-82.8l14.6-21.3l93,25.6l50.9,14
			V239l-45.1-12.5l12.4-19.3l25.4,6.9c0.2,0.1,0.5,0.1,0.9,0.1c1.3,0,2.6-0.9,2.9-2.2c0.5-1.6-0.5-3.3-2.1-3.8l-23.4-6.5l29-43.6
			v-11.4l-35.4,53.4c-1.5-0.2-2.9,0.7-3.4,2.2c-0.2,0.9-0.1,1.7,0.4,2.4l-13,19.7l-56.6-15.6v-4.3l16.1-4.3l7.3,8.8
			c1.1,1.3,3,1.5,4.3,0.4s1.5-3,0.4-4.3l-5.2-6.3c0.1-0.1,0.2-0.2,0.2-0.2l32.7-46.8c1-1.3,0.6-3.3-0.7-4.3c-1.3-1-3.3-0.6-4.3,0.7
			l-32.1,45.8c-0.7-0.4-1.6-0.6-2.3-0.4l-20.2,5.5c-1.3,0.4-2.2,1.6-2.2,2.9v4.9l-26.3-7.2l127-184.2l9.6,2.4l3.9,1.4V8.1
			L1919.4,7.9z M78.4,115.9L78.4,115.9h-6.7c-0.5-1.1-1.6-1.8-2.8-1.8H53.3l2.8-6.5l7.8-6.8h14.5C78.4,100.8,78.4,115.9,78.4,115.9z
			 M1703.2,111.9l35.1,8.4l-12.9,53.1l-33.8-12.4L1703.2,111.9z M1631.1,190.3l6.3,24.3c0.1,0.2,0.1,0.5,0.2,0.7l9.1,16.5
			l-26.6,24.4l-13.3-19l-9.3-47.5l10-44l1.8-8.2l74.6,27.4l-13,24.6l-25.1-8.5c-1.6-0.5-3.3,0.4-3.9,2c-0.5,1.6,0.4,3.3,2,3.9
			l24.1,8.3l-16.9,32.1l-8-14.4l-6.2-23.9c-0.4-1.6-2.1-2.6-3.7-2.2C1631.8,187,1630.8,188.7,1631.1,190.3z M1591.6,190l5.2,26.1
			l-21.3-10.4l-19.7-13.5l43.9-38.9l-8,35.5C1591.5,189.2,1591.5,189.6,1591.6,190z M1570.8,209.9l-26.2,21.9l-17.9-13.8l24.4-21.7
			L1570.8,209.9z M1655.3,232.4c0.2-0.2,0.5-0.5,0.6-0.9l12.8-24.4l18.8,9.3c0.5,0.2,0.9,0.4,1.3,0.4c1.1,0,2.2-0.6,2.7-1.7
			c0.7-1.5,0.1-3.3-1.3-4l-18.5-9.1l3.9-7.3l14.6-27.7l33.6,12.3l-7.9,21.2l-43.1,57.7l-17.8-25.5L1655.3,232.4z M1619.8,91.8
			l77.4,18.6l-11.3,48.5l-75-27.5L1619.8,91.8z M1517.8,67.4l96,23l-8.8,38.8l-93.7-34.5L1517.8,67.4z M1477.6,57.8L1512,66
			l-6.3,26.6l-32.5-11.9L1477.6,57.8z M1435,47.4l36.7,8.9l-4.4,22.1L1431.1,65L1435,47.4z M1467.4,84.9c0.4,0.4,1,0.7,1.6,0.9
			c0.2,0,0.4,0,0.6,0c0.1,0,0.1,0,0.2,0l34.5,12.7l-11.8,50.1l-68.9-47.3l5.2-26.6l0.9-3.7L1467.4,84.9z M1392.6,37.4l36.4,8.7
			l-3.9,17.8l-38.9-2.3L1392.6,37.4z M1353.4,35l1.1-6.8l32.3,7.7l-6.6,25.2l-30.8-1.8L1353.4,35z M1283.4,11.1l65.1,15.6l-1.1,6.3
			l-21.8,22.7L1283.4,11.1z M1329.8,60.1l15.8-16.5l-2.8,16.8l-7.4,5.7L1329.8,60.1z M1339.7,70.6l6.9-5.4l31.9,2l-5.2,20l-7.8,10.6
			L1339.7,70.6z M1369.7,102.2l8.8-11.9c0.2-0.4,0.4-0.6,0.5-1.1l5.7-21.8l39.1,2.3l-0.9,3.7l-5.7,28.6l-1,5.1l-21.3,21.8
			L1369.7,102.2z M1496.3,237.5l-19.3-22.1l-77.9-82.2l22.1-22.7c0.4-0.4,0.7-1,0.9-1.6l0.2-1.3l66.4,45.7l-9.9,10.1
			c-1.2,1.2-1.1,3.2,0,4.3c0.6,0.6,1.3,0.9,2.1,0.9c0.7,0,1.6-0.4,2.2-1l10.6-10.8l52.2,35.8l-24.1,21.5l-10.7-8.3l-36.1-32.2
			c-1.2-1.1-3.2-1-4.3,0.2c-1.1,1.2-1,3.2,0.2,4.3l36.1,32.3l0.1,0.1l9.9,7.6l-19.7,17.6C1496.7,236.2,1496.5,236.8,1496.3,237.5z
			 M1499.5,241.2c0.7,0,1.5-0.2,2-0.7l20.6-18.3l17.8,13.7l-26.1,21.8L1499.5,241.2z M1560.7,310.6l-30.6-34.4l-12.3-13.9l26.6-22.3
			l12.4,13.4c0.6,0.6,1.5,1,2.2,1s1.5-0.2,2.1-0.9c1.2-1.1,1.3-3,0.1-4.3l-12.3-13.2l26.9-22.5c0.2-0.1,0.4-0.4,0.5-0.6l21.9,10.6
			l3,15.1c0.1,0.4,0.2,0.9,0.5,1.1l14.1,20.2l-55,50.3C1560.8,310.4,1560.8,310.6,1560.7,310.6z M1602.3,357.4l-37.4-42.1
			c0.1-0.1,0.2-0.1,0.4-0.2l54.4-49.9l40.2,57.7l-27.2,17.7c-1.5,1-1.8,2.8-0.9,4.3c0.6,0.9,1.6,1.3,2.6,1.3c0.6,0,1.1-0.1,1.7-0.5
			l27.3-17.8l20,28.6l-18.8,39.4c-0.1,0.1-0.1,0.2-0.2,0.5l-0.5,1.1L1602.3,357.4z M1672.2,416l26.5,17.3l-27.1-16L1672.2,416z
			 M1518.8,300.8l46.2,65.6c0.5,0.6,1,1.2,1.7,1.6l88.2,52l-35.3,89l-118.4-41.6l10.8-50.7c0.4-1.6-0.7-3.3-2.3-3.7l-38.9-8.7
			l-25.5-5.7l30-143.5L1518.8,300.8z M1277.2,879.2l38.5-6.7l11.1,4l-2.7,4.5l-32.2,29.4L1277.2,879.2z M1287.2,914.6l-68.5,62.5
			l-14.7-85.3l66.9-11.7L1287.2,914.6z M1317.8,862.8c-0.9-0.2-1.7-0.4-2.6-0.2l-113,19.6l-1.3-7.9l72.8-8.2l62.7-5.7l-4.5,7.6
			L1317.8,862.8z M1273,860.2l-73.3,8.2l-14.7-85.7l63.5-12.6c1.7-0.4,2.7-2,2.4-3.5c-0.4-1.7-2-2.7-3.5-2.4l-63.4,12.6l-12.3-71.3
			l10.7,1.1c0.4,0,0.7,0,1.1-0.1l29.1-7.7l7.7,1.7l6,31.2l-15.5,3.4c-1.6,0.4-2.7,2-2.3,3.7c0.4,1.5,1.6,2.4,2.9,2.4
			c0.2,0,0.5,0,0.6-0.1l75.1-16.5c1.3-0.4,2.4-1.6,2.4-2.9v-9c0-1.5-1-2.7-2.3-2.9l-74-16.9c-0.5-0.1-1-0.1-1.5,0l-29.3,7.7
			l-10.8-1.1l11.8-53.8l136.5,30.1l29.6,160c0.1,0.5,0.2,1,0.5,1.5l-10,16.8L1273,860.2z M942,972.7c-0.9-0.5-1.8-0.5-2.7-0.1
			l-71.2,29.7l-16-40.1l45.7-18.6l81.3-12.6l0.4,23.5l-15,31L942,972.7z M961.7,991.1l-0.7,1.6l-26.7,32.9c-0.2,0.4-0.5,0.7-0.6,1.1
			l-1.2,4.3l-18.2-41.3l25.8-10.7L961.7,991.1z M224.5,913.2l81.7,19.1l-10.1,45.6l-82-19.3L224.5,913.2z M208.1,957.2l-49.5-11.6
			l12.2-45.1l47.8,11.2L208.1,957.2z M307.5,926.3l-81.7-19.1l6.2-27.1c0.1-0.2,0.1-0.5,0.1-0.7v-10l84.2,16.5L307.5,926.3z
			 M322.3,887.5l27.1,9.1l35.5,15c0.1,0,0.2,0.1,0.4,0.1l22.4,6.7l-6.8,29.7l-87.4-20.5L322.3,887.5z M312.2,933.7l87.4,20.5
			L389,999.7l-86.9-20.5L312.2,933.7z M418.3,899.4l51.8,6.2l-12.8,111.2l-65-4.8L418.3,899.4z M303.6,734c-1.6-2.7-4-4.5-6.9-5.4
			l-39.2-10.4c-2.2-0.6-3.4-2.8-2.9-5l12.9-52.5l111.7,27.7l-38.4,107L322,781.6c-0.2-0.1-0.4-0.2-0.6-0.4l-17.6-7.4
			c-0.1-0.1-0.4-0.1-0.5-0.1l-6.6-1.5l8.2-29.6C305.6,739.7,305.2,736.7,303.6,734z M280.6,615c-0.2-1.7-1.8-2.8-3.5-2.4l-16,2.9
			c-0.4,0.1-0.9,0.2-1.2,0.5l-7.9,5.5l-2.8-22.3l56.1-21.3c0.2-0.1,0.5-0.2,0.7-0.4l27.9-20.2l3,8l-4.1,31
			c-0.9,4.6,1.6,9.3,6.1,10.8c1,0.4,1.5,1.5,1.1,2.4l-14,40.7c-0.1,0.4-0.1,0.6-0.1,1V669l-70-17.3l-2.9-23.4l10-6.8l15.4-2.8
			C279.7,618.3,280.8,616.7,280.6,615z M342.6,563.6l-3.9-10.4l43.6-31.7l37.2-19.6l3.4,7.2c0.4,0.7,1,1.3,1.8,1.6l16.8,5.7
			l-12.7,55l-14.7,19c-0.4,0.5-0.6,1-0.6,1.6l-5.1,47.7L387,684.2l-55.3-13.8v-18.8l13.8-40.2c1.5-4.1-0.7-8.5-4.8-10.1
			c-1.7-0.6-2.6-2.3-2.2-4.1c0-0.1,0-0.1,0-0.2l4.3-31.8C342.9,564.6,342.8,564.1,342.6,563.6z M662.4,465.2l29.7,8.3l-8.8,82.3
			l-29.9-8L662.4,465.2z M660.3,303.5h-37.9l-1.8-21l41.6,3.8L660.3,303.5z M699.4,287.3l-17.3-4.4l5-46l42.8,4.5l-7.8,54.7l-6-1.7
			c-1.6-0.5-3.3,0.5-3.8,2.1s0.5,3.3,2.1,3.8l6.8,2l-2.7,19c0,0.2,0,0.5,0,0.7l-43.4,24.7l6.3-57.9l16.5,4.3
			c0.2,0.1,0.5,0.1,0.7,0.1c1.3,0,2.6-1,2.9-2.3C702,289.4,701,287.6,699.4,287.3z M740.2,212.4l7.4,0.2l51.1,50
			c0.6,0.6,1.3,1.1,2.2,1.3l16.7,6.2l-18.2,0.5l-65.1-17.2L740.2,212.4z M718.9,199.2l21.6-15.6l-1.6,16.5L718.9,199.2z M977,119.4
			l55.7,102.6l-6.7-3.2L948.6,163l-5.5-4l12.3-73.1l26.5,9.5l-5.1,21.8C976.6,118,976.6,118.7,977,119.4z M982.9,117.5l4.6-20
			l84.7,30l-30.4,98.7L982.9,117.5z M1247.6,111.1L1231,92.9l22.7-19.1l15.8,16.1L1247.6,111.1z M1273.8,94.2l11.3,11.5l-22.3,22.3
			l-11.2-12.3L1273.8,94.2z M1258.5,132.2l-13.3,13.2c-0.2,0.2-0.4,0.4-0.5,0.6l-16,28.2l-18.4-64l16-13.4L1258.5,132.2z
			 M1413.9,326.5c0.2,0,0.4,0,0.6,0c1.5,0,2.7-1,2.9-2.4l4.3-21.1l17.9,4.1l-6.8,29.9c-0.4,1.6,0.6,3.3,2.3,3.7
			c0.2,0,0.5,0.1,0.7,0.1c1.3,0,2.7-1,2.9-2.3l6.8-29.9l11.8,2.7l-17.9,85.9L1332,373.4l18.4-86.7l65.2,15l-4.3,21.2
			C1411.1,324.7,1412.2,326.3,1413.9,326.5z M1426.5,555.2l19.5-56.1l23.2,6.8l-20,57L1426.5,555.2z M1478.8,579.7l-19.6,53.9
			l-21.1-15.5l-12.9-20.1c-0.2-0.4-0.5-0.6-0.9-0.9l-11.2-7.8l11.2-28.3L1478.8,579.7z M1448.1,493.3l14.1-40.8
			c0.1-0.4,0.1-0.6,0.1-1v-18.3l9.8-22.4l33.5,7.6l-10.6,49.2l-16.3,12.7c-0.5,0.4-0.9,0.9-1,1.3l-6.5,18.5L1448.1,493.3z
			 M1456.5,431.5c-0.1,0.4-0.2,0.9-0.2,1.2v18.4l-35.6,102l-45.8-17.8c-0.1,0-0.1,0-0.2-0.1l-14.9-4.6h-0.1l-56.4-13.7l-0.6-3.5
			l14.6-68.8l13.8-65.2l107.3,23.9l-5.5,26.1c-0.2,1.7,0.7,3.3,2.4,3.7c0.2,0,0.4,0.1,0.6,0.1c1.5,0,2.7-1,2.9-2.4l5.5-26l21.8,4.9
			L1456.5,431.5z M1286.6,612.6l-31.4-4c-1.6-0.2-3.2,1-3.4,2.6l-6.2,41.7l-60.7-13.4l6.9-31.3l41.4,8.8c0.2,0,0.5,0.1,0.6,0.1
			c1.5,0,2.7-1,2.9-2.4c0.4-1.7-0.7-3.3-2.3-3.7l-41.4-8.8l3.2-14.3l39.9,8.9c0.2,0,0.5,0.1,0.6,0.1c1.3,0,2.7-1,2.9-2.4
			c0.4-1.6-0.6-3.3-2.3-3.7l-39.9-8.9l5.4-24.4l41.9,7.6c0.1,0,0.4,0,0.5,0c1.5,0,2.7-1,3-2.6c0.2-1.7-0.9-3.3-2.4-3.5l-41.7-7.6
			l10.6-48.3l40.3,9l-7.7,32.5c-0.4,1.6,0.6,3.3,2.3,3.7c0.2,0,0.5,0.1,0.7,0.1c1.3,0,2.7-1,2.9-2.3l7.7-32.7l17.8,4l-13.7,62.8
			c-0.4,1.6,0.7,3.3,2.3,3.7c0.2,0,0.5,0.1,0.6,0.1c1.5,0,2.7-1,2.9-2.4l13.7-62.8l6.6,1.5l16.5,89L1286.6,612.6z M1309,615.4
			l9.9,53.5l-40-8.8l10.2-41.8L1309,615.4z M1144.6,854.6l-3.6-25c-0.3-2.2-1.5-4.2-3.3-5.6c-1.8-1.4-4.1-1.9-6.3-1.6
			c-4.6,0.7-7.9,5-7.2,9.6l3.6,25c0.3,2.2,1.5,4.2,3.3,5.6c1,0.8,2.2,1.3,3.5,1.5l1.7,11.6l-32.7,3.9h-0.1l-54.9,9.9l-30.6-3.8
			l11.6-53.4l49.6,10.2c0.2,0,0.4,0.1,0.6,0.1c0.1,0,0.4,0,0.5,0l24.1-4c1.7-0.2,2.8-1.8,2.6-3.5c-0.2-1.7-1.8-2.8-3.5-2.6
			l-23.5,3.9l-49-10.1l6.6-30l35.3,9.5c0.2,0.1,0.5,0.1,0.7,0.1s0.5,0,0.9-0.1l16.6-4.6c1.6-0.5,2.6-2.1,2.1-3.8
			c-0.5-1.6-2.1-2.6-3.8-2.1l-15.8,4.4l-34.9-9.4l8.5-39.1l31.9,7.6c0.2,0,0.5,0.1,0.7,0.1c1.3,0,2.7-1,2.9-2.3
			c0.4-1.6-0.6-3.3-2.3-3.7l-32.1-7.6l4.6-21.3l36.4-6.2l11.3,53.6c0.2,1.5,1.6,2.4,2.9,2.4c0.2,0,0.4,0,0.6-0.1
			c1.7-0.4,2.7-2,2.3-3.7l-11.2-53.4l22.7-3.8l7.3,50.8c0.2,1.5,1.5,2.6,3,2.6c0.1,0,0.2,0,0.5,0c1.7-0.2,2.8-1.8,2.6-3.4l-7.3-51
			l41-6.9l28.3,163.7l-51,6.3l-1.8-12.1C1143.5,861.3,1145.1,858.1,1144.6,854.6z M1136.6,858.3c-1.4,0.2-2.6-0.7-2.8-2.1l-3.6-25
			c-0.2-1.4,0.7-2.6,2.1-2.8c0.1,0,0.3,0,0.4,0c0.5,0,1,0.2,1.4,0.5c0.5,0.4,0.9,1,1,1.6l3.6,25
			C1138.9,856.9,1137.9,858.1,1136.6,858.3z M862.3,932.1c-0.6-2.2-2-3.9-4-4.9c-3.7-1.8-9-1.2-13.7-0.1l8-26h56.2
			c0.2,0,0.5,0,0.7-0.1l40.3-10.2l7.3,12.7c0.1,0.2,0.4,0.6,0.6,0.7l19.7,17.2L895.8,934c-0.4,0-0.7,0.1-1.1,0.2l-32.2,13.2
			C863.5,943.4,863.8,938.2,862.3,932.1z M855.2,950.4l-20.5,8.4l7.7-24.9c5-1.6,10.6-2.6,13.2-1.3c0.6,0.2,0.7,0.6,0.9,1
			C858.6,941.6,856.4,947.8,855.2,950.4z M608.1,627.6l-34-3.7l21.8-85.7l39.2-2.9l-10,92.3L608.1,627.6L608.1,627.6z M624.7,633.6
			L612.5,747l-51.3-5.4l9.1-102.5l2.3-9.3l35.1,3.8c0.1,0,0.2,0,0.4,0H624.7z M707.5,386.1l31.8,8.7l-8.4,83.3l-32.2-9L707.5,386.1z
			 M702.3,378.5l-29.6-7.9l1.7-16.5l32.4-18.5L702.3,378.5z M713.1,332l37.3-21.3l156.9,45.8l-11.1,24.7l-23.9,42.9l-164.1-44.2
			l5-46.9C713.2,332.7,713.2,332.4,713.1,332z M725.1,318.1l2-14.1l15.1,4.4L725.1,318.1z M757.2,306.3l42.9-29.5l32.8-0.9
			l45.6,16.9c0.7,0.2,1.5,0.4,2.1,0.4c0.1,0,0.2,0,0.2,0l29.3-1.5l-1.5,58.8L757.2,306.3z M1057.2,249.5l53.8,14.3l-0.7,3.3
			c-0.1,1.7,1,3.3,2.6,3.7c0.2,0,0.4,0.1,0.6,0.1c1.5,0,2.7-1,2.9-2.4l0.6-3l28.6,7.6l-12.3,56.3l-41.8-9.3l3.7-22.2
			c0.2-1.7-0.9-3.2-2.6-3.5c-1.7-0.2-3.2,0.9-3.5,2.6l-3.5,21.8l-36.9-8.2l10.8-39.9c0.1-0.4,0.1-0.7,0.1-1.2L1057.2,249.5z
			 M1121,215.2l-8.8,42.5l-54.2-14.4L1121,215.2z M1118,203.3l15.5-57l21.5,6.5l-15.8,50.5l-17.2-0.9c-1,0-2,0.1-2.8,0.5L1118,203.3
			z M1196.2,315.2c0.1,0,0.2,0,0.4,0c1.6,0,2.8-1.2,3-2.7l2.6-24.6l9.9,2.6l-3.7,21.8c-0.2,1.7,0.9,3.2,2.6,3.5c0.1,0,0.4,0,0.5,0
			c1.5,0,2.8-1.1,3-2.6l3.5-21.2l25.8,6.8l3,15.1l1.7,8c-0.1,0.2-0.4,0.6-0.4,1l-6.7,30.4l-33.6-7.6l3.2-21.7
			c0.2-1.7-0.9-3.2-2.6-3.4c-1.7-0.2-3.2,0.9-3.4,2.6l-3.2,21.3l-17.1-3.8l4.4-18.4c0.4-1.6-0.6-3.3-2.2-3.7
			c-1.6-0.4-3.3,0.6-3.7,2.2l-4.4,18.5l-39.5-8.8l12.2-56.1l44.7,11.8l-2.7,25.6C1193.3,313.5,1194.5,315.1,1196.2,315.2z
			 M1296.7,308.4c0.2,0,0.5,0.1,0.7,0.1c1.3,0,2.7-1,2.9-2.3l6.8-29l19.4,4.4l-8.8,30.5c-0.5,1.6,0.5,3.3,2.1,3.8
			c0.2,0.1,0.6,0.1,0.9,0.1c1.3,0,2.6-0.9,2.9-2.2l8.9-30.8l11.9,2.8l-18.4,86.7l-56.8-12.8l-10.6-47.9l-2.3-11.7
			c0.5-0.2,0.9-0.7,1.1-1.3l4.3-9.1c0.1-0.2,0.1-0.5,0.2-0.7l4.3-21.1l35,8l-6.8,29C1294,306.3,1295,308,1296.7,308.4z
			 M1288.6,447.3l21.7-0.4l-10.7,50.8l-0.7-3.8c0-0.1,0-0.1,0-0.2L1288.6,447.3z M1287.3,441.3l-16.6-75.2l54.2,12.1l-13.3,62.8
			L1287.3,441.3z M1257.7,363.1l32.5,150.8l-74.1-16.6l30.1-136.8L1257.7,363.1z M1159.3,371.7l-27.7-5.9l2.2-10.2
			c0.4-0.4,0.7-0.9,0.9-1.5c0.1-0.6,0.1-1.3-0.1-1.8l3.4-15.8l102.3,22.8l-30.1,136.8l-101.9-22.9l22.1-101.3l27.8,5.9
			c0.2,0,0.4,0.1,0.6,0.1c1.5,0,2.7-1,2.9-2.4C1162,373.7,1160.9,372.1,1159.3,371.7z M1247.4,354.7l4.1-18.9l4.6,20.7L1247.4,354.7
			z M1132.1,335.2l-3.2,14.4l-48-11.9c-1.6-0.4-3.3,0.6-3.7,2.2c-0.4,1.6,0.6,3.3,2.2,3.7l48.3,11.9l-16.6,75.8l-17.6-4.4
			c-1.6-0.4-3.3,0.6-3.7,2.2c-0.4,1.6,0.6,3.3,2.2,3.7l17.8,4.4l-7.4,34.4l-32.8-7.3l9-45c0.1-1.3-1-2.9-2.6-3.3
			c-1.7-0.4-3.3,0.7-3.5,2.4l-9,44.7l-51.6-11.6c-0.1,0-0.1,0-0.2,0l-1.5-0.2l36.8-134.9L1132.1,335.2z M1010.7,457.2l9.3,2.1
			l-11.7,48.6c-0.4,1.6,0.6,3.3,2.2,3.7c0.2,0,0.5,0.1,0.7,0.1c1.3,0,2.7-1,2.9-2.3l11.7-48.8l37.9,8.5c0.4,0.4,0.9,0.6,1.3,0.6
			c0.2,0,0.4,0,0.6,0s0.5,0,0.7-0.1l34.4,7.7L1071,613.9l-99.5-21.6l10.8-40l25.4,4.5c0.1,0,0.4,0,0.5,0c1.5,0,2.7-1,3-2.6
			c0.2-1.7-0.9-3.3-2.4-3.5l-24.7-4.5l24.4-89.3L1010.7,457.2z M1023.4,693.3l29.5,4.9l-4.4,19.9l-64.8-15.2l5.6-22.8
			c0.4-1.6-0.6-3.3-2.2-3.7c-1.6-0.4-3.3,0.6-3.7,2.2l-5.6,22.9l-18.5-4.3l7.9-29.1c0.5-1.6-0.5-3.3-2.2-3.8
			c-1.6-0.5-3.3,0.5-3.8,2.2l-8,29.3l-9.3-2.2l26.1-95.3l18.9,4.1l-5.6,20.5c-0.5,1.6,0.5,3.3,2.2,3.8c0.2,0.1,0.5,0.1,0.9,0.1
			c1.3,0,2.6-0.9,2.9-2.2l5.7-20.7l25.6,5.6l-12.2,55c-0.4,1.6,0.7,3.3,2.3,3.7c0.2,0,0.5,0.1,0.6,0.1c1.3,0,2.7-1,2.9-2.4l12.2-55
			l43.4,9.6l-15.6,71.7l-29.9-4.9c-1.7-0.2-3.2,0.9-3.5,2.6C1020.6,691.5,1021.7,692.9,1023.4,693.3z M989.5,752.8
			c-1.5-0.6-3.1-1-4.8-1c-6.7,0-12.2,5.5-12.2,12.2c0,3.2,1.3,6.2,3.3,8.4l-9.5,13.7l-11.5,3.8l-35.2-7.2l22.7-83.1l36.9,8.7
			l22.4,5.2l-8.2,33.5L989.5,752.8z M990.9,764c0,3.4-2.8,6.2-6.2,6.2s-6.2-2.8-6.2-6.2s2.8-6.2,6.2-6.2S990.9,760.6,990.9,764z
			 M678.8,657.1l35.3,10.5l18.4,5.5l-41.1,71.8l-21.5-5.2L678.8,657.1z M664.1,738l-30.4-7.6l9.1-84.1l30,8.9L664.1,738z
			 M919.4,624.8l-32.2-9.5l25.4-82.3l32.5,8.3L919.4,624.8z M934.1,635.6l17.8,5.9L938,692.2l-19.9-4.6L934.1,635.6z M792.3,568.5
			c-2.4-1.1-5.2-1.6-8-1.6c-2.6,0-5.1,0.5-7.4,1.3L739,486.6l72.2,20.2l13.3,3.7L792.3,568.5z M794.4,577.1
			c2.8,2.7,4.6,6.5,4.6,10.7c0,8.2-6.6,14.7-14.7,14.7c-1.5,0-2.8-0.2-4.1-0.6L794.4,577.1z M784.1,573.1c1.7,0,3.4,0.4,5,0.9
			l-14.5,25.2c-3.2-2.7-5.2-6.7-5.2-11.3C769.4,579.7,776,573.1,784.1,573.1z M777.1,607.5c2.2,0.9,4.6,1.3,7.2,1.3
			c0.7,0,1.5,0,2.1-0.1c0,0.1,0.1,0.4,0.1,0.5l27.8,78.4l-72.5-18.3L777.1,607.5z M792.2,607.2c4.8-2,8.7-5.7,10.8-10.4l37.1,11
			l-21.9,72.5L792.2,607.2z M846,609.4l33.5,9.9l-24.3,78.6l-33.5-8.4L846,609.4z M885.4,621.1l32.3,9.5L894,707.8l-32.8-8.3
			L885.4,621.1z M881.4,613.5l-33.5-9.9l24.5-80.8l34.4,8.8L881.4,613.5z M841.9,601.9l-37.1-11c0.1-1,0.2-2.1,0.2-3
			c0-6.5-2.9-12.3-7.7-16.1l33-59.5l35.8,9L841.9,601.9z M827.5,505.1l-12.1-3.4l7.8-84.2l46,12.4L827.5,505.1z M809.5,500
			l-31.9-8.9l9-83.5l30.7,8.3L809.5,500z M771.6,489.4l-34.7-9.8l8.4-83.3l35.3,9.5L771.6,489.4z M771.5,571.3
			c-2.4,1.8-4.4,4.1-5.7,6.8L728,567.9l7.6-74.6L771.5,571.3z M763.7,584c-0.2,1.3-0.4,2.6-0.4,3.9c0,6.8,3.3,12.9,8.4,16.7
			l-36.1,63.1l-17.3-5.1l9-88.5L763.7,584z M738.5,674.8l34.9,8.8l-21.9,78l-49.7-14.1l-4.1-1L738.5,674.8z M779.4,685l34.7,8.9
			l-23.9,78.7l-32.8-9.4L779.4,685z M820,695.4l33.4,8.4l-24.6,79.8l-32.7-9.3L820,695.4z M859.3,705.2l32.8,8.3l-24.9,80.9
			l-32.7-9.3L859.3,705.2z M887.6,786.8l25.5,0.9v15.6c0,0.4,0.1,0.9,0.2,1.2l33.9,80.6l-39,9.9h-53.9L887.6,786.8z M889.4,780.8
			l26.8-87.4l20.2,4.8l-22.8,83.4L889.4,780.8z M1075.8,621.6l38.4,8.5l-16.8,80.6l-42.5,7.2L1075.8,621.6z M953.6,635.6l-17.7-5.9
			l53.8-175.2l12.8,1.7L953.6,635.6z M947,535.4l-32.5-8.3l24.3-78.6l32.3,8.7L947,535.4z M908.5,525.7l-34.5-8.8l24-79.4l34.9,9.4
			L908.5,525.7z M868.2,515.5l-34.6-8.8l41.7-75.2l16.9,4.5L868.2,515.5z M730.3,484.3l-8.3,82.2l-32.5-8.8l8.8-82.3L730.3,484.3z
			 M721.2,572.4l-8.9,88.2l-32.9-9.8l9.3-87.3L721.2,572.4z M673.6,649.2l-30.1-8.9l9.4-86.3l30,8L673.6,649.2z M635.9,529.1
			l-38.4,2.9l0.2-1.1c0.1-0.2,0.1-0.6,0.1-0.9l-4.9-92.8l2.3-0.4c0.2,0,0.5-0.1,0.7-0.2l18.2-8.3l32.1,4.9L635.9,529.1z
			 M629.1,773.6l6.7,5l-7.3,1.2L629.1,773.6z M629.8,766.6l3.2-29.9l53.9,13.3l-20.2,14.4l-22.4,11.5l-4.3-1.7L629.8,766.6z
			 M669.7,769.7c0.1-0.1,0.2-0.1,0.4-0.2l23.5-16.6c0.4-0.2,0.6-0.6,0.9-1l5.7,1.5l165.3,47l-12.8,41.8l-133-35.6l-68-27.7
			L669.7,769.7z M945.8,865.8l25.1,6.8c0.2,0.1,0.5,0.1,0.9,0.1c1.3,0,2.6-0.9,2.9-2.2c0.5-1.6-0.5-3.3-2.2-3.8l-29.7-8.2
			l-23.6-56.1v-13.9l35.3,7.2c0.2,0,0.4,0.1,0.6,0.1c0.4,0,0.6,0,1-0.1l13.2-4.3c0.6-0.2,1.2-0.6,1.6-1.2l10.2-14.7
			c1.2,0.4,2.5,0.6,3.8,0.6c6.7,0,12.2-5.5,12.2-12.2c0-2.9-1-5.6-2.7-7.6l4.6-6.6c0.2-0.4,0.4-0.6,0.5-1l8.3-34.1l39.7,9.3
			l-35.1,161.4l-43.9-5.4c-0.4,0-0.7,0-1.1,0.1l-14,3.5L945.8,865.8z M1104,709.5l16.3-78.1l11.5,2.6l-5.9,27.3
			c-0.4,1.7,0.7,3.3,2.3,3.7c0.2,0,0.5,0.1,0.6,0.1c1.5,0,2.7-1,2.9-2.4l5.9-27.2l40,8.8l-12.1,55L1104,709.5z M1077.2,615.7
			l29.7-136.5l101.9,22.9l-30,136.2L1077.2,615.7z M1345.9,279.5l-28.5-6.6l13.4-65.9l16.9-1.6l13.2,3.2L1345.9,279.5z
			 M1311.4,271.7l-43.9-10.1l13.4-66.9l43.8,11.2L1311.4,271.7z M1276.2,187l-28.3-7.1l18.6-26.7l20.4-19.5L1276.2,187z
			 M1275.1,193.2l-18.9,94l-1.6,3.4l-17.6-88.1c0-0.1-0.1-0.4-0.1-0.5l-1.7-5.9l2.3-1.8c0.5-0.4,1-0.9,1.3-1.3l5.4-7.7L1275.1,193.2
			z M1242.4,292.3l-124.2-32.9l9-44c0-0.1,0-0.4,0-0.5l75.6,3.9c1.5,0.1,2.8-0.4,4-1.2l17.8-13.5l0.4,1.1L1242.4,292.3z
			 M1213.2,163.9l-50.7-15.2l11.1-35.2l25.6,1.7L1213.2,163.9z M1156.6,146.9l-21.7-6.6l7.9-29.3l24.4,1.8L1156.6,146.9z
			 M1129.2,138.6l-38.8-11.7l8.4-27.2l18.5,9.3c0.4,0.1,0.7,0.2,1.1,0.4l18.4,1.3L1129.2,138.6z M1127.6,144.4l-16.8,62l-52,23.3
			l29.9-97L1127.6,144.4z M1074.1,121.6L989,91.5l6.9-29.6l87,31.1L1074.1,121.6z M1051.6,253.1l2,16.3l-49.4,180.9l-12.7-1.7
			L1051.6,253.1z M997.9,369.8l-83.3-17.7l1.3-49h12.7c0.7,0,1.3-0.2,2-0.7l12.1-10c0.6-0.5,1.1-1.3,1.1-2.2l46.2-2.3
			c1.1,0,2.1-0.4,2.9-1l37.7-23.5L997.9,369.8z M996,375.6l-23.3,75.8l-34.4-9.3c-0.2-0.1-0.5-0.2-0.7-0.4c-0.4-0.1-0.7-0.1-1.1-0.1
			L878.2,426l23.2-41.8c0-0.1,0.1-0.1,0.1-0.2l11.7-25.8L996,375.6z M911.6,237.1l-89-9.8L793,180.5l119.9,4.8L911.6,237.1z
			 M914.1,144.1l-0.7,26.2c-0.2,0.4-0.4,0.9-0.4,1.3c0,0.5,0.1,0.9,0.2,1.2l-0.1,6.2L789,174.2l-11.2-17.7l42.4-30.6l81.5,13.4
			l12.4,2.9L914.1,144.1z M774.6,151.4l-20.1-31.7l56.6,5.4L774.6,151.4z M769.7,154.9L748,170.6l4.1-43.4L769.7,154.9z
			 M772.9,160.1l11.8,18.8l33.5,52.9c0.5,0.7,1.3,1.3,2.2,1.3l90.9,10l-1,36.4l-29,1.5l-75.1-28l-51.8-50.7c-1.1-1.1-2.4-1.7-4-1.7
			l-5.5-0.2l2.1-21.6L772.9,160.1z M791.8,275l-42.1,29l-0.2,0.1l-21.5-6.3l5.4-38.3L791.8,275z M672.4,191.4l-49.6-7.3l7.7-76.1
			l50.5,4.8L672.4,191.4z M701.6,384.5l-8.8,82.8l-29.7-8.3l8.9-82.4L701.6,384.5z M646.9,427.1l-32.7-5c-0.6-0.1-1.2,0-1.7,0.2
			l-18.5,8.4l-4.9-1.7l1.7-3.7l31-53.4l32.5-11.3L646.9,427.1z M591.8,529.8l-27.3,107.5l-17.3-2.4c-1.7-0.2-3.2,1-3.4,2.6
			c-0.2,1.7,1,3.2,2.6,3.4l17.6,2.6l-8.9,97.6l-5-0.5l-78.5-13.8l0.1-1.5l3.9-12.1l7.7-15.5l21.3,6.3c0.2,0.1,0.6,0.1,0.9,0.1
			c1.3,0,2.6-0.9,2.9-2.2c0.5-1.6-0.5-3.3-2.1-3.8l-20.4-6l10.7-21.7c0.1-0.2,0.1-0.4,0.2-0.6l11.6-44.9l18.8-85.4l31.6-43
			c0.1-0.1,0.2-0.4,0.4-0.6l25.7-57.2l2.1-0.6L591.8,529.8z M466,604.7l-14.4-3.2c-1.6-0.4-3.3,0.7-3.7,2.3
			c-0.4,1.6,0.7,3.3,2.3,3.7l11.9,2.7v11.7l-31.8,59c-0.1,0.1-0.1,0.2-0.2,0.5l-4.8,13.7l-21.6-6.3h-0.1L393,686l21-44.1
			c0.1-0.4,0.2-0.6,0.2-1l5.1-47.3l14.6-18.8c0.2-0.4,0.5-0.7,0.6-1.2l12.7-55l73,24.1l-17.7,80.7l-0.9,3.5l-33.3-6.9v-12.4
			C468.4,606.1,467.5,604.9,466,604.7z M402.2,694.3l21.5,6.3l-28.5,95.9c-0.5,1.6,0.5,3.3,2.1,3.8c0.2,0.1,0.6,0.1,0.9,0.1
			c1.3,0,2.6-0.9,2.9-2.2l28.5-95.9l39.2,11.7l-3,9.6c-0.1,0.2-0.1,0.4-0.1,0.6l-8,75.6L445,843.1l-5.9,20.4l-14.7,6.6l-7.8-29.7
			c-0.2-1-1-1.7-1.8-2.1l-32.9-12.4l-36.1-26.5l39-109h1.7L402.2,694.3z M431.4,696.5l4.5-13.2l31-57.4l33.2,6.9l-9,35l-19.9,40.5
			L431.4,696.5z M553.6,493l-31.7,43.4c-0.1,0.1-0.1,0.2-0.2,0.4L428,505.3l-3-6.3l41.7-22.3l62-28.2l48.8-8.7L553.6,493z
			 M378.5,830.9c0.2,0.1,0.5,0.2,0.7,0.4l31.8,12.1l7.2,27.1l-18.9-8.2c-0.1,0-0.1-0.1-0.2-0.1l-25.8-8.8l-5.7-11
			c-0.7-1.5-2.7-2.1-4.1-1.3c-1.5,0.7-2.1,2.7-1.3,4.1l6.3,12.1c0.4,0.7,1,1.2,1.7,1.5l26.8,9.1l20.2,8.8l-6.3,27.8l-18.3-8.8
			l-59-28.6l-37.1-19l21-10.5c0.7-0.4,1.2-1,1.5-1.7l13-38.9L378.5,830.9z M432,895l25.6-3.3c0.4,0,0.6-0.1,1-0.2l14-6.8l-1.7,15
			L432,895z M476.1,906.4l46.7,5.5l14.4,1.7L523.4,1025l-60-7.7L476.1,906.4z M523.5,905.9l-46.7-5.6l2.2-18.9l7.3-3.5l56.8-12.7
			l-5.2,42.4L523.5,905.9z M484.6,871.9c-0.2,0-0.5,0.1-0.7,0.2l-9.1,4.5l-18.4,9l-35.8,4.5l3-13.2l19.5-8.7c0.9-0.4,1.5-1.1,1.7-2
			l5.6-19.4l94.2,7.2l-0.7,4.5L484.6,871.9z M480.4,843.3l10.2-71.3c0.2-1.7-1-3.2-2.6-3.4c-1.7-0.2-3.2,1-3.4,2.6l-10.4,71.7
			l-22.3-1.7l11.6-39.9c0-0.1,0.1-0.4,0.1-0.5l7.2-67.9l78.1,13.7c0.1,0,0.1,0,0.2,0l5.2,0.5l-9,99.8l-0.1,1.3L480.4,843.3z
			 M551.4,847.6l9-99.9l51.2,5.2l-10.7,99.6l-49.6-3.8L551.4,847.6z M618.2,873.9l40.5,12.6c0.1,0,0.1,0,0.2,0.1l8.2,1.8l-8.4,61.9
			l-11.6-1.6l-36.6-3.7L618.2,873.9z M660.4,880.5l-41.6-12.8l8.8-81.7l14-2.2c0.4,0,0.6-0.1,0.9-0.2l1.8-1l73,29.7
			c0.1,0,0.2,0.1,0.4,0.1L850.6,848L833,905l-92-6.7L660.4,880.5z M846.5,964.6l16,40.1l-48,20l16.6-53.9c0.2,0,0.6-0.1,0.9-0.2
			L846.5,964.6z M962.1,899.9l-6.2-10.7l12.3-3.2l44.6,5.5c0.4,0.2,0.6,0.4,1.1,0.5c0.2,0,0.5,0.1,0.6,0.1c0.4,0,0.7-0.1,1.1-0.2
			l33,4c0.2,0,0.6,0,0.9,0l55.2-9.9l90.2-11l1.5,8.3l-211.6,36.8c-0.1-0.4-0.5-0.7-0.7-1.1L962.1,899.9z M1226.8,701.9l56.8,13v4.1
			l-51.3,11.2L1226.8,701.9z M1346.3,749.9l15.7-2.9c1.7-0.4,2.8-2,2.4-3.5c-0.4-1.7-2-2.8-3.5-2.4l-15.7,2.9l-12.1-65.5l80.3,17.7
			l-6.9,41.6c-0.2,1.7,0.9,3.3,2.6,3.5c0.1,0,0.4,0,0.5,0c1.5,0,2.8-1.1,3-2.6l6.9-41.2l53.6,11.8c0.2,0,0.5,0.1,0.6,0.1
			c1.3,0,2.7-1,2.9-2.4c0.4-1.6-0.7-3.3-2.3-3.7l-81.5-18l6.5-29.7c0.4-1.6-0.7-3.3-2.3-3.7c-1.6-0.4-3.3,0.7-3.7,2.3l-6.5,29.7
			l-16.2-3.5v-6.2c0-1.7-1.3-3-3-3s-3,1.3-3,3v4.9l-9.9-2.2l6.3-36.4h6.6c1.7,0,3-1.3,3-3s-1.3-3-3-3h-9.1c-1.5,0-2.8,1.1-3,2.6
			l-6.7,38.6L1332,672l-8.7-46.8l39.1-10.5c1-0.2,1.7-1,2.1-2l14.6-41.3c0.2-0.9,0.2-1.7-0.2-2.6c-0.5-0.9-1.2-1.3-2.1-1.5
			l-26.1-5.6l-7.4-6.8c-1.2-1.1-3.2-1.1-4.3,0.1c-1.1,1.2-1.1,3.2,0.1,4.3l4.6,4.3l8.9,47.3l-30.5,8.2l-17.7-95.6l53.8,13l14.7,4.5
			l45.8,17.8l-12.1,30.4l-13.2,33.4c-0.6,1.6,0.1,3.3,1.7,3.9c0.4,0.1,0.7,0.2,1.1,0.2c1.2,0,2.3-0.7,2.8-2l11.8-29.7l9.5,6.6
			l12.9,20.1c0.2,0.4,0.5,0.6,0.7,0.9l22.4,16.3c0.2,0.2,0.6,0.4,1,0.5l63.7,18.2l-53,62.9l-46.4,54.7l-61.8,49.2L1346.3,749.9z
			 M1358.5,609.3l-7.8-41.2l21.5,4.5l-12.9,36.6L1358.5,609.3z M1465,635.3l15.6-42.5l46.2,13.8l-0.5,1.8c-0.4,1.5,0.4,3,2,3.7
			l23.8,8.8l-27.1,32.2c-0.4-0.5-0.9-0.7-1.5-1L1465,635.3z M1482.7,587.1l2.8-7.6l4.3-4.3l40,20.2l-1.3,5.1L1482.7,587.1z
			 M1533.1,607l3.3-12.7c0.4-1.3-0.2-2.8-1.6-3.5l-44.1-22.4c-1.2-0.6-2.6-0.4-3.5,0.6l-5,5l-27.1-9.3l28.2-80.4l15.2-11.8
			l32.7,11.5l-10.5,30.4l-20.4-6.6c-1.6-0.5-3.3,0.4-3.8,2s0.4,3.3,2,3.8l20.2,6.5l-5,14.9c-0.5,1.6,0.4,3.3,2,3.9
			c0.4,0.1,0.6,0.1,1,0.1c1.2,0,2.4-0.9,2.9-2.1l6.1-17.8l11.1-32.8l22.7,7.9l-12.6,40.7c-0.5,1.6,0.4,3.2,1.8,3.8l47.2,18l4,2.1
			l-0.5,1.3l-16,23.6l-27.1,32.1L1533.1,607z M1598.4,551.3c-0.1,0-0.2-0.1-0.2-0.1l-44.6-17.1l11.7-37.8l52.2,18.4l-15.4,38.4
			L1598.4,551.3z M1470.4,249.9c-0.1,0.2-0.2,0.5-0.2,0.9l-11.5,54.7L1351.8,281l15-70.9l85.1,20.5L1470.4,249.9z M1444.2,222.4
			l-76.1-18.4l10.7-50.3L1444.2,222.4z M1373.7,148.3l-11.5,54.2l-13.4-3.3c-0.4-0.1-0.7-0.1-1-0.1l-8.8,0.9l14.6-73L1373.7,148.3z
			 M1325.1,97.4l23.3,24.4l-15.8,79l-2.1,0.2l-48.3-12.3l12.4-62.2L1325.1,97.4L1325.1,97.4z M1316.8,88.5c-0.1,0-0.1,0.1-0.2,0.1
			l-58.8,56.2c-0.2,0.2-0.6,0.6-0.7,0.9l-25.7,36.7v-0.1l18.6-32.9l41.7-41.6l22.3-22.3L1316.8,88.5z M1309.7,81.2l-20.2,20.1
			l-31.2-31.7l22.4-19L1309.7,81.2z M1245.5,13.5l31.1,32.7L1254,65.3l-31.3-31.8L1245.5,13.5z M1218.1,37.5l31.3,31.8l-40.7,34.5
			l-13.3-46.3L1218.1,37.5z M1183.4,60.2l13.9,48.8l-25.8-1.7l-26.9-2.1l13-48.3l4.3,1.2c0.1,0,0.4,0.1,0.6,0.1L1183.4,60.2z
			 M1126.4,9.5l45.2,9.9l9.9,34.5l-18.3-1.7L1117.4,39L1126.4,9.5z M1115.7,44.8l36.1,10.4l-13.4,49.5l-19-1.5l-18.8-9.4
			L1115.7,44.8z M1100.4,36.2l-15.7,51l-87.4-31.3l10.2-43.9L1100.4,36.2z M1003.2,3.3L992,51.5l-17.3-17.8c2-6,1.8-11.8-0.9-16.9
			c-0.6-1.1-1.2-2.1-2.1-3L1003.2,3.3z M947.7,62c11.2-6,19.7-13.9,24.4-22.1l18.4,18.9l-7.2,30.6l-29.1-10.2l-27.3-9.6
			C933.4,68.4,940.4,65.9,947.7,62z M922,74.2l27.5,9.8l-11.9,71.2l-17.4-12.6L922,74.2z M920,149.9l21.5,15.5l-5,3.2h-16.9
			L920,149.9z M919.3,174.7h17.9c0.6,0,1.1-0.1,1.6-0.5l7.9-5l75.9,54.7c0.1,0.1,0.4,0.2,0.5,0.2l16.9,7.9l-2.4,7.8l-29,7.7
			l-91.1-10L919.3,174.7z M917.6,243.9l91.1,10c0.1,0,0.2,0,0.4,0s0.5,0,0.7-0.1l23.2-6.2l-45.1,28.3l-71.2,3.5L917.6,243.9z
			 M916.1,291.4l19.4-0.9l-7.9,6.5H916L916.1,291.4z M914.3,136l-11.3-2.7c-0.1,0-0.1,0-0.2,0l-75.6-12.4l65.9-47.8l19.7-2.1
			l3.2,1.1L914.3,136z M830.2,2.2l85.7,4.5v12.9c-6.9,4.6-12.3,10.1-15.8,15.8l-73.3-7.3L830.2,2.2z M825.7,34.2l71.3,7.1
			c-2.2,6.3-2,12.6,0.9,17.9c1.5,2.7,3.4,4.9,5.7,6.6l-12.1,1.3c-0.5,0-1,0.2-1.5,0.6l-3.2,2.3l-65-7.9L825.7,34.2z M821.3,68
			l58.5,7.2L820.7,118l-4.8-10.5L821.3,68z M762.9,27.8l56.9,5.7L816,61.3l-56.2-6.8L762.9,27.8z M759.4,60.3l56.1,6.8l-5.6,40.5
			c-0.1,0.5,0,1.1,0.2,1.6l4.5,9.9l-61.2-5.7L759.4,60.3z M706.8,54l46.3,5.7l-6,53.1l-46.2-4.4L706.8,54z M700.3,114.4l46.7,4.5
			c0,0.1,0.1,0.1,0.1,0.2c-0.2,0.4-0.4,0.7-0.4,1.1l-5.4,55.1l-32.2,23.3l-17.9-0.7L700.3,114.4z M689.9,210.1l44.1,2l-3.3,23.3
			l-43-4.5L689.9,210.1z M636.8,45.7l50.7,6l-6,55l-50.5-4.8L636.8,45.7z M589.2,38.4l41.3,6.6h0.1h0.1l-5.7,56.3l-41.3-3.9
			c-0.1,0-0.4,0-0.5,0L589.2,38.4z M582.5,103.5c0.1,0,0.4,0.1,0.5,0.1l41.3,3.9l-7.7,75.8l-19.5-2.9l-19.4-30.1L582.5,103.5z
			 M576.8,159.9l16.1,24.7c0.5,0.7,1.2,1.2,2.1,1.3l76.8,11.5l-1.1,10.1l-55.7-6.9l-38.4-14.9c-0.1-1.2-0.9-2.2-2.1-2.7L576.8,159.9
			z M573.6,191.2l39.5,15.4c0.2,0.1,0.5,0.1,0.7,0.1l56.2,7.1l-1.6,15.1L571,218.5h-0.1h-0.2L573.6,191.2z M567.7,245.5
			c0.4-0.9,0.6-1.8,0.7-2.8l1.8-18.2h0.2l97.1,10.2l-4.9,45.5l-42.9-3.8l-0.1-2.9c-0.1-1.7-1.6-2.9-3.3-2.8s-2.9,1.6-2.8,3.3
			l0.1,1.8l-56.7-5.1L567.7,245.5z M536.3,93.6l27.4,1.2l-7.4,74.4l-22.3-6L536.3,93.6z M555.7,175.3l-0.2,2.4l-13.5-3.8l-0.5-2.4
			L555.7,175.3z M554.7,184l-3.3,33.2l-68.9-4.8l-0.5-8.5l4.1-33.5l9,3c0.5,0.2,1.1,0.2,1.7,0.1l11.2-2.7L554.7,184z M346.2,471.8
			l9.9,8.7l-20,16.1l-43.5-37.3l17.8-19.1l34.1-1.2l-20.4,24.9c-1.1,1.3-0.9,3.2,0.5,4.3c0.6,0.5,1.2,0.7,2,0.7
			c0.9,0,1.7-0.4,2.3-1.1l24.6-30.1c0.7-1,0.9-2.2,0.4-3.3c-0.5-1.1-1.6-1.7-2.8-1.7l-34.7,1.3l21.5-23.2c1.1-1.2,1.1-3.2-0.1-4.3
			c-1.2-1.1-3.2-1.1-4.3,0.1l-25.6,27.5l-29.1,1.1L310,400c1.1-1.2,1-3.2-0.2-4.3c-1.2-1.1-3.2-1-4.3,0.2L270,435.5l-5.2,0.2
			l-41.3-35.2c-0.4-0.4-1-0.6-1.5-0.7l-17.7-2.8l6.2-14.7l18.4-39.7L329.7,318l9.4,56.8c0.1,0.5,0.2,1,0.6,1.3l55.7,70.3l-12.2,12.1
			l-22.3,18l-10.7-9.3c-1.2-1.1-3.2-1-4.3,0.2S345,470.7,346.2,471.8z M287.8,455.2L272.3,442l0.5-0.6l28.9-1.1L287.8,455.2z
			 M437.5,324l-58.6,12.2l-5.2-28.9l57.7-14L437.5,324z M419.9,206.3v-4.1l56.2,4.4l3.9,68.5l-44,10.7L419.9,206.3z M437.2,291.8
			l43.1-10.5l0.1,2.4l1.8,31l-38.9,8L437.2,291.8z M476.2,200.6L417,196c-0.9-0.1-1.7,0.2-2.3,0.9s-1,1.3-1,2.2v7.7
			c0,0.2,0,0.4,0,0.6l16.2,80l-22.8,5.5l-10.2-38.2c-0.5-1.6-2.1-2.6-3.8-2.2c-1.6,0.5-2.6,2.1-2.2,3.8l10.1,38l-28.9,7.1l0.2-0.6
			l-26.7-120.5l79.6-18.6l41.8,2.4l13.2,4.5L476.2,200.6z M372.9,337.3l-32.7,6.7l-4.6-27.7l32.1-7.7L372.9,337.3z M345,372.8
			l-3.8-22.7l34.1-7.1l58.6,65.5L399.8,442L345,372.8z M382.3,341.6l56.6-11.7l7.4,36.8c0.2,1.5,1.6,2.4,2.9,2.4
			c0.2,0,0.4,0,0.6-0.1c1.7-0.4,2.7-2,2.4-3.5l-7.4-36.8l38-7.9l1.2,19.6c0,0.6,0.2,1.2,0.6,1.7l7.4,9.1l-53.8,52.9L382.3,341.6z
			 M490,339.2l-3.4-55.7l-0.2-3.5l51-12.4l-27.9,66.8l-12.9,12.8L490,339.2z M486,273.7l-3.2-55.1l67.9,4.6l-1.6,16.1l-8.9,21.2
			c-0.2,0-0.4,0-0.6,0.1L486,273.7z M505.1,92.3h1l24.3,1.1l-2.3,68.3l-28.8-7.7L505.1,92.3z M474.9,54.2l27.4,2.8l-2.8,29.9
			l-27.8,3.4L474.9,54.2z M498.8,93.1l-5.6,59.4l-26.3-7.1l4.3-48.9L498.8,93.1z M449.1,51.5l19.7,2.1l-3.3,37.5l-20.8,2.6
			L449.1,51.5z M465,97.3l-4.1,46.4l-18.6-4.8c-0.2-0.1-0.6-0.1-0.9-0.1h-1.5l4.1-38.9L465,97.3z M423.8,49l19.3,2l-4.6,43.6
			l-18.8,2.3L423.8,49z M437.8,100.8l-4,38.2l-17.8,0.5l3.2-36.3L437.8,100.8z M395.9,46.2l21.8,2.2l-4.3,49.2l-21.3,2.7L395.9,46.2
			z M413.1,103.8l-3.2,35.7l-21,0.5c0.2-0.5,0.5-1,0.5-1.5l2.3-32.1L413.1,103.8z M379.3,44.5l10.5,1.1l-3.9,55.6l-2.8,0.4l-7.9-0.6
			L379.3,44.5z M382.9,107.6c0.1,0,0.1,0,0.2,0s0.2,0,0.4,0l2-0.2l-2.2,30.8c0,0.7,0.2,1.5,0.7,2.1l-12.4,0.4c0.5-0.5,0.9-1.2,0.9-2
			l2.3-31.7L382.9,107.6z M314.6,37.9l58.5,6l-4,56.6L312.3,96L314.6,37.9z M311,129.7c0-0.2,0.1-0.5,0.1-0.7l1.1-26.8l56.6,4.4
			l-2.3,31.7c-0.1,1,0.4,1.8,1,2.4l-59.2,1.5L311,129.7z M4,70.3l6-57l55.7,3.4L58.1,75L4,70.3z M64.2,75.6L71.8,17l55.5,3.4
			c0,0.1,0,0.2-0.1,0.4l-6.5,59.6L64.2,75.6z M188.5,26.4l-4.9,59.4l-56.9-4.9l6.5-59.5c0-0.1,0-0.4,0-0.5l55.5,5.1
			C188.6,26.2,188.5,26.3,188.5,26.4z M252.2,32.2l-3.9,59.2l-58.6-5l4.9-59.5c0-0.1,0-0.2,0-0.4l57.8,5.2
			C252.3,31.9,252.3,32,252.2,32.2z M254.5,91.9l3.9-59.2c0-0.1,0-0.1,0-0.2l23.4,2.2v29.1c0,1.7,1.3,3,3,3s3-1.3,3-3V35.1l18.3,1.7
			l-2.3,58.6L254.5,91.9z M292.2,175.6l-4,18.6l-0.6,1.3L292.2,175.6z M296,197.4c0.1-0.2,0.2-0.6,0.2-0.9l0.9-4.1l25.4-6.9l17.3-4
			l26.6,120.4l0.1,0.9l-19.5,4.8l-12-52.7c-0.4-1.6-2-2.7-3.7-2.3c-1.6,0.4-2.7,2-2.3,3.7l11.9,52.8l-6.8,1.7l-9.5-32.7
			c-0.5-1.6-2.2-2.6-3.8-2.1s-2.6,2.2-2.1,3.8l9.4,32.4L232,335.5l17.6-37.7c0.4-0.5,0.7-1.1,0.7-1.7L296,197.4z M14,234.6l3.5-11.6
			l25.5,5c0.2,0,0.4,0,0.6,0l22.2-0.4v28H47.1c-1.7,0-3,1.3-3,3s1.3,3,3,3h21.8c0.9,0,1.6-0.4,2.2-0.9c0.6-0.6,0.9-1.3,0.9-2.2
			v-31.2l202.1-2.9l-31.6,68.3l-43.1,1v-35.1c0-1.7-1.3-3-3-3s-3,1.3-3,3V294l-34.6,0.9v-26.2c0-1.7-1.3-3-3-3s-3,1.3-3,3v26.5
			l-136.8,3L14,234.6z M48.2,396.9l-29,1.1l-2.9-93.7l49.6-1.2v43.1c0,1.7,1.3,3,3,3s3-1.3,3-3v-43.4l63.9-1.5v34.3c0,1.7,1.3,3,3,3
			s3-1.3,3-3v-34.4l97.6-2.2l-43.8,95.8L48.2,396.9z M62.8,513.8v-111l130.5-1.7l-17.9,42.7l-69.7-4.3c-0.9,0-1.7,0.2-2.3,0.9
			s-1,1.3-1,2.2v26.9c0,1.6,1.2,2.9,2.8,3l56.2,4.4l-17.2,41L62.8,513.8z M173.1,449.5l-9,21.3l-55.3-4.4v-20.8L173.1,449.5z
			 M148.8,529.2l15.7-37.7l37.2,29.9c0.6,0.5,1.2,0.6,2,0.6c0.9,0,1.8-0.4,2.4-1.1c1.1-1.3,0.9-3.3-0.5-4.3l-38.5-31l7.6-18
			l49.5,41.8c0.6,0.5,1.2,0.7,2,0.7c0.9,0,1.7-0.4,2.3-1.1c1.1-1.3,1-3.2-0.4-4.3l-51-43.1l6-14.4l14.5,8.8c0.5,0.2,1,0.5,1.6,0.5
			c1,0,2.1-0.5,2.6-1.5c0.9-1.5,0.4-3.3-1.1-4.1l-15.4-9.3l16.5-39.4c0.4,0.2,0.7,0.5,1.2,0.5l16.9,2.7l41.4,35.3l22.5,19L252.4,498
			c-1.1,1.3-0.9,3.2,0.4,4.3c0.6,0.5,1.2,0.7,2,0.7c0.9,0,1.7-0.4,2.3-1.1l31.4-38.2l14.6,12.4l-28.6,36.1c-1.1,1.3-0.9,3.3,0.5,4.3
			c0.6,0.5,1.2,0.6,2,0.6c0.9,0,1.8-0.4,2.4-1.1l28.5-36l23.5,20l-33.2,26.7l-160.2,66c-1.6,0.7-3,1.8-4.1,3.2l-5.1,6.8L148.8,529.2
			z M148,609.8l159-65.3c0.9-0.4,1.7-0.9,2.4-1.5l86.3-69.8c0.2-0.2,0.5-0.4,0.7-0.6l128-125.7c1-0.9,1.7-2,2.2-3.2l28.2-67.3
			c0.4,0.2,0.7,0.4,1.2,0.4l58.4,5.2l2.2,24.7c0.1,1.6,1.5,2.8,3,2.8h40.1L655,354l-36.3,12.7c-0.7,0.2-1.2,0.7-1.6,1.3l-31.6,54.5
			c0,0.1-0.1,0.1-0.1,0.2l-4.6,10.5l-48.5,8.5l-38.8-41c-1.1-1.2-3-1.3-4.3-0.1c-1.2,1.1-1.3,3-0.1,4.3l36.1,38.4l-61.3,27.8
			c0,0-0.1,0-0.1,0.1l-43.3,23.2c-0.4,0-0.6,0.1-1,0.2c-0.4,0.2-0.7,0.5-1.1,0.9l-39,21c-0.1,0.1-0.2,0.1-0.4,0.2l-76.5,55.6
			l-96,36.6L143.7,635l-20.2,7.6L148,609.8z M45.1,640.6l16.9-4.3l36.1-6.6l5.9,6.2L91.9,652L45.1,640.6z M76.8,705.2l40-53.6
			l26.8-10l9.4,13.9c0.1,0.1,0.1,0.2,0.2,0.4l8.4,9.3l4.1,25.1l-4,12.8l-8.7,11.1c-0.2,0.4-0.5,0.7-0.6,1.1l-4.6,17.2
			c-0.5,1.6,0.5,3.3,2.2,3.8c0.2,0.1,0.5,0.1,0.7,0.1c1.3,0,2.6-0.9,2.9-2.3l4.4-16.6l8.7-11c0.2-0.2,0.4-0.6,0.5-1l4.4-14
			c0.1-0.5,0.1-1,0.1-1.5l-4.4-26.7c-0.1-0.6-0.4-1.1-0.7-1.6l-8.9-9.8l-8.5-12.6l59.4-24.9l34.5-13l6.8,53.1
			c0.1,1.2,1.1,2.3,2.3,2.6l9.1,2.3l-12.8,52.4c-1.3,5.4,2,10.8,7.3,12.3l39.2,10.4c1.3,0.4,2.6,1.2,3.2,2.4c0.7,1.2,0.9,2.7,0.5,4
			l-8.2,30l-85.2-19c-0.2,0-0.4-0.1-0.6-0.1l-17.9-0.5l2.6-26.6c0.1-1.7-1.1-3.2-2.7-3.3c-1.7-0.1-3.2,1.1-3.3,2.7l-2.6,26.9
			l-45.2-1.3v-13.3c0-1.7-1.3-3-3-3s-3,1.3-3,3v13l-65.2-2L76.8,705.2z M24,893c-0.5,0-1.1,0.2-1.5,0.5l2.9-13.5l36.9-126.2
			l24.3,0.7L58.2,891.4L24,893z M205,819.1h47.8c1.7,0,3-1.3,3-3s-1.3-3-3-3h-8.7l2-19c0.1-1.2-0.6-2.6-1.7-3l-7.2-3.4
			c-0.4-0.1-0.7-0.2-1.2-0.2l-74.6-3.4c-1.7-0.1-3,1.2-3.2,2.9c-0.1,1.7,1.2,3,2.9,3.2l2.7,0.1l-4.8,18.9l-26.5-2.7
			c-1.7-0.1-3.2,1.1-3.3,2.7c-0.1,1.7,1.1,3.2,2.7,3.3l27.4,2.8c0.4,0.2,0.7,0.5,1.2,0.6c0.2,0.1,0.5,0.1,0.7,0.1
			c0.5,0,1-0.1,1.5-0.4l35.7,3.5l8.4,22.2l-17.9-2.3l-15.1-5.9c-2.9-1.2-6.1-1.7-9.1-1.2l-13.4,2.2c-0.5,0.1-1,0.4-1.5,0.6
			l-25.2,20.8l-30.1,6.3c-0.7,0.1-1.3,0.6-1.8,1.1L71.3,891l-6.9,0.4l15.1-72.5h6.9l35.1,27.4c0.6,0.5,1.2,0.6,1.8,0.6
			c0.9,0,1.8-0.4,2.4-1.2c1.1-1.3,0.9-3.3-0.5-4.3l-36-28c-0.5-0.4-1.2-0.6-1.8-0.6h-6.7l12.1-58l111.5,3.3l97.1,21.7l16.9,7.2
			l8.4,6.2l-13.4,39.5L289,844.9l-52.5-12.3c-0.6-0.1-1.2-0.1-1.8,0.1l-21.6,8.2L205,819.1z M204.1,812.7l1.2-21.1l30.1,1.3l4.6,2.2
			l-1.8,17.6H204.1z M199.1,791.4l-1.2,21.1l-32.4-3.3l4.8-19.1L199.1,791.4z M216.5,845.9l19.7-7.4l52.4,12.3l42.2,21.7l59.1,28.6
			l19.6,9.4l-0.5,2l-21.9-6.5l-35.3-15c-0.1,0-0.1,0-0.2-0.1l-30.4-10.4c-0.1,0-0.1,0-0.2,0s-0.1,0-0.2-0.1l-90.9-17.8l-1.8-0.4
			L216.5,845.9z M181.7,859.6l44.4,8.7v11L220,906l-47.7-11.2L181.7,859.6z M153.3,862.2l22.2-2.7l-32.5,121l-21.1-2.9L153.3,862.2z
			 M57.4,945.2l7.8-39.9l28.8-7.4l-13.8,56.4L57.4,945.2z M98.6,1038.6l-30.8-7.9l16.6-68l7.4,2.9c0.1,0,0.2,0.1,0.4,0.1l24.7,6.1
			l-2.1,7.4L98.6,1038.6z M174.6,1057.7l-69.8-17.7l15.5-56.7l24.5,3.4c1.5,0.2,2.9-0.7,3.4-2.2l8.9-33.2l49.7,11.7l-12.4,54.1
			l-12.8,11.8c-0.9,0.7-1.2,2-0.9,3l4.6,17.7L174.6,1057.7z M190.6,1045.8l-3.7-13.5l10.5-9.8l13.9,8L190.6,1045.8z M282.2,1040.7
			l-62.5-14.1c-1-0.2-2-0.1-2.8,0.2l-16.3-9.5l12.2-52.8l82.2,19.3L282.2,1040.7z M288,1042.1l12.6-56.9l86.9,20.4l-12.9,56.2
			L288,1042.1z M430.6,1074.7l-50.1-11.5l10.4-45.2l64.4,4.8L430.6,1074.7z M469.7,1083.5l-32.8-7.4l25-52.7l60.8,7.7l-7.4,60.3
			L469.7,1083.5z M546.8,1096.9l-25.6-4.5l7.4-60.7l52.2,6.6l-0.2,2.6c-0.1,1-0.1,2,0.1,2.8l5.6,29.3L546.8,1096.9z M581.5,1032.4
			l-52-6.6l13.7-111.5l50.5,6L581.5,1032.4z M544,908.1l6.6-53.3l49.7,3.8l-6,55.5L544,908.1z M617.9,1042.3
			c-0.6,0.2-1.2,0.6-1.7,1.1l-13.2,13.2l-2.9-14.9l9.8-90.6l36.6,3.7l11.7,1.3l-7.2,73.7L617.9,1042.3z M657.2,1027.5l6.8-70.6
			l137.6,16.2L657.2,1027.5z M664.9,951l8.2-61.4l67,14.7c0.1,0,0.2,0,0.5,0.1l90.9,6.7l-17.7,57.5L664.9,951z M815.2,1034.5
			c-1.1-0.6-2.3-0.9-3.5-0.9l0.4-1.3l52.7-21.9l24.5,61.6L815.2,1034.5z M919.8,1074.7l-12.8,6.1l-9.5-4.8c0-0.1-0.1-0.4-0.1-0.5
			l-26.9-67.4l38.4-16l21.1,48L919.8,1074.7z M1197.5,996.4c-0.7,0.7-1.5,1.6-1.8,2.6l-11,26.6l-25.7,3.3l-0.7-36.7
			c0-0.6-0.2-1.3-0.6-1.8l-6.5-8.2c-1.1-1.3-2.9-1.6-4.3-0.5c-1.3,1.1-1.6,2.9-0.5,4.3l5.9,7.3l0.7,36.1l-31.7,1.7v-12.4l9.8-13.5
			c1-1.3,0.7-3.3-0.7-4.3c-1.3-1-3.3-0.7-4.3,0.7l-10.4,14.3c-0.4,0.5-0.6,1.1-0.6,1.8v13.8l-15.4,0.9l2.8-36
			c0.1-1.7-1.1-3.2-2.8-3.3c-1.7-0.1-3.2,1.1-3.3,2.8l-2.9,37.5l-75.1,15.4c-0.1,0-0.1,0-0.2,0L927,1072l12.6-42.9l26.6-32.8
			c0.1-0.1,0.2-0.4,0.4-0.6l18.9-39c0.2-0.5,0.4-0.9,0.4-1.3l-0.5-25.2l154.2-26.8l2.6,40.1c0.1,1.6,1.5,2.8,3,2.8
			c0.1,0,0.1,0,0.2,0c1.7-0.1,2.9-1.6,2.8-3.3l-2.6-40.7l15.1-2.7l4.4,38.4c0.1,1.6,1.5,2.7,3,2.7c0.1,0,0.2,0,0.4,0
			c1.7-0.2,2.9-1.7,2.7-3.4l-4.5-38.6l31.3-5.5l15.4,89.1L1197.5,996.4z M1200.4,1025.7l8.2-19.5l126.2-115.1c0.5-0.5,1-1.1,1.3-1.7
			l2.2-3.7c0.6,0.5,1.3,0.9,2.1,1l12.1,3.3l-67.9,60.6c-0.1,0.1-0.2,0.2-0.4,0.4l-60.3,75.6L1200.4,1025.7z M1359.6,892l16.1,4.4
			l-19.5,73.9l-66.8-15.6L1359.6,892z M1344.9,1012.5l-37.9-0.2c-0.2,0-0.6,0-0.9,0.1l-69.2,14.6l-5.5-0.2l53.5-67l69.6,16.2
			L1344.9,1012.5z M1447.1,985.3l-3.8,27.9l-92.1-0.6l27.9-105.7l84.7,23.9l-16.7,54C1447.1,985,1447.1,985.2,1447.1,985.3z
			 M1380.7,901.1l0.9-3.2l85.4,23l-1.3,4L1380.7,901.1z M1493,1014l-10.8-0.4l-32.7-0.2l3.7-26.9l16.6-53.6l34.1,13.3l4.1,2.6
			l-13.2,34.4c-0.2,0.6-0.2,1.3,0,2.1l3.7,11.1L1493,1014z M1471.5,927l1.3-4.5l32.5,8.8c0.5,0.1,1.1,0.2,1.6,0.2h7.6l-4.3,11.3
			l-3.4-2.1c-0.1-0.1-0.4-0.1-0.5-0.2L1471.5,927z M1567.1,1016.7l-67.8-2.6l5.2-17.2c0.2-0.6,0.1-1.2,0-1.8l-3.7-11l12.3-32.3
			l7.6,4.6l10.6,14c0.4,0.5,0.9,0.9,1.5,1.1l40,13.9L1567.1,1016.7z M1535.6,965.8l-10.4-13.7c-0.2-0.4-0.5-0.6-0.9-0.7l-9-5.5
			l5.6-14.5h24.6l34.7,13l-6.5,34.6L1535.6,965.8z M1707.2,982.8l-4.4,23.3V996c0-1.1-0.6-2.2-1.7-2.7l-10.8-5.6l15.2-49.5
			c0.5-1.6-0.4-3.2-1.8-3.8l-8.4-3h80.8l-37.3,90.8h-2.4l-2.8-15.4v-15.5L1707.2,982.8z M1696.6,998v22.9l-73.6-2.6l16-50
			L1696.6,998z M1698.8,939.3l-14,45.7l-56.3-28.9c-0.1,0-0.2-0.1-0.4-0.1l-65.1-24.5h114.3L1698.8,939.3z M1573.2,1016.7l12.9-70
			l39.6,14.9l7.7,3.9l-16.8,52.7L1573.2,1016.7z M1651.7,1076.6l-42.5-14.9l8.4-33.5c1.1,0,2.1-0.6,2.6-1.5l45.7,1.6L1651.7,1076.6z
			 M1731.8,1076.9l-16.9-5.6c-0.6-0.2-1.2-0.2-1.8,0l-9.9,2.9l-8.2,0.1c-1,0-1.8,0.4-2.3,1.1l-6.3,7.8l-28.8-5.2l14.5-49.6l82.9,2.8
			l2.8,1.3l-11.8,14.6c-0.1,0.2-0.2,0.4-0.4,0.6L1731.8,1076.9z M1790.3,1093.7l-52.7-15l13.3-27.8l12.4-15.5l45.2,22.2
			L1790.3,1093.7z M1811.1,1052l-41.2-20.2l31.8,1.1c0.4,0.2,0.9,0.5,1.3,0.5c0.1,0,0.2,0,0.4,0c0.6,0,1.1-0.1,1.6-0.5l12.7,0.5
			L1811.1,1052z M1904.1,1036.5l-9.6,43.5l-58.4-15.7l-19.5-9.5l7.4-21.1l23.9,0.9c0.1,0,0.2,0.1,0.5,0.1c0.2,0.1,0.5,0.1,0.7,0.1
			c0.4,0,0.7-0.1,1-0.1L1904.1,1036.5z M1847.4,1025.9l-40.1-1.3l5.9-46.1l29,2.1l15.6,3.8L1847.4,1025.9z M1859.2,978.5l-15.8-3.9
			c-0.1,0-0.4-0.1-0.5-0.1l-32.1-2.3c-1.6-0.1-3,1.1-3.3,2.7l-6.3,49.5l-56.1-2l40.7-99.1l81.8,21.8L1859.2,978.5z M1868.9,939.3
			l-80.9-21.6l17.8-43.3l74.6,18.8L1868.9,939.3z M1881.9,887.3l-73.7-18.6l19.5-47.4l66.3,17.9L1881.9,887.3z M1906.9,787.4
			l-11.5,46l-65.5-17.7l18.2-44.2L1906.9,787.4z M1857.7,660.4c0.1,0.2,0.2,0.4,0.5,0.6l19.4,22.1l-75.8,184.8
			c-0.6,0.4-1.2,1.1-1.3,1.8c-0.1,0.5-0.1,1,0,1.5l-20,48.6c-0.9-0.5-1.8-0.7-2.9-0.7h-269.9l-124.4-33.5l51.7-72.5l23.2-3
			l124.7,44.6c0.1,0,0.4,0.1,0.5,0.1l27.9,5.2l172.4,32.2c0.2,0,0.4,0,0.6,0c1.2,0,2.3-0.7,2.8-2l62.4-156.8
			c0.5-1.2,0.1-2.6-0.9-3.4l-38.2-33.4l14.4-26.6c0.7-1.2,0.4-2.8-0.7-3.8l-14-12.3l16.1-24.5c0.7-1.1,0.6-2.6-0.2-3.7l-6.6-8
			c-0.5-0.6-1.2-1-2-1.1L1637,594.2c-1-0.1-2,0.2-2.6,1l-92.4,96.4l-0.1,0.1c0,0,0,0,0,0.1c0,0,0,0-0.1,0.1l-85,112.4l-23.9,3.2
			c-0.9,0.1-1.6,0.6-2.1,1.2l-53.8,75.5l-32.5-8.8l22.7-38l64.2-51.3c0.4-0.2,0.7-0.6,1-1l46.9-55.2L1594.7,593
			c0.1-0.2,0.4-0.4,0.5-0.6l16.6-24.6c0.2-0.5,0.5-0.9,0.7-1.3l0.6-1.7l30.4,18.4c0.4,0.2,0.9,0.4,1.2,0.4l126.9,14.1l51.7,6.1
			L1857.7,660.4z M1803.7,657.2l14.3,12.4l-7.9,14.6l-54.9-14.3l35.5-50.1l24.4,3l4.4,5.4l-16.2,24.7
			C1802.4,654.5,1802.5,656.2,1803.7,657.2z M1704.9,730.5l-35.6-7.3l41.4-56.4l15.8,2.2l18.5,4.9L1704.9,730.5z M1751.3,675.3
			l30.6,7.9l-12.4,21.3l-24.9,35.2l-33.4-7.8L1751.3,675.3z M1701.1,736l-42.1,59.2l-35.6-9.5l41.9-57.2L1701.1,736z M1655.4,800.3
			l-16.5,23.3l-28.2,30.1l-26.2-4.8l-6-2.2l41.1-55.9L1655.4,800.3z M1643.3,827.7c0.1-0.1,0.1-0.2,0.2-0.4l17.9-25.4l139,37.3
			l-18.5,46.6l-164.4-30.7L1643.3,827.7z M1665.3,796.9l42.2-59.5l122.1,29l-26.8,67.3L1665.3,796.9z M1751,741.3l23.5-33.4
			c0-0.1,0.1-0.1,0.1-0.2l13.4-22.9l19,5l-3.4,6.3c-0.7,1.2-0.4,2.8,0.7,3.8l38.4,33.5l-10.8,27.2L1751,741.3z M1748.9,668.4
			l-21-5.5c-0.1,0-0.2,0-0.4-0.1l-12.7-1.7l34.1-46.4l34.9,4.4L1748.9,668.4z M1707.9,660.3l-61.2-8.3l-48.1-10.7l39-40.7
			l104.3,13.3L1707.9,660.3z M1645.5,657.9c0.1,0,0.1,0,0.2,0l58,7.9l-41.6,56.7c-0.2-0.1-0.5-0.2-0.9-0.4l-43.1-9.3l-68.5-20.7
			l44-45.8L1645.5,657.9z M1616.8,718.8c0.1,0,0.1,0,0.2,0.1l41.4,8.9l-41.2,56.2L1503,753.4l42.3-56.2L1616.8,718.8z M1613.2,789.2
			l-40.6,55.3l-0.1,0.1l-109.2-39.1l35.6-46.9L1613.2,789.2z M1819.5,597.2l-44.9-5.4l-5.5-27.8l29.3-4.5L1819.5,597.2z
			 M1807.2,557.9l15.1-3.4l9.9,46.6h-0.5l-3.9-6.3L1807.2,557.9z M1909.4,588.8l-34,7.2l-37.2,4.3l-10-47.3l70.6-16.1L1909.4,588.8z
			 M1889.2,490.3l8.3,40.7l-70.6,16.1l-13.2-62L1889.2,490.3z M1807.5,484.5l13.5,63.9l-16.9,3.9l-39.5-70.8L1807.5,484.5z
			 M1755,479.3c-0.4,1-0.2,2.2,0.4,3.3l39.9,71.4l-26.7,4.1l-0.6-0.4l-15.6-80.1L1755,479.3z M1761.2,555.2l-74.1-7.6
			c-1.7-0.2-3.2,1.1-3.3,2.7c-0.1,1.7,1.1,3.2,2.7,3.3l75.9,7.8l5.7,29.6L1646,577.4l-30.7-18.6l36.7-92l14.1,9.1v21.6
			c0,1.7,1.3,3,3,3s3-1.3,3-3v-23.3c0-1-0.5-2-1.3-2.6l-16.6-10.7l13.3-33.4l77.6,45.8L1761.2,555.2z M1734.6,443.5l-58.3-38
			l1.5-3.7l14.3-30L1734.6,443.5z M1749,219c-0.2,0.4-0.4,0.6-0.6,1l-38.9,81.4c0-1-0.5-2.1-1.3-2.7l-17.2-11.2l-10.4-15.8
			c-1-1.5-2.8-1.8-4.3-0.9c-1.5,1-1.8,2.8-0.9,4.3l4.4,6.7l-9.1,8.2c-1.2,1.1-1.3,3-0.2,4.3c0.6,0.7,1.5,1,2.3,1
			c0.7,0,1.5-0.2,2.1-0.7l8.5-7.6l2.9,4.5c0.2,0.4,0.5,0.6,0.9,0.9L1705,304c0.5,0.4,1.1,0.5,1.7,0.5c0.7,0,1.5-0.2,2-0.7
			l-22.2,46.7l-62.4-89.3l26.3-24.1l19.7,28.3c0.6,0.9,1.5,1.3,2.4,1.3s1.8-0.5,2.4-1.2l46-61.3c0.1-0.2,0.4-0.5,0.4-0.7l8.2-21.7
			l35,12.9c0.4,0.1,0.7,0.2,1.1,0.2c0.1,0,0.1,0,0.2,0L1749,219z M1767.7,189.2c-0.2-0.2-0.6-0.5-1-0.6l-35.5-13l13-53.9l36.7,8.8
			L1767.7,189.2z"/>
	</g>
</g>
<g>
	<rect x="958.7" y="545.1" class="st2" width="2.6" height="24.7"/>
	<g>
		<circle class="st3" cx="960" cy="520" r="26.5"/>
		<circle class="st4" cx="959.2" cy="520.8" r="22.7"/>
		<path class="st5" d="M966.8,535.9c-12.4,0-22.7-10.3-22.7-22.7c0-2.1,0.3-4.1,0.8-6c0.5-1.6-1.6-2.7-2.6-1.5
			c-4.2,4.7-6.4,11.1-5.6,18c1.3,10.2,9.5,18.4,19.6,19.6c6.9,0.9,13.3-1.4,18-5.6c1.2-1.1,0.1-3.1-1.5-2.6
			C970.9,535.6,968.9,535.9,966.8,535.9z"/>
	</g>
</g>
<g>
	<path class="st2" d="M949.7,525.3c0,0.4-0.1,0.5-0.3,0.8c-0.2,0.2-0.4,0.3-0.7,0.3c-0.2,0-0.4-0.1-0.6-0.2
		c-0.2-0.1-0.3-0.4-0.4-0.5l-1-2.1h-5.3l-1,2.2c-0.1,0.3-0.2,0.4-0.4,0.5c-0.2,0.1-0.4,0.2-0.5,0.2c-0.4,0-0.5-0.1-0.7-0.3
		c-0.2-0.2-0.3-0.4-0.3-0.7c0-0.1,0-0.2,0.1-0.4l4.4-10.7c0.1-0.3,0.3-0.4,0.4-0.5c0.2-0.1,0.4-0.2,0.6-0.2s0.4,0.1,0.6,0.2
		c0.2,0.1,0.4,0.3,0.4,0.5l4.4,10.4C949.7,525,949.7,525.2,949.7,525.3z M942.4,521.4h3.5l-1.8-4.1L942.4,521.4z"/>
	<path class="st2" d="M963.3,527.1c0.2,0.2,0.4,0.4,0.4,0.7c0,0.4-0.2,0.7-0.6,1c-0.4,0.4-0.9,0.5-1.5,0.8c-0.6,0.2-1.1,0.3-1.5,0.3
		c-0.8,0-1.3-0.1-1.8-0.3c-0.4-0.2-0.9-0.4-1.3-0.6c-0.3-0.2-0.5-0.3-0.7-0.4c-0.2-0.1-0.4-0.1-0.7-0.1c-0.2,0-0.3,0-0.4,0.1
		s-0.2,0.1-0.4,0.2c-0.2,0.1-0.3,0.2-0.4,0.2c-0.1,0-0.3,0.1-0.5,0.1s-0.5-0.1-0.7-0.4c-0.2-0.2-0.4-0.4-0.4-0.7
		c0-0.4,0.2-0.8,0.6-1l1.8-0.6c-1-0.2-1.8-0.6-2.5-1.2c-0.7-0.6-1.2-1.3-1.7-2.2c-0.4-0.9-0.6-1.8-0.6-2.8c0-1.1,0.3-2.3,0.8-3.3
		s1.2-1.8,2.1-2.3c0.9-0.5,1.9-0.9,3.1-0.9s2.2,0.3,3.1,0.9c0.9,0.5,1.7,1.3,2.2,2.3c0.5,1,0.8,2,0.8,3.3c0,1.1-0.2,1.9-0.6,2.8
		c-0.4,0.9-1,1.6-1.7,2.2c-0.7,0.6-1.5,1-2.5,1.2l-1.1,0.4c0.3,0,0.5,0.1,0.8,0.2c0.3,0.1,0.5,0.3,0.8,0.4c0.4,0.2,0.7,0.4,1,0.4
		c0.3,0.1,0.6,0.2,1,0.2c0.3,0,0.5-0.1,0.8-0.2c0.2-0.1,0.4-0.2,0.6-0.4c0.1-0.1,0.2-0.2,0.4-0.3s0.3-0.2,0.4-0.3s0.3-0.1,0.4-0.1
		C962.9,526.8,963.2,526.9,963.3,527.1z M953.3,522.2c0.4,0.6,0.8,1.1,1.3,1.5c0.5,0.4,1.2,0.5,1.9,0.5c0.7,0,1.3-0.2,1.9-0.5
		c0.5-0.4,1.1-0.9,1.3-1.5c0.4-0.6,0.4-1.4,0.4-2.2s-0.2-1.5-0.4-2.2c-0.4-0.6-0.8-1.1-1.3-1.5c-0.5-0.4-1.2-0.5-1.9-0.5
		c-0.7,0-1.4,0.2-1.9,0.5c-0.5,0.4-1,0.9-1.3,1.5c-0.4,0.6-0.4,1.4-0.4,2.2C952.8,520.8,952.9,521.6,953.3,522.2z"/>
	<path class="st2" d="M974.2,514.1c0.2,0.2,0.3,0.4,0.3,0.8v6.4c0,1-0.2,1.8-0.6,2.6c-0.4,0.8-1,1.3-1.8,1.8
		c-0.7,0.4-1.6,0.6-2.6,0.6s-1.8-0.2-2.6-0.6c-0.8-0.4-1.3-1.1-1.8-1.8c-0.4-0.8-0.6-1.7-0.6-2.6v-6.4c0-0.3,0.1-0.5,0.4-0.8
		c0.2-0.2,0.5-0.4,0.8-0.4s0.5,0.1,0.7,0.4c0.2,0.2,0.4,0.4,0.4,0.8v6.4c0,0.5,0.1,1.1,0.4,1.5c0.3,0.4,0.6,0.8,1,1.1
		c0.4,0.3,0.9,0.4,1.3,0.4c0.5,0,1-0.1,1.4-0.4s0.8-0.6,1.1-1.1c0.3-0.4,0.4-1,0.4-1.5v-6.4c0-0.4,0.1-0.6,0.3-0.8
		c0.2-0.2,0.4-0.3,0.7-0.3S974,513.9,974.2,514.1z"/>
	<path class="st2" d="M979,526c-0.3,0.2-0.5,0.4-0.8,0.4c-0.4,0-0.6-0.1-0.8-0.4c-0.2-0.3-0.4-0.4-0.4-0.8v-10.3
		c0-0.4,0.1-0.5,0.4-0.8c0.2-0.2,0.5-0.4,0.8-0.4c0.3,0,0.5,0.1,0.8,0.4s0.4,0.4,0.4,0.8v10.3C979.3,525.5,979.2,525.7,979,526z
		 M977.8,513c-0.2-0.1-0.2-0.3-0.2-0.4s0.1-0.4,0.3-0.4l1.5-1.3c0.3-0.3,0.6-0.4,0.9-0.4s0.4,0.1,0.6,0.3c0.2,0.2,0.3,0.4,0.3,0.6
		c0,0.2-0.1,0.4-0.2,0.5c-0.1,0.2-0.3,0.4-0.5,0.4l-1.8,1c-0.1,0.1-0.3,0.1-0.4,0.1C978,513.1,977.9,513.1,977.8,513z"/>
</g>
</svg>
