<?xml version="1.0" encoding="utf-8"?>
<!-- Generator: Adobe Illustrator 23.0.2, SVG Export Plug-In . SVG Version: 6.00 Build 0)  -->
<svg version="1.1" id="Capa_1" xmlns="http://www.w3.org/2000/svg" xmlns:xlink="http://www.w3.org/1999/xlink" x="0px" y="0px"
	 viewBox="0 0 1920 1100" style="enable-background:new 0 0 1920 1100;" xml:space="preserve">
<style type="text/css">
	.st0{opacity:0.2;}
	.st1{fill:url(#SVGID_1_);}
	.st2{fill:#FFFFFF;}
	.st3{fill:#FFFFFF;stroke:#000000;stroke-width:2;stroke-miterlimit:10;}
</style>
<g>
	<g class="st0">
		<g>
			
				<radialGradient id="SVGID_1_" cx="960" cy="551.7647" r="782.258" gradientTransform="matrix(1 0 0 -0.85 0 1019)" gradientUnits="userSpaceOnUse">
				<stop  offset="0" style="stop-color:#FFFFFF"/>
				<stop  offset="0.5" style="stop-color:#FFFFFF"/>
				<stop  offset="1" style="stop-color:#35007A;stop-opacity:0"/>
			</radialGradient>
			<path class="st1" d="M34.5,164.8c0-1.7-1.3-3-3-3H-0.1v6.1h31.6C33.2,167.8,34.5,166.5,34.5,164.8z M28.8,148.7c0-1.7-1.3-3-3-3
				H-0.1v6.1h25.8C27.5,151.7,28.8,150.4,28.8,148.7z M1899.4,108.9c-1,1.3-0.6,3.3,0.7,4.3l19.8,13.9v-7.6l-16.2-11.3
				C1902.4,107.2,1900.4,107.6,1899.4,108.9z M1913.9,93.6c-1,1.3-0.6,3.3,0.7,4.3l5.2,3.7v-7.5l-1.7-1.2
				C1916.9,91.9,1914.9,92.2,1913.9,93.6z M1919.3,8c-0.1,0-0.4-0.1-0.5-0.1l-5.7-1.5l4.4-6.3h-17.6l-1.7,2.4l-9.2-2.4h-39.2
				c0.7,0.9,1.7,1.5,2.8,1.8l38.9,10.2l-115.6,167.5l40.6-179.5h-6.3L1782,124.5l-77.8-18.6l25-105.8h-6.3l-24.6,104.4L1620.9,86
				l19.4-85.9h-6.3l-18.9,84.5l-95.9-23l14.5-61.5h-6.3l-14.2,60l-34.5-8.3l10.2-51.7h-6.2l-10,50.3l-36.6-8.8l9.2-41.5h-6.3
				l-8.9,40.2l-36.2-8.7l8.2-31.6h-6.4l-7.9,30.1l-32.8-7.9l3.6-22.2h-6.3l-3.5,20.7l-40.8-9.8l2.6-11h-6.2l-2.3,9.5l-24.9-6
				c-0.6-0.1-1.1-0.1-1.6,0.1l-3.4-3.6h-15.1c0.1,0.1,0.1,0.2,0.2,0.2l211,222.8l53,60.7l72.6,81.4c0.4,0.4,0.7,0.7,1.1,1l64,41.7
				l-0.7,2l-85.7-50.6l-45.8-65.1c-0.1-0.2-0.4-0.5-0.5-0.6L1247.6,0.1h-15.2c0.1,0.1,0.1,0.2,0.2,0.2l8.4,8.9l-47.8,41.9l-9-31.4
				l24.1-19.6h-9.6l-16.3,13.3l-3.9-13.3h-12.7l3.7,12.8l-41.4-9l1.2-3.8h-17.7l-9.4,30.5l-93.3-24.4l1-4.9l3.6-1.2h-19.4l-28,9.4
				c-2.9-1.5-6.2-2.4-10-2.7V0.1H950v6.7c-8,0.6-17.4,3.4-27.2,8.7c-0.2,0.1-0.6,0.4-0.9,0.5V0.1h-6v0.5l-9.1-0.5H788.9l35.2,1.8
				l-3.5,25.6l-57.2-5.7l2.5-21.7h-6.2l-6,53.5l-46.3-5.7l5.2-47.8H693l-5,45.6l-50.7-5.9l4-39.7h-6l-4.1,39l-41.4-6.7L593,0.1
				h-19.7l-9.1,88.8l-28.3-1.3c-0.5-0.9-1.5-1.3-2.4-1.3s-2,0.5-2.4,1.2l-25-1.2c-0.1,0-0.2,0-0.4,0l5.4-56.1l47.4,5.4
				c0.1,0,0.2,0,0.4,0c1.6,0,2.8-1.1,3-2.7c0.2-1.7-1-3.2-2.7-3.4l-15.4-1.7l3.8-27.7h-6.1L537.8,27l-26.1-2.9l2-24h-6.2l-4.9,51.1
				L319,32.3c-0.4-0.2-0.9-0.5-1.3-0.5l-2.8-0.2l0.5-12.1l101.4,7.3l-1.3-12.3l13.7,2c0.1,0,0.2,0,0.5,0c0.6,0,1.2-0.2,1.8-0.6
				l21.7-15.8h-10.5l-14,10.1l-69-10.1h-52.2l-1.2,30.7L130.2,14.7L10.5,7.3l0.8-7.2h-6L4.5,6.9l-4.6-0.1v6.1L3.7,13l-3.8,36.3v27
				h0.4l79,6.8v7.6c0,0.2,0,0.5,0.1,0.9l2.8,5.9H62.9c-0.5,0-0.9,0.1-1.2,0.5l-8.7,7.6c-0.2,0.1-0.4,0.4-0.5,0.6l-3.5,8.3H10.9
				c-1,0-1.8,0.4-2.4,1.1l-8.6,10.6v9.8l0.1-0.1l3.9-4.9c0.4,0.1,0.7,0.2,1.2,0.2h60.2c1.7,0,3-1.3,3-3c0-1.7-1.3-3-3-3H8.4l3.8-4.8
				h56.4c1.2,0,2.3-0.7,2.8-1.8h7.8c0.7,0,1.2-0.5,1.2-1.2V101h4.5c0.6,0,1.2-0.4,1.6-0.9s0.4-1.2,0.1-1.7l-3.9-8.2v-6.8l103.2,8.9
				l40.5,3.5l-113.8-4.4v2.6l5.5,102h169.1l-10.5,22.7l-176.9,2.6v-7.3l16.1-7.3c1.3-0.6,2.1-2.2,1.7-3.7l-4.6-15.5
				c-0.1-0.5-0.5-1-0.9-1.3l-8.7-8c-0.9-0.9-2.2-1.1-3.3-0.6l-12.8,5.4l-17.9-5.4c-1.6-0.5-3.3,0.4-3.8,2.1
				c-0.5,1.6,0.4,3.3,2.1,3.8l18.9,5.7c0.7,0.2,1.5,0.1,2.1-0.1l11.9-5l6.6,6.1l3.7,12.2l-15.5,7.1c-1.1,0.5-1.8,1.6-1.8,2.8v9.4
				l-50,0.7l-43.7-8.7v6.2l11.6,2.3L8,233.8c-0.1,0.4-0.1,0.6-0.1,1l1.7,52.9l-9.7,0.2v5.7l9.8-0.3l0.2,8.2l3,96.9l-13,0.5v6.5
				l48.6-1.9l8.4-0.1v63.3l-57-2.9v6.1l57.1,2.8v40.8l-57.1-2.6v6.1l56,2.7l-6,43l-50-3.1v6l86.7,5.3l2.2,40.8
				c0.1,1.6,1.5,2.9,3,2.9h0.1c1.7-0.1,2.9-1.5,2.9-3.2l-2.3-43.5c-0.1-1.6-1.3-2.8-2.8-2.9l-33.5-2.1l6-43l79.8,3.8l-1.1,2.6
				c-0.1,0.1-0.1,0.4-0.1,0.5L115,621.5l-7.2,9.5l-6.2-6.7c-0.7-0.7-1.7-1.1-2.8-1l-37.9,6.9c-0.1,0-0.1,0-0.2,0L31.9,638l-11.7,2.9
				l-7.2-5.4c-0.4-0.2-0.7-0.4-1.1-0.5l-12-3.1v6.2l10.1,2.6l2.7,2.1L-0.1,646v6.2l32.7-8.2l55.3,13.6l-6,8l-64.5,37.3L3.2,683.8
				c-0.8-1-2.1-1.4-3.3-1.1v6.8l12.2,16.4l-12.2,7.3v8.5l2.8-3.1l18.6-10.8l1.8,20.7l-23.2,29.1v9.5c0.3-0.2,0.6-0.4,0.9-0.7
				l28.1-35.1c0.5-0.6,0.7-1.3,0.6-2.2l-2.1-24.7L72.9,678l-13,17.2c-0.7,1-1.2,2-1.6,3L17.9,836.3L0.5,824.8l-0.6-1.1v7.9
				l16.3,10.9l-9.5,32.4c0,0.2-0.1,0.4-0.1,0.6l-6.7,30.1V994l2.9-13.2l21.5,3.7c0.1,0,0.4,0,0.5,0c1.5,0,2.7-1.1,3-2.6
				c0.2-1.7-0.9-3.3-2.4-3.5l-21.1-3.7l17.2-77c0.6,0.9,1.6,1.5,2.7,1.5l48.8-2.3c0.9,0,1.7-0.5,2.3-1.2l21.6-28.5l29.7-6.2
				c0.5-0.1,1-0.4,1.3-0.6l25.2-20.8l12.7-2.1c2-0.4,4-0.1,5.7,0.7h0.1l15.5,6c0.2,0.1,0.5,0.1,0.7,0.1l22.1,2.9l9.4,13.3l-39.1-7.7
				h-0.1c-0.1,0-0.1,0-0.2,0s-0.4,0-0.5,0h-0.1l-28.6,3.4c-1.2,0.1-2.2,1-2.6,2.2l-29.2,107.4l-24.7-6.1l-8-3.2l15.1-62.2
				c0.2-1.1,0-2.2-0.9-2.9c-0.7-0.7-1.8-1.1-2.9-0.7l-35.6,9.1c-1.1,0.2-2,1.2-2.2,2.3L51,946.1c-0.2,1.5,0.5,2.9,1.8,3.4l26,10.4
				L62,1028.8l-23.5-5.6c-0.7-0.1-1.5-0.2-2.2,0l-36.4,7.4v9.9l24.1-4.9l-13.5,4.6c-0.7,0.2-1.3,0.7-1.7,1.5l-8.9,16.9v13l13.7-26
				l31.4-10.6l14.5,3.7l-15,61.4h6.2l14.7-59.9l30.7,7.8l-14.3,52h6.4l13.8-50.5l16.3,4.1l-12.6,46.4h6.5l12.2-44.8l32.7,8.3
				l-12.2,36.5h6.4l11.6-35.1l7.2,1.8l6.1,6.3l-7.1,26.9h6.3l7.1-26.9c0.2-1,0-2.1-0.7-2.9l-3.2-3.3l10.1-7.4l12.8,29.4l-3.5,11.2
				h6.5l1.8-5.7l5.4,5.7h8.3l-12.5-13.2l-13.9-31.1l26-19.1l61.3,14l-10.2,49.4h20.4l-13.5-3.4l9.1-44.5l139.7,31.6l-7.8,16.3h6.8
				l7.2-15.1l35.1,7.9c0.1,0,0.1,0,0.2,0l41.1,7.1h51.4l27.8-16.8l3.2,16.8H611l-6.1-31.8l17.1-17.1l188-70.7l-14.1,46.2L615,1100.1
				h16.2l162.6-65.9l-20.2,65.9h76.2l-17.5-16l-12.7-28l67.6,34.1l-21.1,10H967l-44.6-13.5l1.2-4.4l3.4-1.6l52.9-13.4l-6,32.9h108
				l32.2-60.2l42.4-2.3c0.1,0,0.2,0,0.4,0l24.4-3l-3.8,9.1c-0.1,0.5-0.4,0.9-0.4,1.3l-2.9,14.1l-20.8-0.9c-1.7,0-3,1.2-3.2,2.9
				c-0.1,1.7,1.2,3,2.9,3.2l19.9,0.9l-7.2,34.8h15l10.7-51.4l6.1-14.6l34.9,1.3l14.7,64.7h6.3l-14.8-64.6l69.2-14.6l39.9,0.2
				l-12.2,78.9h6.3l12.3-78.8l74.1,0.5l-20.5,70.3c-0.5,1.6,0.5,3.3,2.1,3.8c0.2,0.1,0.6,0.1,0.9,0.1c1.3,0,2.6-0.9,2.9-2.2l21-71.9
				l48.3,0.4l26.2,0.9l-6.2,53.5c-0.1,1.2,0.4,2.3,1.5,2.9l8.4,5.2l-7.1,11.9c-0.2,0.4-0.4,0.7-0.4,1.2l-0.3,2.2h6.1l0.1-0.8
				l8.3-13.9c0.9-1.5,0.4-3.3-1-4.1l-9.3-5.9l6-52l53.3,1.8c0.2,0.1,0.5,0.2,0.9,0.2c0.2,0,0.4,0,0.6,0c0.4,0,0.9-0.1,1.2-0.2h1.7
				l-9.7,74.9h6.2l9.7-74.6c0-0.1,0-0.1,0-0.2l33.6,1.1l-9.1,36.3c-0.4,1.6,0.5,3,2,3.7l39.2,13.8l-9.3,19.9h6.8l8.3-17.9l3.2,1.1
				c0,0,0,0,0.1,0c0,0,0,0,0.1,0c0,0,0,0,0.1,0s0.1,0,0.2,0.1l33.9,6.1c1.1,0.2,2.2-0.2,2.9-1.1l6.6-8.2h3.8l-2.2,19.8h4.6l2.3-20.2
				l7.4-2.2l15.6,5.1l-6.7,17.3h8l6.1-15.8l52.7,15l-0.3,0.8h40.5l-1.3-1.3c-0.5-0.5-1.2-0.9-2-1l-29.9-2.9l17.4-34.5l19.5,9.5
				c0.1,0.1,0.4,0.1,0.6,0.2l4.8,1.2l-7.2,28.7h7.6l7-27.5l42.3,11.3l-8.9,16.2h7l8-14.6l25.3,6.7v-5.3l-19.8-5.3l10-44.9l9.9,0.3
				v-8.6l-66.8-2.2l20-80.1c0.7-0.4,1.5-1.1,1.6-2c0.2-1,0-1.8-0.5-2.6l11.7-46.8l34,8.5v-6.4l-32.2-8.1l11.9-48l20.2,5.5V840
				l-18.6-5l11.5-46l7.2,2v-24l-1.7-0.1l1.7-6.7v-25.1l-7.9,31.6l-61.3-2l31.4-76.5l37.8,43v-12.8l-11.9-13.6l11.9-2.7v-6.1
				l-16.4,3.7l-37.1-42.2l53.5-11.1v-6.2l-56.4,11.7c-0.2,0-0.5,0.1-0.7,0.2l-27.7-45.5l41.1-4.8c0.1,0,0.2,0,0.2,0l34.1-7.2
				l9.4,45.4v-29.7l-3.5-17l3.5-0.7v-6.2l-4.6,1l-10.6-51.8l15.2-2.6v-6.3l-16.4,2.8l-7.9-38.9l24.4,1.7v-11l-158.6-11.2l-7.3-4.3
				l121.4,8.5c0.4,0,0.9,0,1.2,0l12.1-1.8l31.2,1.9v-11.1l-31.1-1.9c-0.4,0-0.7,0-1.1,0l-12.1,1.8l-8-0.6c0.2-0.1,0.4-0.4,0.5-0.5
				l21.5-26.3l30.3,9.3v-6.4l-27.5-8.4l4.3-12.9c0.5-1.6-0.4-3.3-2-3.8s-3.3,0.4-3.8,2l-5,15.4l-22.4,27.5c-1,1.2-0.9,3,0.2,4.1
				l-106.3-7.4c0-1.2-0.4-2.4-1-3.7l-54.6-92c-0.6-1.1-1.6-2-2.6-2.6l20-41.9c0.1,0,0.1,0,0.1,0.1l80.4,20.4l-16.2,65.9
				c-0.4,1.6,0.6,3.3,2.2,3.7c0.2,0,0.5,0.1,0.7,0.1c1.3,0,2.6-1,2.9-2.3l16.2-65.8l44.2,12.7c0.2,0.1,0.6,0.1,0.9,0.1
				s0.6,0,0.9-0.1l29.4-8.8l38.9,8.8v-6.4l-32.8-7.4l32.8-29.8v-8.2l-40.6,37l-28.6,8.5l-46.4-13.3l-82.4-20.8l39.5-82.8l14.6-21.3
				l93,25.6l50.9,14v-5.9l-45.1-12.5l12.4-19.3l25.4,6.9c0.2,0.1,0.5,0.1,0.9,0.1c1.3,0,2.6-0.9,2.9-2.2c0.5-1.6-0.5-3.3-2.1-3.8
				l-23.4-6.5l29-43.6v-11.4l-35.4,53.4c-1.5-0.2-2.9,0.7-3.4,2.2c-0.2,0.9-0.1,1.7,0.4,2.4l-13,19.7l-56.6-15.6v-4.3l16.1-4.3
				l7.3,8.8c1.1,1.3,3,1.5,4.3,0.4s1.5-3,0.4-4.3l-5.2-6.3c0.1-0.1,0.2-0.2,0.2-0.2l32.7-46.8c1-1.3,0.6-3.3-0.7-4.3
				c-1.3-1-3.3-0.6-4.3,0.7l-32.1,45.8c-0.7-0.4-1.6-0.6-2.3-0.4l-20.2,5.5c-1.3,0.4-2.2,1.6-2.2,2.9v4.9l-26.3-7.2l127-184.2
				l9.6,2.4l3.9,1.4V8.2L1919.3,8z M78.3,116L78.3,116h-6.7c-0.5-1.1-1.6-1.8-2.8-1.8H53.2l2.8-6.5l7.8-6.8h14.5
				C78.3,100.9,78.3,116,78.3,116z M1703.1,112l35.1,8.4l-12.9,53.1l-33.8-12.4L1703.1,112z M1631,190.4l6.3,24.3
				c0.1,0.2,0.1,0.5,0.2,0.7l9.1,16.5l-26.6,24.4l-13.3-19l-9.3-47.5l10-44l1.8-8.2l74.6,27.4l-13,24.6l-25.1-8.5
				c-1.6-0.5-3.3,0.4-3.9,2c-0.5,1.6,0.4,3.3,2,3.9l24.1,8.3l-16.9,32.1l-8-14.4l-6.2-23.9c-0.4-1.6-2.1-2.6-3.7-2.2
				C1631.7,187.1,1630.7,188.8,1631,190.4z M1591.5,190.1l5.2,26.1l-21.3-10.4l-19.7-13.5l43.9-38.9l-8,35.5
				C1591.4,189.3,1591.4,189.7,1591.5,190.1z M1570.7,210l-26.2,21.9l-17.9-13.8l24.4-21.7L1570.7,210z M1655.2,232.5
				c0.2-0.2,0.5-0.5,0.6-0.9l12.8-24.4l18.8,9.3c0.5,0.2,0.9,0.4,1.3,0.4c1.1,0,2.2-0.6,2.7-1.7c0.7-1.5,0.1-3.3-1.3-4l-18.5-9.1
				l3.9-7.3l14.6-27.7l33.6,12.3l-7.9,21.2l-43.1,57.7l-17.8-25.5L1655.2,232.5z M1619.7,91.9l77.4,18.6l-11.3,48.5l-75-27.5
				L1619.7,91.9z M1517.7,67.5l96,23l-8.8,38.8l-93.7-34.5L1517.7,67.5z M1477.5,57.9l34.4,8.2l-6.3,26.6l-32.5-11.9L1477.5,57.9z
				 M1434.9,47.5l36.7,8.9l-4.4,22.1L1431,65.1L1434.9,47.5z M1467.3,85c0.4,0.4,1,0.7,1.6,0.9c0.2,0,0.4,0,0.6,0c0.1,0,0.1,0,0.2,0
				l34.5,12.7l-11.8,50.1l-68.9-47.3l5.2-26.6l0.9-3.7L1467.3,85z M1392.5,37.5l36.4,8.7L1425,64l-38.9-2.3L1392.5,37.5z
				 M1353.3,35.1l1.1-6.8l32.3,7.7l-6.6,25.2l-30.8-1.8L1353.3,35.1z M1283.3,11.2l65.1,15.6l-1.1,6.3l-21.8,22.7L1283.3,11.2z
				 M1329.7,60.2l15.8-16.5l-2.8,16.8l-7.4,5.7L1329.7,60.2z M1339.6,70.7l6.9-5.4l31.9,2l-5.2,20l-7.8,10.6L1339.6,70.7z
				 M1369.6,102.3l8.8-11.9c0.2-0.4,0.4-0.6,0.5-1.1l5.7-21.8l39.1,2.3l-0.9,3.7l-5.7,28.6l-1,5.1l-21.3,21.8L1369.6,102.3z
				 M1496.2,237.6l-19.3-22.1l-77.9-82.2l22.1-22.7c0.4-0.4,0.7-1,0.9-1.6l0.2-1.3l66.4,45.7l-9.9,10.1c-1.2,1.2-1.1,3.2,0,4.3
				c0.6,0.6,1.3,0.9,2.1,0.9c0.7,0,1.6-0.4,2.2-1l10.6-10.8l52.2,35.8l-24.1,21.5l-10.7-8.3l-36.1-32.2c-1.2-1.1-3.2-1-4.3,0.2
				c-1.1,1.2-1,3.2,0.2,4.3l36.1,32.3l0.1,0.1l9.9,7.6l-19.7,17.6C1496.6,236.3,1496.4,236.9,1496.2,237.6z M1499.4,241.3
				c0.7,0,1.5-0.2,2-0.7l20.6-18.3l17.8,13.7l-26.1,21.8L1499.4,241.3z M1560.6,310.7l-30.6-34.4l-12.3-13.9l26.6-22.3l12.4,13.4
				c0.6,0.6,1.5,1,2.2,1s1.5-0.2,2.1-0.9c1.2-1.1,1.3-3,0.1-4.3l-12.3-13.2l26.9-22.5c0.2-0.1,0.4-0.4,0.5-0.6l21.9,10.6l3,15.1
				c0.1,0.4,0.2,0.9,0.5,1.1l14.1,20.2l-55,50.3C1560.7,310.5,1560.7,310.7,1560.6,310.7z M1602.2,357.5l-37.4-42.1
				c0.1-0.1,0.2-0.1,0.4-0.2l54.4-49.9l40.2,57.7l-27.2,17.7c-1.5,1-1.8,2.8-0.9,4.3c0.6,0.9,1.6,1.3,2.6,1.3c0.6,0,1.1-0.1,1.7-0.5
				l27.3-17.8l20,28.6l-18.8,39.4c-0.1,0.1-0.1,0.2-0.2,0.5l-0.5,1.1L1602.2,357.5z M1672.1,416.1l26.5,17.3l-27.1-16L1672.1,416.1z
				 M1518.7,300.9l46.2,65.6c0.5,0.6,1,1.2,1.7,1.6l88.2,52l-35.3,89l-118.4-41.6l10.8-50.7c0.4-1.6-0.7-3.3-2.3-3.7l-38.9-8.7
				l-25.5-5.7l30-143.5L1518.7,300.9z M1277.1,879.3l38.5-6.7l11.1,4l-2.7,4.5l-32.2,29.4L1277.1,879.3z M1287.1,914.6l-68.5,62.5
				l-14.7-85.3l66.9-11.7L1287.1,914.6z M1317.7,862.8c-0.9-0.2-1.7-0.4-2.6-0.2l-113,19.6l-1.3-7.9l72.8-8.2l62.7-5.7l-4.5,7.6
				L1317.7,862.8z M1272.9,860.3l-73.3,8.2l-14.7-85.7l63.5-12.6c1.7-0.4,2.7-2,2.4-3.5c-0.4-1.7-2-2.7-3.5-2.4l-63.4,12.6
				l-12.3-71.3l10.7,1.1c0.4,0,0.7,0,1.1-0.1l29.1-7.7l7.7,1.7l6,31.2l-15.5,3.4c-1.6,0.4-2.7,2-2.3,3.7c0.4,1.5,1.6,2.4,2.9,2.4
				c0.2,0,0.5,0,0.6-0.1l75.1-16.5c1.3-0.4,2.4-1.6,2.4-2.9v-9c0-1.5-1-2.7-2.3-2.9l-74-16.9c-0.5-0.1-1-0.1-1.5,0l-29.3,7.7
				l-10.8-1.1l11.8-53.8l136.5,30.1l29.6,160c0.1,0.5,0.2,1,0.5,1.5l-10,16.8L1272.9,860.3z M941.9,972.8c-0.9-0.5-1.8-0.5-2.7-0.1
				l-71.2,29.7l-16-40.1l45.7-18.6l81.3-12.6l0.4,23.5l-15,31L941.9,972.8z M961.6,991.1l-0.7,1.6l-26.7,32.9
				c-0.2,0.4-0.5,0.7-0.6,1.1l-1.2,4.3l-18.2-41.3L940,979L961.6,991.1z M224.4,913.3l81.7,19.1L296,977.9l-82-19.3L224.4,913.3z
				 M208,957.3l-49.5-11.6l12.2-45.1l47.8,11.2L208,957.3z M307.4,926.3l-81.7-19.1l6.2-27.1c0.1-0.2,0.1-0.5,0.1-0.7v-10l84.2,16.5
				L307.4,926.3z M322.2,887.5l27.1,9.1l35.5,15c0.1,0,0.2,0.1,0.4,0.1l22.4,6.7l-6.8,29.7l-87.4-20.5L322.2,887.5z M312.1,933.8
				l87.4,20.5l-10.6,45.5L302,979.3L312.1,933.8z M418.2,899.5l51.8,6.2l-12.8,111.2l-65-4.8L418.2,899.5z M303.5,734
				c-1.6-2.7-4-4.5-6.9-5.4l-39.2-10.4c-2.2-0.6-3.4-2.8-2.9-5l12.9-52.5l111.7,27.7l-38.4,107l-18.8-13.8c-0.2-0.1-0.4-0.2-0.6-0.4
				l-17.6-7.4c-0.1-0.1-0.4-0.1-0.5-0.1l-6.6-1.5l8.2-29.6C305.5,739.8,305.1,736.8,303.5,734z M280.5,615c-0.2-1.7-1.8-2.8-3.5-2.4
				l-16,2.9c-0.4,0.1-0.9,0.2-1.2,0.5l-7.9,5.5l-2.8-22.3l56.1-21.3c0.2-0.1,0.5-0.2,0.7-0.4l27.9-20.2l3,8l-4.1,31
				c-0.9,4.6,1.6,9.3,6.1,10.8c1,0.4,1.5,1.5,1.1,2.4l-14,40.7c-0.1,0.4-0.1,0.6-0.1,1V669l-70-17.3l-2.9-23.4l10-6.8l15.4-2.8
				C279.6,618.3,280.7,616.8,280.5,615z M342.5,563.6l-3.9-10.4l43.6-31.7l37.2-19.6l3.4,7.2c0.4,0.7,1,1.3,1.8,1.6l16.8,5.7
				l-12.7,55l-14.7,19c-0.4,0.5-0.6,1-0.6,1.6l-5.1,47.7l-21.4,44.5l-55.3-13.8v-18.8l13.8-40.2c1.5-4.1-0.7-8.5-4.8-10.1
				c-1.7-0.6-2.6-2.3-2.2-4.1c0-0.1,0-0.1,0-0.2l4.3-31.8C342.8,564.6,342.7,564.1,342.5,563.6z M662.3,465.3l29.7,8.3l-8.8,82.3
				l-29.9-8L662.3,465.3z M660.2,303.6h-37.9l-1.8-21l41.6,3.8L660.2,303.6z M699.3,287.4L682,283l5-46l42.8,4.5l-7.8,54.7l-6-1.7
				c-1.6-0.5-3.3,0.5-3.8,2.1s0.5,3.3,2.1,3.8l6.8,2l-2.7,19c0,0.2,0,0.5,0,0.7L675,346.8l6.3-57.9l16.5,4.3
				c0.2,0.1,0.5,0.1,0.7,0.1c1.3,0,2.6-1,2.9-2.3C701.9,289.5,700.9,287.7,699.3,287.4z M740.1,212.5l7.4,0.2l51.1,50
				c0.6,0.6,1.3,1.1,2.2,1.3l16.7,6.2l-18.2,0.5l-65.1-17.2L740.1,212.5z M718.8,199.3l21.6-15.6l-1.6,16.5L718.8,199.3z
				 M976.9,119.5l55.7,102.6l-6.7-3.2l-77.4-55.8l-5.5-4L955.3,86l26.5,9.5l-5.1,21.8C976.5,118.1,976.5,118.8,976.9,119.5z
				 M982.8,117.6l4.6-20l84.7,30l-30.4,98.7L982.8,117.6z M1247.5,111.2L1230.9,93l22.7-19.1l15.8,16.1L1247.5,111.2z M1273.7,94.3
				l11.3,11.5l-22.3,22.3l-11.2-12.3L1273.7,94.3z M1258.4,132.3l-13.3,13.2c-0.2,0.2-0.4,0.4-0.5,0.6l-16,28.2l-18.4-64l16-13.4
				L1258.4,132.3z M1413.8,326.6c0.2,0,0.4,0,0.6,0c1.5,0,2.7-1,2.9-2.4l4.3-21.1l17.9,4.1l-6.8,29.9c-0.4,1.6,0.6,3.3,2.3,3.7
				c0.2,0,0.5,0.1,0.7,0.1c1.3,0,2.7-1,2.9-2.3l6.8-29.9l11.8,2.7l-17.9,85.9l-107.4-23.8l18.4-86.7l65.2,15l-4.3,21.2
				C1411,324.8,1412.1,326.4,1413.8,326.6z M1426.4,555.3l19.5-56.1l23.2,6.8l-20,57L1426.4,555.3z M1478.7,579.8l-19.6,53.9
				l-21.1-15.5l-12.9-20.1c-0.2-0.4-0.5-0.6-0.9-0.9l-11.2-7.8l11.2-28.3L1478.7,579.8z M1448,493.4l14.1-40.8
				c0.1-0.4,0.1-0.6,0.1-1v-18.3l9.8-22.4l33.5,7.6l-10.6,49.2l-16.3,12.7c-0.5,0.4-0.9,0.9-1,1.3l-6.5,18.5L1448,493.4z
				 M1456.4,431.6c-0.1,0.4-0.2,0.9-0.2,1.2v18.4l-35.6,102l-45.8-17.8c-0.1,0-0.1,0-0.2-0.1l-14.9-4.6h-0.1l-56.4-13.7l-0.6-3.5
				l14.6-68.8l13.8-65.2l107.3,23.9l-5.5,26.1c-0.2,1.7,0.7,3.3,2.4,3.7c0.2,0,0.4,0.1,0.6,0.1c1.5,0,2.7-1,2.9-2.4l5.5-26l21.8,4.9
				L1456.4,431.6z M1286.5,612.6l-31.4-4c-1.6-0.2-3.2,1-3.4,2.6l-6.2,41.7l-60.7-13.4l6.9-31.3l41.4,8.8c0.2,0,0.5,0.1,0.6,0.1
				c1.5,0,2.7-1,2.9-2.4c0.4-1.7-0.7-3.3-2.3-3.7l-41.4-8.8l3.2-14.3l39.9,8.9c0.2,0,0.5,0.1,0.6,0.1c1.3,0,2.7-1,2.9-2.4
				c0.4-1.6-0.6-3.3-2.3-3.7l-39.9-8.9l5.4-24.4l41.9,7.6c0.1,0,0.4,0,0.5,0c1.5,0,2.7-1,3-2.6c0.2-1.7-0.9-3.3-2.4-3.5l-41.7-7.6
				l10.6-48.3l40.3,9l-7.7,32.5c-0.4,1.6,0.6,3.3,2.3,3.7c0.2,0,0.5,0.1,0.7,0.1c1.3,0,2.7-1,2.9-2.3l7.7-32.7l17.8,4l-13.7,62.8
				c-0.4,1.6,0.7,3.3,2.3,3.7c0.2,0,0.5,0.1,0.6,0.1c1.5,0,2.7-1,2.9-2.4l13.7-62.8l6.6,1.5l16.5,89L1286.5,612.6z M1308.9,615.5
				l9.9,53.5l-40-8.8l10.2-41.8L1308.9,615.5z M1144.5,854.6l-3.6-25c-0.3-2.2-1.5-4.2-3.3-5.6c-1.8-1.4-4.1-1.9-6.3-1.6
				c-4.6,0.7-7.9,5-7.2,9.6l3.6,25c0.3,2.2,1.5,4.2,3.3,5.6c1,0.8,2.2,1.3,3.5,1.5l1.7,11.6l-32.7,3.9h-0.1l-54.9,9.9l-30.6-3.8
				l11.6-53.4l49.6,10.2c0.2,0,0.4,0.1,0.6,0.1c0.1,0,0.4,0,0.5,0l24.1-4c1.7-0.2,2.8-1.8,2.6-3.5c-0.2-1.7-1.8-2.8-3.5-2.6
				l-23.5,3.9l-49-10.1l6.6-30l35.3,9.5c0.2,0.1,0.5,0.1,0.7,0.1s0.5,0,0.9-0.1l16.6-4.6c1.6-0.5,2.6-2.1,2.1-3.8
				c-0.5-1.6-2.1-2.6-3.8-2.1l-15.8,4.4l-34.9-9.4l8.5-39.1l31.9,7.6c0.2,0,0.5,0.1,0.7,0.1c1.3,0,2.7-1,2.9-2.3
				c0.4-1.6-0.6-3.3-2.3-3.7l-32.1-7.6l4.6-21.3l36.4-6.2l11.3,53.6c0.2,1.5,1.6,2.4,2.9,2.4c0.2,0,0.4,0,0.6-0.1
				c1.7-0.4,2.7-2,2.3-3.7l-11.2-53.4l22.7-3.8l7.3,50.8c0.2,1.5,1.5,2.6,3,2.6c0.1,0,0.2,0,0.5,0c1.7-0.2,2.8-1.8,2.6-3.4l-7.3-51
				l41-6.9l28.3,163.7l-51,6.3l-1.8-12.1C1143.4,861.3,1145,858.1,1144.5,854.6z M1136.5,858.3c-1.4,0.2-2.6-0.7-2.8-2.1l-3.6-25
				c-0.2-1.4,0.7-2.6,2.1-2.8c0.1,0,0.3,0,0.4,0c0.5,0,1,0.2,1.4,0.5c0.5,0.4,0.9,1,1,1.6l3.6,25
				C1138.8,857,1137.8,858.1,1136.5,858.3z M862.2,932.1c-0.6-2.2-2-3.9-4-4.9c-3.7-1.8-9-1.2-13.7-0.1l8-26h56.2
				c0.2,0,0.5,0,0.7-0.1l40.3-10.2l7.3,12.7c0.1,0.2,0.4,0.6,0.6,0.7l19.7,17.2L895.7,934c-0.4,0-0.7,0.1-1.1,0.2l-32.2,13.2
				C863.4,943.5,863.7,938.3,862.2,932.1z M855.1,950.5l-20.5,8.4l7.7-24.9c5-1.6,10.6-2.6,13.2-1.3c0.6,0.2,0.7,0.6,0.9,1
				C858.5,941.6,856.3,947.8,855.1,950.5z M608,627.6l-34-3.7l21.8-85.7l39.2-2.9l-10,92.3L608,627.6L608,627.6z M624.6,633.6
				L612.4,747l-51.3-5.4l9.1-102.5l2.3-9.3l35.1,3.8c0.1,0,0.2,0,0.4,0H624.6z M707.4,386.2l31.8,8.7l-8.4,83.3l-32.2-9L707.4,386.2
				z M702.2,378.6l-29.6-7.9l1.7-16.5l32.4-18.5L702.2,378.6z M713,332.1l37.3-21.3l156.9,45.8l-11.1,24.7l-23.9,42.9L708.1,380
				l5-46.9C713.1,332.8,713.1,332.5,713,332.1z M725,318.2l2-14.1l15.1,4.4L725,318.2z M757.1,306.4l42.9-29.5l32.8-0.9l45.6,16.9
				c0.7,0.2,1.5,0.4,2.1,0.4c0.1,0,0.2,0,0.2,0l29.3-1.5l-1.5,58.8L757.1,306.4z M1057.1,249.6l53.8,14.3l-0.7,3.3
				c-0.1,1.7,1,3.3,2.6,3.7c0.2,0,0.4,0.1,0.6,0.1c1.5,0,2.7-1,2.9-2.4l0.6-3l28.6,7.6l-12.3,56.3l-41.8-9.3l3.7-22.2
				c0.2-1.7-0.9-3.2-2.6-3.5c-1.7-0.2-3.2,0.9-3.5,2.6l-3.5,21.8l-36.9-8.2l10.8-39.9c0.1-0.4,0.1-0.7,0.1-1.2L1057.1,249.6z
				 M1120.9,215.3l-8.8,42.5l-54.2-14.4L1120.9,215.3z M1117.9,203.4l15.5-57l21.5,6.5l-15.8,50.5l-17.2-0.9c-1,0-2,0.1-2.8,0.5
				L1117.9,203.4z M1196.1,315.3c0.1,0,0.2,0,0.4,0c1.6,0,2.8-1.2,3-2.7l2.6-24.6l9.9,2.6l-3.7,21.8c-0.2,1.7,0.9,3.2,2.6,3.5
				c0.1,0,0.4,0,0.5,0c1.5,0,2.8-1.1,3-2.6l3.5-21.2l25.8,6.8l3,15.1l1.7,8c-0.1,0.2-0.4,0.6-0.4,1l-6.7,30.4l-33.6-7.6l3.2-21.7
				c0.2-1.7-0.9-3.2-2.6-3.4c-1.7-0.2-3.2,0.9-3.4,2.6l-3.2,21.3l-17.1-3.8l4.4-18.4c0.4-1.6-0.6-3.3-2.2-3.7
				c-1.6-0.4-3.3,0.6-3.7,2.2l-4.4,18.5l-39.5-8.8l12.2-56.1l44.7,11.8l-2.7,25.6C1193.2,313.6,1194.4,315.2,1196.1,315.3z
				 M1296.6,308.5c0.2,0,0.5,0.1,0.7,0.1c1.3,0,2.7-1,2.9-2.3l6.8-29l19.4,4.4l-8.8,30.5c-0.5,1.6,0.5,3.3,2.1,3.8
				c0.2,0.1,0.6,0.1,0.9,0.1c1.3,0,2.6-0.9,2.9-2.2l8.9-30.8l11.9,2.8l-18.4,86.7l-56.8-12.8l-10.6-47.9l-2.3-11.7
				c0.5-0.2,0.9-0.7,1.1-1.3l4.3-9.1c0.1-0.2,0.1-0.5,0.2-0.7l4.3-21.1l35,8l-6.8,29C1293.9,306.4,1294.9,308.1,1296.6,308.5z
				 M1288.5,447.4l21.7-0.4l-10.7,50.8l-0.7-3.8c0-0.1,0-0.1,0-0.2L1288.5,447.4z M1287.2,441.4l-16.6-75.2l54.2,12.1l-13.3,62.8
				L1287.2,441.4z M1257.6,363.2l32.5,150.8l-74.1-16.6l30.1-136.8L1257.6,363.2z M1159.2,371.8l-27.7-5.9l2.2-10.2
				c0.4-0.4,0.7-0.9,0.9-1.5c0.1-0.6,0.1-1.3-0.1-1.8l3.4-15.8l102.3,22.8l-30.1,136.8l-101.9-22.9l22.1-101.3l27.8,5.9
				c0.2,0,0.4,0.1,0.6,0.1c1.5,0,2.7-1,2.9-2.4C1161.9,373.8,1160.8,372.2,1159.2,371.8z M1247.3,354.8l4.1-18.9l4.6,20.7
				L1247.3,354.8z M1132,335.3l-3.2,14.4l-48-11.9c-1.6-0.4-3.3,0.6-3.7,2.2c-0.4,1.6,0.6,3.3,2.2,3.7l48.3,11.9l-16.6,75.8
				l-17.6-4.4c-1.6-0.4-3.3,0.6-3.7,2.2c-0.4,1.6,0.6,3.3,2.2,3.7l17.8,4.4l-7.4,34.4l-32.8-7.3l9-45c0.1-1.3-1-2.9-2.6-3.3
				c-1.7-0.4-3.3,0.7-3.5,2.4l-9,44.7l-51.6-11.6c-0.1,0-0.1,0-0.2,0l-1.5-0.2l36.8-134.9L1132,335.3z M1010.6,457.3l9.3,2.1
				l-11.7,48.6c-0.4,1.6,0.6,3.3,2.2,3.7c0.2,0,0.5,0.1,0.7,0.1c1.3,0,2.7-1,2.9-2.3l11.7-48.8l37.9,8.5c0.4,0.4,0.9,0.6,1.3,0.6
				c0.2,0,0.4,0,0.6,0s0.5,0,0.7-0.1l34.4,7.7L1070.9,614l-99.5-21.6l10.8-40l25.4,4.5c0.1,0,0.4,0,0.5,0c1.5,0,2.7-1,3-2.6
				c0.2-1.7-0.9-3.3-2.4-3.5l-24.7-4.5l24.4-89.3L1010.6,457.3z M1023.3,693.3l29.5,4.9l-4.4,19.9L983.6,703l5.6-22.8
				c0.4-1.6-0.6-3.3-2.2-3.7c-1.6-0.4-3.3,0.6-3.7,2.2l-5.6,22.9l-18.5-4.3l7.9-29.1c0.5-1.6-0.5-3.3-2.2-3.8
				c-1.6-0.5-3.3,0.5-3.8,2.2l-8,29.3l-9.3-2.2l26.1-95.3l18.9,4.1l-5.6,20.5c-0.5,1.6,0.5,3.3,2.2,3.8c0.2,0.1,0.5,0.1,0.9,0.1
				c1.3,0,2.6-0.9,2.9-2.2l5.7-20.7l25.6,5.6l-12.2,55c-0.4,1.6,0.7,3.3,2.3,3.7c0.2,0,0.5,0.1,0.6,0.1c1.3,0,2.7-1,2.9-2.4l12.2-55
				l43.4,9.6l-15.6,71.7l-29.9-4.9c-1.7-0.2-3.2,0.9-3.5,2.6C1020.5,691.5,1021.6,693,1023.3,693.3z M989.4,752.8
				c-1.5-0.6-3.1-1-4.8-1c-6.7,0-12.2,5.5-12.2,12.2c0,3.2,1.3,6.2,3.3,8.4l-9.5,13.7l-11.5,3.8l-35.2-7.2l22.7-83.1l36.9,8.7
				l22.4,5.2l-8.2,33.5L989.4,752.8z M990.8,764c0,3.4-2.8,6.2-6.2,6.2s-6.2-2.8-6.2-6.2s2.8-6.2,6.2-6.2S990.8,760.6,990.8,764z
				 M678.7,657.1l35.3,10.5l18.4,5.5l-41.1,71.8l-21.5-5.2L678.7,657.1z M664,738l-30.4-7.6l9.1-84.1l30,8.9L664,738z M919.3,624.8
				l-32.2-9.5l25.4-82.3l32.5,8.3L919.3,624.8z M934,635.6l17.8,5.9l-13.9,50.7l-19.9-4.6L934,635.6z M792.2,568.5
				c-2.4-1.1-5.2-1.6-8-1.6c-2.6,0-5.1,0.5-7.4,1.3l-37.9-81.6l72.2,20.2l13.3,3.7L792.2,568.5z M794.3,577.1
				c2.8,2.7,4.6,6.5,4.6,10.7c0,8.2-6.6,14.7-14.7,14.7c-1.5,0-2.8-0.2-4.1-0.6L794.3,577.1z M784,573.1c1.7,0,3.4,0.4,5,0.9
				l-14.5,25.2c-3.2-2.7-5.2-6.7-5.2-11.3C769.3,579.8,775.9,573.1,784,573.1z M777,607.5c2.2,0.9,4.6,1.3,7.2,1.3
				c0.7,0,1.5,0,2.1-0.1c0,0.1,0.1,0.4,0.1,0.5l27.8,78.4l-72.5-18.3L777,607.5z M792.1,607.3c4.8-2,8.7-5.7,10.8-10.4l37.1,11
				l-21.9,72.5L792.1,607.3z M845.9,609.5l33.5,9.9L855.1,698l-33.5-8.4L845.9,609.5z M885.3,621.1l32.3,9.5l-23.7,77.2l-32.8-8.3
				L885.3,621.1z M881.3,613.5l-33.5-9.9l24.5-80.8l34.4,8.8L881.3,613.5z M841.8,602l-37.1-11c0.1-1,0.2-2.1,0.2-3
				c0-6.5-2.9-12.3-7.7-16.1l33-59.5l35.8,9L841.8,602z M827.4,505.2l-12.1-3.4l7.8-84.2l46,12.4L827.4,505.2z M809.4,500.1
				l-31.9-8.9l9-83.5l30.7,8.3L809.4,500.1z M771.5,489.5l-34.7-9.8l8.4-83.3l35.3,9.5L771.5,489.5z M771.4,571.3
				c-2.4,1.8-4.4,4.1-5.7,6.8l-37.8-10.2l7.6-74.6L771.4,571.3z M763.6,584c-0.2,1.3-0.4,2.6-0.4,3.9c0,6.8,3.3,12.9,8.4,16.7
				l-36.1,63.1l-17.3-5.1l9-88.5L763.6,584z M738.4,674.8l34.9,8.8l-21.9,78l-49.7-14.1l-4.1-1L738.4,674.8z M779.3,685L814,694
				l-23.9,78.7l-32.8-9.4L779.3,685z M819.9,695.5l33.4,8.4l-24.6,79.8l-32.7-9.3L819.9,695.5z M859.2,705.3l32.8,8.3l-24.9,80.9
				l-32.7-9.3L859.2,705.3z M887.5,786.8l25.5,0.9v15.6c0,0.4,0.1,0.9,0.2,1.2l33.9,80.6l-39,9.9h-53.9L887.5,786.8z M889.3,780.8
				l26.8-87.4l20.2,4.8l-22.8,83.4L889.3,780.8z M1075.7,621.6l38.4,8.5l-16.8,80.6l-42.5,7.2L1075.7,621.6z M953.5,635.6l-17.7-5.9
				l53.8-175.2l12.8,1.7L953.5,635.6z M946.9,535.5l-32.5-8.3l24.3-78.6l32.3,8.7L946.9,535.5z M908.4,525.8l-34.5-8.8l24-79.4
				l34.9,9.4L908.4,525.8z M868.1,515.5l-34.6-8.8l41.7-75.2l16.9,4.5L868.1,515.5z M730.2,484.4l-8.3,82.2l-32.5-8.8l8.8-82.3
				L730.2,484.4z M721.1,572.5l-8.9,88.2l-32.9-9.8l9.3-87.3L721.1,572.5z M673.5,649.3l-30.1-8.9l9.4-86.3l30,8L673.5,649.3z
				 M635.8,529.1l-38.4,2.9l0.2-1.1c0.1-0.2,0.1-0.6,0.1-0.9l-4.9-92.8l2.3-0.4c0.2,0,0.5-0.1,0.7-0.2l18.2-8.3l32.1,4.9
				L635.8,529.1z M629,773.6l6.7,5l-7.3,1.2L629,773.6z M629.7,766.6l3.2-29.9l53.9,13.3l-20.2,14.4l-22.4,11.5l-4.3-1.7
				L629.7,766.6z M669.6,769.8c0.1-0.1,0.2-0.1,0.4-0.2l23.5-16.6c0.4-0.2,0.6-0.6,0.9-1l5.7,1.5l165.3,47l-12.8,41.8l-133-35.6
				l-68-27.7L669.6,769.8z M945.7,865.8l25.1,6.8c0.2,0.1,0.5,0.1,0.9,0.1c1.3,0,2.6-0.9,2.9-2.2c0.5-1.6-0.5-3.3-2.2-3.8l-29.7-8.2
				l-23.6-56.1v-13.9l35.3,7.2c0.2,0,0.4,0.1,0.6,0.1c0.4,0,0.6,0,1-0.1l13.2-4.3c0.6-0.2,1.2-0.6,1.6-1.2l10.2-14.7
				c1.2,0.4,2.5,0.6,3.8,0.6c6.7,0,12.2-5.5,12.2-12.2c0-2.9-1-5.6-2.7-7.6l4.6-6.6c0.2-0.4,0.4-0.6,0.5-1l8.3-34.1l39.7,9.3
				l-35.1,161.4l-43.9-5.4c-0.4,0-0.7,0-1.1,0.1l-14,3.5L945.7,865.8z M1103.9,709.5l16.3-78.1l11.5,2.6l-5.9,27.3
				c-0.4,1.7,0.7,3.3,2.3,3.7c0.2,0,0.5,0.1,0.6,0.1c1.5,0,2.7-1,2.9-2.4l5.9-27.2l40,8.8l-12.1,55L1103.9,709.5z M1077.1,615.8
				l29.7-136.5l101.9,22.9l-30,136.2L1077.1,615.8z M1345.8,279.6l-28.5-6.6l13.4-65.9l16.9-1.6l13.2,3.2L1345.8,279.6z
				 M1311.3,271.8l-43.9-10.1l13.4-66.9l43.8,11.2L1311.3,271.8z M1276.1,187.1l-28.3-7.1l18.6-26.7l20.4-19.5L1276.1,187.1z
				 M1275,193.3l-18.9,94l-1.6,3.4l-17.6-88.1c0-0.1-0.1-0.4-0.1-0.5l-1.7-5.9l2.3-1.8c0.5-0.4,1-0.9,1.3-1.3l5.4-7.7L1275,193.3z
				 M1242.3,292.4l-124.2-32.9l9-44c0-0.1,0-0.4,0-0.5l75.6,3.9c1.5,0.1,2.8-0.4,4-1.2l17.8-13.5l0.4,1.1L1242.3,292.4z M1213.1,164
				l-50.7-15.2l11.1-35.2l25.6,1.7L1213.1,164z M1156.5,147l-21.7-6.6l7.9-29.3l24.4,1.8L1156.5,147z M1129.1,138.7l-38.8-11.7
				l8.4-27.2l18.5,9.3c0.4,0.1,0.7,0.2,1.1,0.4l18.4,1.3L1129.1,138.7z M1127.5,144.5l-16.8,62l-52,23.3l29.9-97L1127.5,144.5z
				 M1074,121.7l-85.1-30.1l6.9-29.6l87,31.1L1074,121.7z M1051.5,253.2l2,16.3l-49.4,180.9l-12.7-1.7L1051.5,253.2z M997.8,369.9
				l-83.3-17.7l1.3-49h12.7c0.7,0,1.3-0.2,2-0.7l12.1-10c0.6-0.5,1.1-1.3,1.1-2.2l46.2-2.3c1.1,0,2.1-0.4,2.9-1l37.7-23.5
				L997.8,369.9z M995.9,375.7l-23.3,75.8l-34.4-9.3c-0.2-0.1-0.5-0.2-0.7-0.4c-0.4-0.1-0.7-0.1-1.1-0.1l-58.3-15.6l23.2-41.8
				c0-0.1,0.1-0.1,0.1-0.2l11.7-25.8L995.9,375.7z M911.5,237.2l-89-9.8l-29.6-46.8l119.9,4.8L911.5,237.2z M914,144.2l-0.7,26.2
				c-0.2,0.4-0.4,0.9-0.4,1.3c0,0.5,0.1,0.9,0.2,1.2l-0.1,6.2l-124.1-4.8l-11.2-17.7l42.4-30.6l81.5,13.4l12.4,2.9L914,144.2z
				 M774.5,151.5l-20.1-31.7l56.6,5.4L774.5,151.5z M769.6,155l-21.7,15.7l4.1-43.4L769.6,155z M772.8,160.2l11.8,18.8l33.5,52.9
				c0.5,0.7,1.3,1.3,2.2,1.3l90.9,10l-1,36.4l-29,1.5l-75.1-28l-51.8-50.7c-1.1-1.1-2.4-1.7-4-1.7l-5.5-0.2l2.1-21.6L772.8,160.2z
				 M791.7,275.1l-42.1,29l-0.2,0.1l-21.5-6.3l5.4-38.3L791.7,275.1z M672.3,191.5l-49.6-7.3l7.7-76.1l50.5,4.8L672.3,191.5z
				 M701.5,384.6l-8.8,82.8l-29.7-8.3l8.9-82.4L701.5,384.6z M646.8,427.2l-32.7-5c-0.6-0.1-1.2,0-1.7,0.2l-18.5,8.4l-4.9-1.7
				l1.7-3.7l31-53.4l32.5-11.3L646.8,427.2z M591.7,529.8l-27.3,107.5l-17.3-2.4c-1.7-0.2-3.2,1-3.4,2.6c-0.2,1.7,1,3.2,2.6,3.4
				l17.6,2.6l-8.9,97.6l-5-0.5l-78.5-13.8l0.1-1.5l3.9-12.1l7.7-15.5l21.3,6.3c0.2,0.1,0.6,0.1,0.9,0.1c1.3,0,2.6-0.9,2.9-2.2
				c0.5-1.6-0.5-3.3-2.1-3.8l-20.4-6l10.7-21.7c0.1-0.2,0.1-0.4,0.2-0.6l11.6-44.9l18.8-85.4l31.6-43c0.1-0.1,0.2-0.4,0.4-0.6
				l25.7-57.2l2.1-0.6L591.7,529.8z M465.9,604.8l-14.4-3.2c-1.6-0.4-3.3,0.7-3.7,2.3c-0.4,1.6,0.7,3.3,2.3,3.7l11.9,2.7V622
				l-31.8,59c-0.1,0.1-0.1,0.2-0.2,0.5l-4.8,13.7l-21.6-6.3h-0.1l-10.6-2.8l21-44.1c0.1-0.4,0.2-0.6,0.2-1l5.1-47.3l14.6-18.8
				c0.2-0.4,0.5-0.7,0.6-1.2l12.7-55l73,24.1l-17.7,80.7l-0.9,3.5l-33.3-6.9v-12.4C468.3,606.1,467.4,605,465.9,604.8z M402.1,694.3
				l21.5,6.3l-28.5,95.9c-0.5,1.6,0.5,3.3,2.1,3.8c0.2,0.1,0.6,0.1,0.9,0.1c1.3,0,2.6-0.9,2.9-2.2l28.5-95.9l39.2,11.7l-3,9.6
				c-0.1,0.2-0.1,0.4-0.1,0.6l-8,75.6l-12.7,43.3l-5.9,20.4l-14.7,6.6l-7.8-29.7c-0.2-1-1-1.7-1.8-2.1l-32.9-12.4l-36.1-26.5l39-109
				h1.7L402.1,694.3z M431.3,696.5l4.5-13.2l31-57.4l33.2,6.9l-9,35l-19.9,40.5L431.3,696.5z M553.5,493.1l-31.7,43.4
				c-0.1,0.1-0.1,0.2-0.2,0.4l-93.7-31.5l-3-6.3l41.7-22.3l62-28.2l48.8-8.7L553.5,493.1z M378.4,831c0.2,0.1,0.5,0.2,0.7,0.4
				l31.8,12.1l7.2,27.1l-18.9-8.2c-0.1,0-0.1-0.1-0.2-0.1l-25.8-8.8l-5.7-11c-0.7-1.5-2.7-2.1-4.1-1.3c-1.5,0.7-2.1,2.7-1.3,4.1
				l6.3,12.1c0.4,0.7,1,1.2,1.7,1.5l26.8,9.1l20.2,8.8l-6.3,27.8l-18.3-8.8l-59-28.6l-37.1-19l21-10.5c0.7-0.4,1.2-1,1.5-1.7
				l13-38.9L378.4,831z M431.9,895l25.6-3.3c0.4,0,0.6-0.1,1-0.2l14-6.8l-1.7,15L431.9,895z M476,906.5l46.7,5.5l14.4,1.7
				l-13.8,111.4l-60-7.7L476,906.5z M523.4,906l-46.7-5.6l2.2-18.9l7.3-3.5l56.8-12.7l-5.2,42.4L523.4,906z M484.5,872
				c-0.2,0-0.5,0.1-0.7,0.2l-9.1,4.5l-18.4,9l-35.8,4.5l3-13.2l19.5-8.7c0.9-0.4,1.5-1.1,1.7-2l5.6-19.4l94.2,7.2l-0.7,4.5
				L484.5,872z M480.3,843.3l10.2-71.3c0.2-1.7-1-3.2-2.6-3.4c-1.7-0.2-3.2,1-3.4,2.6l-10.4,71.7l-22.3-1.7l11.6-39.9
				c0-0.1,0.1-0.4,0.1-0.5l7.2-67.9l78.1,13.7c0.1,0,0.1,0,0.2,0l5.2,0.5l-9,99.8l-0.1,1.3L480.3,843.3z M551.3,847.6l9-99.9
				l51.2,5.2l-10.7,99.6l-49.6-3.8L551.3,847.6z M618.1,874l40.5,12.6c0.1,0,0.1,0,0.2,0.1l8.2,1.8l-8.4,61.9l-11.6-1.6l-36.6-3.7
				L618.1,874z M660.3,880.5l-41.6-12.8l8.8-81.7l14-2.2c0.4,0,0.6-0.1,0.9-0.2l1.8-1l73,29.7c0.1,0,0.2,0.1,0.4,0.1L850.5,848
				l-17.6,57l-92-6.7L660.3,880.5z M846.4,964.6l16,40.1l-48,20l16.6-53.9c0.2,0,0.6-0.1,0.9-0.2L846.4,964.6z M962,900l-6.2-10.7
				l12.3-3.2l44.6,5.5c0.4,0.2,0.6,0.4,1.1,0.5c0.2,0,0.5,0.1,0.6,0.1c0.4,0,0.7-0.1,1.1-0.2l33,4c0.2,0,0.6,0,0.9,0l55.2-9.9
				l90.2-11l1.5,8.3l-211.6,36.8c-0.1-0.4-0.5-0.7-0.7-1.1L962,900z M1226.7,702l56.8,13v4.1l-51.3,11.2L1226.7,702z M1346.2,750
				l15.7-2.9c1.7-0.4,2.8-2,2.4-3.5c-0.4-1.7-2-2.8-3.5-2.4l-15.7,2.9l-12.1-65.5l80.3,17.7l-6.9,41.6c-0.2,1.7,0.9,3.3,2.6,3.5
				c0.1,0,0.4,0,0.5,0c1.5,0,2.8-1.1,3-2.6l6.9-41.2l53.6,11.8c0.2,0,0.5,0.1,0.6,0.1c1.3,0,2.7-1,2.9-2.4c0.4-1.6-0.7-3.3-2.3-3.7
				l-81.5-18l6.5-29.7c0.4-1.6-0.7-3.3-2.3-3.7c-1.6-0.4-3.3,0.7-3.7,2.3l-6.5,29.7l-16.2-3.5v-6.2c0-1.7-1.3-3-3-3s-3,1.3-3,3v4.9
				l-9.9-2.2l6.3-36.4h6.6c1.7,0,3-1.3,3-3s-1.3-3-3-3h-9.1c-1.5,0-2.8,1.1-3,2.6l-6.7,38.6l-16.8-3.7l-8.7-46.8l39.1-10.5
				c1-0.2,1.7-1,2.1-2l14.6-41.3c0.2-0.9,0.2-1.7-0.2-2.6c-0.5-0.9-1.2-1.3-2.1-1.5l-26.1-5.6l-7.4-6.8c-1.2-1.1-3.2-1.1-4.3,0.1
				c-1.1,1.2-1.1,3.2,0.1,4.3l4.6,4.3l8.9,47.3l-30.5,8.2l-17.7-95.6l53.8,13l14.7,4.5l45.8,17.8l-12.1,30.4l-13.2,33.4
				c-0.6,1.6,0.1,3.3,1.7,3.9c0.4,0.1,0.7,0.2,1.1,0.2c1.2,0,2.3-0.7,2.8-2l11.8-29.7l9.5,6.6l12.9,20.1c0.2,0.4,0.5,0.6,0.7,0.9
				l22.4,16.3c0.2,0.2,0.6,0.4,1,0.5l63.7,18.2l-53,62.9l-46.4,54.7l-61.8,49.2L1346.2,750z M1358.4,609.3l-7.8-41.2l21.5,4.5
				l-12.9,36.6L1358.4,609.3z M1464.9,635.3l15.6-42.5l46.2,13.8l-0.5,1.8c-0.4,1.5,0.4,3,2,3.7l23.8,8.8l-27.1,32.2
				c-0.4-0.5-0.9-0.7-1.5-1L1464.9,635.3z M1482.6,587.1l2.8-7.6l4.3-4.3l40,20.2l-1.3,5.1L1482.6,587.1z M1533,607l3.3-12.7
				c0.4-1.3-0.2-2.8-1.6-3.5l-44.1-22.4c-1.2-0.6-2.6-0.4-3.5,0.6l-5,5l-27.1-9.3l28.2-80.4l15.2-11.8l32.7,11.5l-10.5,30.4
				l-20.4-6.6c-1.6-0.5-3.3,0.4-3.8,2s0.4,3.3,2,3.8l20.2,6.5l-5,14.9c-0.5,1.6,0.4,3.3,2,3.9c0.4,0.1,0.6,0.1,1,0.1
				c1.2,0,2.4-0.9,2.9-2.1l6.1-17.8l11.1-32.8l22.7,7.9l-12.6,40.7c-0.5,1.6,0.4,3.2,1.8,3.8l47.2,18l4,2.1l-0.5,1.3l-16,23.6
				l-27.1,32.1L1533,607z M1598.3,551.3c-0.1,0-0.2-0.1-0.2-0.1l-44.6-17.1l11.7-37.8l52.2,18.4l-15.4,38.4L1598.3,551.3z
				 M1470.3,250c-0.1,0.2-0.2,0.5-0.2,0.9l-11.5,54.7l-106.9-24.5l15-70.9l85.1,20.5L1470.3,250z M1444.1,222.5l-76.1-18.4
				l10.7-50.3L1444.1,222.5z M1373.6,148.4l-11.5,54.2l-13.4-3.3c-0.4-0.1-0.7-0.1-1-0.1l-8.8,0.9l14.6-73L1373.6,148.4z M1325,97.5
				l23.3,24.4l-15.8,79l-2.1,0.2l-48.3-12.3l12.4-62.2L1325,97.5L1325,97.5z M1316.7,88.6c-0.1,0-0.1,0.1-0.2,0.1l-58.8,56.2
				c-0.2,0.2-0.6,0.6-0.7,0.9l-25.7,36.7v-0.1l18.6-32.9l41.7-41.6l22.3-22.3L1316.7,88.6z M1309.6,81.3l-20.2,20.1l-31.2-31.7
				l22.4-19L1309.6,81.3z M1245.4,13.6l31.1,32.7l-22.6,19.1l-31.3-31.8L1245.4,13.6z M1218,37.6l31.3,31.8l-40.7,34.5l-13.3-46.3
				L1218,37.6z M1183.3,60.3l13.9,48.8l-25.8-1.7l-26.9-2.1l13-48.3l4.3,1.2c0.1,0,0.4,0.1,0.6,0.1L1183.3,60.3z M1126.3,9.6
				l45.2,9.9l9.9,34.5l-18.3-1.7l-45.8-13.2L1126.3,9.6z M1115.6,44.9l36.1,10.4l-13.4,49.5l-19-1.5l-18.8-9.4L1115.6,44.9z
				 M1100.3,36.3l-15.7,51L997.2,56l10.2-43.9L1100.3,36.3z M1003.1,3.4l-11.2,48.2l-17.3-17.8c2-6,1.8-11.8-0.9-16.9
				c-0.6-1.1-1.2-2.1-2.1-3L1003.1,3.4z M947.6,62.1c11.2-6,19.7-13.9,24.4-22.1l18.4,18.9l-7.2,30.6l-29.1-10.2l-27.3-9.6
				C933.3,68.5,940.3,66,947.6,62.1z M921.9,74.3l27.5,9.8l-11.9,71.2l-17.4-12.6L921.9,74.3z M919.9,150l21.5,15.5l-5,3.2h-16.9
				L919.9,150z M919.2,174.8h17.9c0.6,0,1.1-0.1,1.6-0.5l7.9-5l75.9,54.7c0.1,0.1,0.4,0.2,0.5,0.2l16.9,7.9l-2.4,7.8l-29,7.7
				l-91.1-10L919.2,174.8z M917.5,244l91.1,10c0.1,0,0.2,0,0.4,0s0.5,0,0.7-0.1l23.2-6.2L987.8,276l-71.2,3.5L917.5,244z M916,291.5
				l19.4-0.9l-7.9,6.5h-11.6L916,291.5z M914.2,136.1l-11.3-2.7c-0.1,0-0.1,0-0.2,0L827.1,121L893,73.2l19.7-2.1l3.2,1.1
				L914.2,136.1z M830.1,2.3l85.7,4.5v12.9c-6.9,4.6-12.3,10.1-15.8,15.8l-73.3-7.3L830.1,2.3z M825.6,34.3l71.3,7.1
				c-2.2,6.3-2,12.6,0.9,17.9c1.5,2.7,3.4,4.9,5.7,6.6l-12.1,1.3c-0.5,0-1,0.2-1.5,0.6l-3.2,2.3l-65-7.9L825.6,34.3z M821.2,68.1
				l58.5,7.2l-59.1,42.8l-4.8-10.5L821.2,68.1z M762.8,27.9l56.9,5.7l-3.8,27.8l-56.2-6.8L762.8,27.9z M759.3,60.4l56.1,6.8
				l-5.6,40.5c-0.1,0.5,0,1.1,0.2,1.6l4.5,9.9l-61.2-5.7L759.3,60.4z M706.7,54.1l46.3,5.7l-6,53.1l-46.2-4.4L706.7,54.1z
				 M700.2,114.5l46.7,4.5c0,0.1,0.1,0.1,0.1,0.2c-0.2,0.4-0.4,0.7-0.4,1.1l-5.4,55.1L709,198.7l-17.9-0.7L700.2,114.5z
				 M689.8,210.2l44.1,2l-3.3,23.3l-43-4.5L689.8,210.2z M636.7,45.8l50.7,6l-6,55l-50.5-4.8L636.7,45.8z M589.1,38.5l41.3,6.6h0.1
				h0.1l-5.7,56.3l-41.3-3.9c-0.1,0-0.4,0-0.5,0L589.1,38.5z M582.4,103.6c0.1,0,0.4,0.1,0.5,0.1l41.3,3.9l-7.7,75.8l-19.5-2.9
				l-19.4-30.1L582.4,103.6z M576.7,160l16.1,24.7c0.5,0.7,1.2,1.2,2.1,1.3l76.8,11.5l-1.1,10.1l-55.7-6.9l-38.4-14.9
				c-0.1-1.2-0.9-2.2-2.1-2.7L576.7,160z M573.5,191.3l39.5,15.4c0.2,0.1,0.5,0.1,0.7,0.1l56.2,7.1l-1.6,15.1l-97.4-10.4h-0.1h-0.2
				L573.5,191.3z M567.6,245.6c0.4-0.9,0.6-1.8,0.7-2.8l1.8-18.2h0.2l97.1,10.2l-4.9,45.5l-42.9-3.8l-0.1-2.9
				c-0.1-1.7-1.6-2.9-3.3-2.8s-2.9,1.6-2.8,3.3l0.1,1.8l-56.7-5.1L567.6,245.6z M536.2,93.7l27.4,1.2l-7.4,74.4l-22.3-6L536.2,93.7z
				 M555.6,175.4l-0.2,2.4l-13.5-3.8l-0.5-2.4L555.6,175.4z M554.6,184.1l-3.3,33.2l-68.9-4.8l-0.5-8.5l4.1-33.5l9,3
				c0.5,0.2,1.1,0.2,1.7,0.1l11.2-2.7L554.6,184.1z M346.1,471.9l9.9,8.7l-20,16.1l-43.5-37.3l17.8-19.1l34.1-1.2L324,464
				c-1.1,1.3-0.9,3.2,0.5,4.3c0.6,0.5,1.2,0.7,2,0.7c0.9,0,1.7-0.4,2.3-1.1l24.6-30.1c0.7-1,0.9-2.2,0.4-3.3
				c-0.5-1.1-1.6-1.7-2.8-1.7l-34.7,1.3l21.5-23.2c1.1-1.2,1.1-3.2-0.1-4.3c-1.2-1.1-3.2-1.1-4.3,0.1l-25.6,27.5l-29.1,1.1
				l31.2-35.2c1.1-1.2,1-3.2-0.2-4.3c-1.2-1.1-3.2-1-4.3,0.2l-35.5,39.6l-5.2,0.2l-41.3-35.2c-0.4-0.4-1-0.6-1.5-0.7l-17.7-2.8
				l6.2-14.7l18.4-39.7l100.8-24.6l9.4,56.8c0.1,0.5,0.2,1,0.6,1.3l55.7,70.3l-12.2,12.1l-22.3,18l-10.7-9.3c-1.2-1.1-3.2-1-4.3,0.2
				S344.9,470.8,346.1,471.9z M287.7,455.3l-15.5-13.2l0.5-0.6l28.9-1.1L287.7,455.3z M437.4,324.1l-58.6,12.2l-5.2-28.9l57.7-14
				L437.4,324.1z M419.8,206.4v-4.1l56.2,4.4l3.9,68.5l-44,10.7L419.8,206.4z M437.1,291.9l43.1-10.5l0.1,2.4l1.8,31l-38.9,8
				L437.1,291.9z M476.1,200.7l-59.2-4.6c-0.9-0.1-1.7,0.2-2.3,0.9s-1,1.3-1,2.2v7.7c0,0.2,0,0.4,0,0.6l16.2,80L407,293l-10.2-38.2
				c-0.5-1.6-2.1-2.6-3.8-2.2c-1.6,0.5-2.6,2.1-2.2,3.8l10.1,38l-28.9,7.1l0.2-0.6l-26.7-120.5l79.6-18.6l41.8,2.4l13.2,4.5
				L476.1,200.7z M372.8,337.4l-32.7,6.7l-4.6-27.7l32.1-7.7L372.8,337.4z M344.9,372.9l-3.8-22.7l34.1-7.1l58.6,65.5l-34.1,33.5
				L344.9,372.9z M382.2,341.7l56.6-11.7l7.4,36.8c0.2,1.5,1.6,2.4,2.9,2.4c0.2,0,0.4,0,0.6-0.1c1.7-0.4,2.7-2,2.4-3.5l-7.4-36.8
				l38-7.9l1.2,19.6c0,0.6,0.2,1.2,0.6,1.7l7.4,9.1l-53.8,52.9L382.2,341.7z M489.9,339.3l-3.4-55.7l-0.2-3.5l51-12.4l-27.9,66.8
				l-12.9,12.8L489.9,339.3z M485.9,273.8l-3.2-55.1l67.9,4.6l-1.6,16.1l-8.9,21.2c-0.2,0-0.4,0-0.6,0.1L485.9,273.8z M505,92.4h1
				l24.3,1.1l-2.3,68.3l-28.8-7.7L505,92.4z M474.8,54.3l27.4,2.8L499.4,87l-27.8,3.4L474.8,54.3z M498.7,93.2l-5.6,59.4l-26.3-7.1
				l4.3-48.9L498.7,93.2z M449,51.6l19.7,2.1l-3.3,37.5l-20.8,2.6L449,51.6z M464.9,97.4l-4.1,46.4l-18.6-4.8
				c-0.2-0.1-0.6-0.1-0.9-0.1h-1.5l4.1-38.9L464.9,97.4z M423.7,49.1l19.3,2l-4.6,43.6L419.6,97L423.7,49.1z M437.7,100.9l-4,38.2
				l-17.8,0.5l3.2-36.3L437.7,100.9z M395.8,46.3l21.8,2.2l-4.3,49.2l-21.3,2.7L395.8,46.3z M413,103.9l-3.2,35.7l-21,0.5
				c0.2-0.5,0.5-1,0.5-1.5l2.3-32.1L413,103.9z M379.2,44.6l10.5,1.1l-3.9,55.6l-2.8,0.4l-7.9-0.6L379.2,44.6z M382.8,107.7
				c0.1,0,0.1,0,0.2,0s0.2,0,0.4,0l2-0.2l-2.2,30.8c0,0.7,0.2,1.5,0.7,2.1l-12.4,0.4c0.5-0.5,0.9-1.2,0.9-2l2.3-31.7L382.8,107.7z
				 M314.5,38l58.5,6l-4,56.6l-56.8-4.5L314.5,38z M310.9,129.8c0-0.2,0.1-0.5,0.1-0.7l1.1-26.8l56.6,4.4l-2.3,31.7
				c-0.1,1,0.4,1.8,1,2.4l-59.2,1.5L310.9,129.8z M3.9,70.4l6-57l55.7,3.4L58,75.1L3.9,70.4z M64.1,75.7l7.6-58.6l55.5,3.4
				c0,0.1,0,0.2-0.1,0.4l-6.5,59.6L64.1,75.7z M188.4,26.5l-4.9,59.4L126.6,81l6.5-59.5c0-0.1,0-0.4,0-0.5l55.5,5.1
				C188.5,26.3,188.4,26.4,188.4,26.5z M252.1,32.3l-3.9,59.2l-58.6-5l4.9-59.5c0-0.1,0-0.2,0-0.4l57.8,5.2
				C252.2,32,252.2,32.1,252.1,32.3z M254.4,92l3.9-59.2c0-0.1,0-0.1,0-0.2l23.4,2.2v29.1c0,1.7,1.3,3,3,3s3-1.3,3-3V35.2l18.3,1.7
				l-2.3,58.6L254.4,92z M292.1,175.7l-4,18.6l-0.6,1.3L292.1,175.7z M295.9,197.5c0.1-0.2,0.2-0.6,0.2-0.9l0.9-4.1l25.4-6.9l17.3-4
				L366.3,302l0.1,0.9l-19.5,4.8l-12-52.7c-0.4-1.6-2-2.7-3.7-2.3c-1.6,0.4-2.7,2-2.3,3.7l11.9,52.8l-6.8,1.7l-9.5-32.7
				c-0.5-1.6-2.2-2.6-3.8-2.1s-2.6,2.2-2.1,3.8l9.4,32.4l-96.1,23.3l17.6-37.7c0.4-0.5,0.7-1.1,0.7-1.7L295.9,197.5z M13.9,234.7
				l3.5-11.6l25.5,5c0.2,0,0.4,0,0.6,0l22.2-0.4v28H47c-1.7,0-3,1.3-3,3s1.3,3,3,3h21.8c0.9,0,1.6-0.4,2.2-0.9
				c0.6-0.6,0.9-1.3,0.9-2.2v-31.2l202.1-2.9l-31.6,68.3l-43.1,1v-35.1c0-1.7-1.3-3-3-3s-3,1.3-3,3v35.4l-34.6,0.9v-26.2
				c0-1.7-1.3-3-3-3s-3,1.3-3,3v26.5l-136.8,3L13.9,234.7z M48.1,397l-29,1.1l-2.9-93.7l49.6-1.2v43.1c0,1.7,1.3,3,3,3s3-1.3,3-3
				v-43.4l63.9-1.5v34.3c0,1.7,1.3,3,3,3s3-1.3,3-3v-34.4l97.6-2.2l-43.8,95.8L48.1,397z M62.7,513.8v-111l130.5-1.7l-17.9,42.7
				l-69.7-4.3c-0.9,0-1.7,0.2-2.3,0.9s-1,1.3-1,2.2v26.9c0,1.6,1.2,2.9,2.8,3l56.2,4.4l-17.2,41L62.7,513.8z M173,449.6l-9,21.3
				l-55.3-4.4v-20.8L173,449.6z M148.7,529.3l15.7-37.7l37.2,29.9c0.6,0.5,1.2,0.6,2,0.6c0.9,0,1.8-0.4,2.4-1.1
				c1.1-1.3,0.9-3.3-0.5-4.3l-38.5-31l7.6-18l49.5,41.8c0.6,0.5,1.2,0.7,2,0.7c0.9,0,1.7-0.4,2.3-1.1c1.1-1.3,1-3.2-0.4-4.3
				l-51-43.1l6-14.4l14.5,8.8c0.5,0.2,1,0.5,1.6,0.5c1,0,2.1-0.5,2.6-1.5c0.9-1.5,0.4-3.3-1.1-4.1l-15.4-9.3l16.5-39.4
				c0.4,0.2,0.7,0.5,1.2,0.5l16.9,2.7l41.4,35.3l22.5,19l-31.4,38.3c-1.1,1.3-0.9,3.2,0.4,4.3c0.6,0.5,1.2,0.7,2,0.7
				c0.9,0,1.7-0.4,2.3-1.1l31.4-38.2l14.6,12.4l-28.6,36.1c-1.1,1.3-0.9,3.3,0.5,4.3c0.6,0.5,1.2,0.6,2,0.6c0.9,0,1.8-0.4,2.4-1.1
				l28.5-36l23.5,20l-33.2,26.7l-160.2,66c-1.6,0.7-3,1.8-4.1,3.2l-5.1,6.8L148.7,529.3z M147.9,609.8l159-65.3
				c0.9-0.4,1.7-0.9,2.4-1.5l86.3-69.8c0.2-0.2,0.5-0.4,0.7-0.6l128-125.7c1-0.9,1.7-2,2.2-3.2l28.2-67.3c0.4,0.2,0.7,0.4,1.2,0.4
				l58.4,5.2l2.2,24.7c0.1,1.6,1.5,2.8,3,2.8h40.1l-4.7,44.5l-36.3,12.7c-0.7,0.2-1.2,0.7-1.6,1.3l-31.6,54.5c0,0.1-0.1,0.1-0.1,0.2
				l-4.6,10.5l-48.5,8.5l-38.8-41c-1.1-1.2-3-1.3-4.3-0.1c-1.2,1.1-1.3,3-0.1,4.3l36.1,38.4l-61.3,27.8c0,0-0.1,0-0.1,0.1
				l-43.3,23.2c-0.4,0-0.6,0.1-1,0.2c-0.4,0.2-0.7,0.5-1.1,0.9l-39,21c-0.1,0.1-0.2,0.1-0.4,0.2l-76.5,55.6l-96,36.6L143.6,635
				l-20.2,7.6L147.9,609.8z M45,640.6l16.9-4.3l36.1-6.6l5.9,6.2L91.8,652L45,640.6z M76.7,705.3l40-53.6l26.8-10l9.4,13.9
				c0.1,0.1,0.1,0.2,0.2,0.4l8.4,9.3l4.1,25.1l-4,12.8l-8.7,11.1c-0.2,0.4-0.5,0.7-0.6,1.1l-4.6,17.2c-0.5,1.6,0.5,3.3,2.2,3.8
				c0.2,0.1,0.5,0.1,0.7,0.1c1.3,0,2.6-0.9,2.9-2.3l4.4-16.6l8.7-11c0.2-0.2,0.4-0.6,0.5-1l4.4-14c0.1-0.5,0.1-1,0.1-1.5l-4.4-26.7
				c-0.1-0.6-0.4-1.1-0.7-1.6l-8.9-9.8l-8.5-12.6l59.4-24.9l34.5-13l6.8,53.1c0.1,1.2,1.1,2.3,2.3,2.6l9.1,2.3l-12.8,52.4
				c-1.3,5.4,2,10.8,7.3,12.3l39.2,10.4c1.3,0.4,2.6,1.2,3.2,2.4c0.7,1.2,0.9,2.7,0.5,4l-8.2,30l-85.2-19c-0.2,0-0.4-0.1-0.6-0.1
				l-17.9-0.5l2.6-26.6c0.1-1.7-1.1-3.2-2.7-3.3c-1.7-0.1-3.2,1.1-3.3,2.7l-2.6,26.9l-45.2-1.3v-13.3c0-1.7-1.3-3-3-3s-3,1.3-3,3v13
				l-65.2-2L76.7,705.3z M23.9,893c-0.5,0-1.1,0.2-1.5,0.5l2.9-13.5l36.9-126.2l24.3,0.7L58.1,891.5L23.9,893z M204.9,819.1h47.8
				c1.7,0,3-1.3,3-3s-1.3-3-3-3H244l2-19c0.1-1.2-0.6-2.6-1.7-3l-7.2-3.4c-0.4-0.1-0.7-0.2-1.2-0.2l-74.6-3.4
				c-1.7-0.1-3,1.2-3.2,2.9c-0.1,1.7,1.2,3,2.9,3.2l2.7,0.1l-4.8,18.9l-26.5-2.7c-1.7-0.1-3.2,1.1-3.3,2.7c-0.1,1.7,1.1,3.2,2.7,3.3
				l27.4,2.8c0.4,0.2,0.7,0.5,1.2,0.6c0.2,0.1,0.5,0.1,0.7,0.1c0.5,0,1-0.1,1.5-0.4l35.7,3.5l8.4,22.2l-17.9-2.3l-15.1-5.9
				c-2.9-1.2-6.1-1.7-9.1-1.2l-13.4,2.2c-0.5,0.1-1,0.4-1.5,0.6l-25.2,20.8l-30.1,6.3c-0.7,0.1-1.3,0.6-1.8,1.1L71.2,891l-6.9,0.4
				L79.4,819h6.9l35.1,27.4c0.6,0.5,1.2,0.6,1.8,0.6c0.9,0,1.8-0.4,2.4-1.2c1.1-1.3,0.9-3.3-0.5-4.3l-36-28
				c-0.5-0.4-1.2-0.6-1.8-0.6h-6.7l12.1-58l111.5,3.3l97.1,21.7l16.9,7.2l8.4,6.2l-13.4,39.5L288.9,845l-52.5-12.3
				c-0.6-0.1-1.2-0.1-1.8,0.1L213,841L204.9,819.1z M204,812.8l1.2-21.1l30.1,1.3l4.6,2.2l-1.8,17.6H204z M199,791.5l-1.2,21.1
				l-32.4-3.3l4.8-19.1L199,791.5z M216.4,846l19.7-7.4l52.4,12.3l42.2,21.7l59.1,28.6l19.6,9.4l-0.5,2L387,906l-35.3-15
				c-0.1,0-0.1,0-0.2-0.1l-30.4-10.4c-0.1,0-0.1,0-0.2,0s-0.1,0-0.2-0.1l-90.9-17.8l-1.8-0.4L216.4,846z M181.6,859.6l44.4,8.7v11
				l-6.1,26.7l-47.7-11.2L181.6,859.6z M153.2,862.3l22.2-2.7l-32.5,121l-21.1-2.9L153.2,862.3z M57.3,945.3l7.8-39.9l28.8-7.4
				l-13.8,56.4L57.3,945.3z M98.5,1038.7l-30.8-7.9l16.6-68l7.4,2.9c0.1,0,0.2,0.1,0.4,0.1l24.7,6.1l-2.1,7.4L98.5,1038.7z
				 M174.5,1057.8l-69.8-17.7l15.5-56.7l24.5,3.4c1.5,0.2,2.9-0.7,3.4-2.2l8.9-33.2l49.7,11.7l-12.4,54.1l-12.8,11.8
				c-0.9,0.7-1.2,2-0.9,3l4.6,17.7L174.5,1057.8z M190.5,1045.9l-3.7-13.5l10.5-9.8l13.9,8L190.5,1045.9z M282.1,1040.8l-62.5-14.1
				c-1-0.2-2-0.1-2.8,0.2l-16.3-9.5l12.2-52.8l82.2,19.3L282.1,1040.8z M287.9,1042.2l12.6-56.9l86.9,20.4l-12.9,56.2L287.9,1042.2z
				 M430.5,1074.8l-50.1-11.5l10.4-45.2l64.4,4.8L430.5,1074.8z M469.6,1083.6l-32.8-7.4l25-52.7l60.8,7.7l-7.4,60.3L469.6,1083.6z
				 M546.7,1097l-25.6-4.5l7.4-60.7l52.2,6.6l-0.2,2.6c-0.1,1-0.1,2,0.1,2.8l5.6,29.3L546.7,1097z M581.4,1032.5l-52-6.6l13.7-111.5
				l50.5,6L581.4,1032.5z M543.9,908.1l6.6-53.3l49.7,3.8l-6,55.5L543.9,908.1z M617.8,1042.4c-0.6,0.2-1.2,0.6-1.7,1.1l-13.2,13.2
				l-2.9-14.9l9.8-90.6l36.6,3.7l11.7,1.3l-7.2,73.7L617.8,1042.4z M657.1,1027.6l6.8-70.6l137.6,16.2L657.1,1027.6z M664.8,951
				l8.2-61.4l67,14.7c0.1,0,0.2,0,0.5,0.1l90.9,6.7l-17.7,57.5L664.8,951z M815.1,1034.6c-1.1-0.6-2.3-0.9-3.5-0.9l0.4-1.3
				l52.7-21.9l24.5,61.6L815.1,1034.6z M919.7,1074.8l-12.8,6.1l-9.5-4.8c0-0.1-0.1-0.4-0.1-0.5l-26.9-67.4l38.4-16l21.1,48
				L919.7,1074.8z M1197.4,996.5c-0.7,0.7-1.5,1.6-1.8,2.6l-11,26.6l-25.7,3.3l-0.7-36.7c0-0.6-0.2-1.3-0.6-1.8l-6.5-8.2
				c-1.1-1.3-2.9-1.6-4.3-0.5c-1.3,1.1-1.6,2.9-0.5,4.3l5.9,7.3l0.7,36.1l-31.7,1.7v-12.4l9.8-13.5c1-1.3,0.7-3.3-0.7-4.3
				c-1.3-1-3.3-0.7-4.3,0.7l-10.4,14.3c-0.4,0.5-0.6,1.1-0.6,1.8v13.8l-15.4,0.9l2.8-36c0.1-1.7-1.1-3.2-2.8-3.3
				c-1.7-0.1-3.2,1.1-3.3,2.8l-2.9,37.5l-75.1,15.4c-0.1,0-0.1,0-0.2,0l-91.2,23.2l12.6-42.9l26.6-32.8c0.1-0.1,0.2-0.4,0.4-0.6
				l18.9-39c0.2-0.5,0.4-0.9,0.4-1.3l-0.5-25.2l154.2-26.8l2.6,40.1c0.1,1.6,1.5,2.8,3,2.8c0.1,0,0.1,0,0.2,0
				c1.7-0.1,2.9-1.6,2.8-3.3l-2.6-40.7l15.1-2.7l4.4,38.4c0.1,1.6,1.5,2.7,3,2.7c0.1,0,0.2,0,0.4,0c1.7-0.2,2.9-1.7,2.7-3.4
				l-4.5-38.6l31.3-5.5l15.4,89.1L1197.4,996.5z M1200.3,1025.8l8.2-19.5l126.2-115.1c0.5-0.5,1-1.1,1.3-1.7l2.2-3.7
				c0.6,0.5,1.3,0.9,2.1,1l12.1,3.3l-67.9,60.6c-0.1,0.1-0.2,0.2-0.4,0.4l-60.3,75.6L1200.3,1025.8z M1359.5,892l16.1,4.4
				l-19.5,73.9l-66.8-15.6L1359.5,892z M1344.8,1012.5l-37.9-0.2c-0.2,0-0.6,0-0.9,0.1l-69.2,14.6l-5.5-0.2l53.5-67l69.6,16.2
				L1344.8,1012.5z M1447,985.3l-3.8,27.9l-92.1-0.6L1379,907l84.7,23.9l-16.7,54C1447,985,1447,985.3,1447,985.3z M1380.6,901.1
				l0.9-3.2l85.4,23l-1.3,4L1380.6,901.1z M1492.9,1014l-10.8-0.4l-32.7-0.2l3.7-26.9l16.6-53.6l34.1,13.3l4.1,2.6l-13.2,34.4
				c-0.2,0.6-0.2,1.3,0,2.1l3.7,11.1L1492.9,1014z M1471.4,927l1.3-4.5l32.5,8.8c0.5,0.1,1.1,0.2,1.6,0.2h7.6l-4.3,11.3l-3.4-2.1
				c-0.1-0.1-0.4-0.1-0.5-0.2L1471.4,927z M1567,1016.8l-67.8-2.6l5.2-17.2c0.2-0.6,0.1-1.2,0-1.8l-3.7-11l12.3-32.3l7.6,4.6
				l10.6,14c0.4,0.5,0.9,0.9,1.5,1.1l40,13.9L1567,1016.8z M1535.5,965.8l-10.4-13.7c-0.2-0.4-0.5-0.6-0.9-0.7l-9-5.5l5.6-14.5h24.6
				l34.7,13l-6.5,34.6L1535.5,965.8z M1707.1,982.8l-4.4,23.3V996c0-1.1-0.6-2.2-1.7-2.7l-10.8-5.6l15.2-49.5
				c0.5-1.6-0.4-3.2-1.8-3.8l-8.4-3h80.8l-37.3,90.8h-2.4l-2.8-15.4v-15.5L1707.1,982.8z M1696.5,998v22.9l-73.6-2.6l16-50
				L1696.5,998z M1698.7,939.3l-14,45.7l-56.3-28.9c-0.1,0-0.2-0.1-0.4-0.1l-65.1-24.5h114.3L1698.7,939.3z M1573.1,1016.8l12.9-70
				l39.6,14.9l7.7,3.9l-16.8,52.7L1573.1,1016.8z M1651.6,1076.7l-42.5-14.9l8.4-33.5c1.1,0,2.1-0.6,2.6-1.5l45.7,1.6L1651.6,1076.7
				z M1731.7,1077l-16.9-5.6c-0.6-0.2-1.2-0.2-1.8,0l-9.9,2.9l-8.2,0.1c-1,0-1.8,0.4-2.3,1.1l-6.3,7.8l-28.8-5.2l14.5-49.6l82.9,2.8
				l2.8,1.3l-11.8,14.6c-0.1,0.2-0.2,0.4-0.4,0.6L1731.7,1077z M1790.2,1093.8l-52.7-15l13.3-27.8l12.4-15.5l45.2,22.2
				L1790.2,1093.8z M1811,1052.1l-41.2-20.2l31.8,1.1c0.4,0.2,0.9,0.5,1.3,0.5c0.1,0,0.2,0,0.4,0c0.6,0,1.1-0.1,1.6-0.5l12.7,0.5
				L1811,1052.1z M1904,1036.6l-9.6,43.5l-58.4-15.7l-19.5-9.5l7.4-21.1l23.9,0.9c0.1,0,0.2,0.1,0.5,0.1c0.2,0.1,0.5,0.1,0.7,0.1
				c0.4,0,0.7-0.1,1-0.1L1904,1036.6z M1847.3,1026l-40.1-1.3l5.9-46.1l29,2.1l15.6,3.8L1847.3,1026z M1859.1,978.5l-15.8-3.9
				c-0.1,0-0.4-0.1-0.5-0.1l-32.1-2.3c-1.6-0.1-3,1.1-3.3,2.7l-6.3,49.5l-56.1-2l40.7-99.1l81.8,21.8L1859.1,978.5z M1868.8,939.3
				l-80.9-21.6l17.8-43.3l74.6,18.8L1868.8,939.3z M1881.8,887.3l-73.7-18.6l19.5-47.4l66.3,17.9L1881.8,887.3z M1906.8,787.5
				l-11.5,46l-65.5-17.7l18.2-44.2L1906.8,787.5z M1857.6,660.5c0.1,0.2,0.2,0.4,0.5,0.6l19.4,22.1l-75.8,184.8
				c-0.6,0.4-1.2,1.1-1.3,1.8c-0.1,0.5-0.1,1,0,1.5l-20,48.6c-0.9-0.5-1.8-0.7-2.9-0.7h-269.9l-124.4-33.5l51.7-72.5l23.2-3
				l124.7,44.6c0.1,0,0.4,0.1,0.5,0.1l27.9,5.2l172.4,32.2c0.2,0,0.4,0,0.6,0c1.2,0,2.3-0.7,2.8-2l62.4-156.8
				c0.5-1.2,0.1-2.6-0.9-3.4l-38.2-33.4l14.4-26.6c0.7-1.2,0.4-2.8-0.7-3.8l-14-12.3l16.1-24.5c0.7-1.1,0.6-2.6-0.2-3.7l-6.6-8
				c-0.5-0.6-1.2-1-2-1.1l-180.4-22.4c-1-0.1-2,0.2-2.6,1l-92.4,96.4l-0.1,0.1c0,0,0,0,0,0.1c0,0,0,0-0.1,0.1l-85,112.4l-23.9,3.2
				c-0.9,0.1-1.6,0.6-2.1,1.2l-53.8,75.5l-32.5-8.8l22.7-38l64.2-51.3c0.4-0.2,0.7-0.6,1-1l46.9-55.2L1594.6,593
				c0.1-0.2,0.4-0.4,0.5-0.6l16.6-24.6c0.2-0.5,0.5-0.9,0.7-1.3l0.6-1.7l30.4,18.4c0.4,0.2,0.9,0.4,1.2,0.4l126.9,14.1l51.7,6.1
				L1857.6,660.5z M1803.6,657.3l14.3,12.4l-7.9,14.6l-54.9-14.3l35.5-50.1l24.4,3l4.4,5.4l-16.2,24.7
				C1802.3,654.5,1802.4,656.3,1803.6,657.3z M1704.8,730.5l-35.6-7.3l41.4-56.4l15.8,2.2l18.5,4.9L1704.8,730.5z M1751.2,675.3
				l30.6,7.9l-12.4,21.3l-24.9,35.2l-33.4-7.8L1751.2,675.3z M1701,736l-42.1,59.2l-35.6-9.5l41.9-57.2L1701,736z M1655.3,800.3
				l-16.5,23.3l-28.2,30.1l-26.2-4.8l-6-2.2l41.1-55.9L1655.3,800.3z M1643.2,827.8c0.1-0.1,0.1-0.2,0.2-0.4l17.9-25.4l139,37.3
				l-18.5,46.6l-164.4-30.7L1643.2,827.8z M1665.2,797l42.2-59.5l122.1,29l-26.8,67.3L1665.2,797z M1750.9,741.3l23.5-33.4
				c0-0.1,0.1-0.1,0.1-0.2l13.4-22.9l19,5l-3.4,6.3c-0.7,1.2-0.4,2.8,0.7,3.8l38.4,33.5l-10.8,27.2L1750.9,741.3z M1748.8,668.5
				l-21-5.5c-0.1,0-0.2,0-0.4-0.1l-12.7-1.7l34.1-46.4l34.9,4.4L1748.8,668.5z M1707.8,660.3l-61.2-8.3l-48.1-10.7l39-40.7
				l104.3,13.3L1707.8,660.3z M1645.4,658c0.1,0,0.1,0,0.2,0l58,7.9l-41.6,56.7c-0.2-0.1-0.5-0.2-0.9-0.4l-43.1-9.3l-68.5-20.7
				l44-45.8L1645.4,658z M1616.7,718.8c0.1,0,0.1,0,0.2,0.1l41.4,8.9l-41.2,56.2l-114.2-30.6l42.3-56.2L1616.7,718.8z M1613.1,789.3
				l-40.6,55.3l-0.1,0.1l-109.2-39.1l35.6-46.9L1613.1,789.3z M1819.4,597.3l-44.9-5.4L1769,564l29.3-4.5L1819.4,597.3z M1807.1,558
				l15.1-3.4l9.9,46.6h-0.5l-3.9-6.3L1807.1,558z M1909.3,588.8l-34,7.2l-37.2,4.3l-10-47.3l70.6-16.1L1909.3,588.8z M1889.1,490.4
				l8.3,40.7l-70.6,16.1l-13.2-62L1889.1,490.4z M1807.4,484.6l13.5,63.9l-16.9,3.9l-39.5-70.8L1807.4,484.6z M1754.9,479.4
				c-0.4,1-0.2,2.2,0.4,3.3l39.9,71.4l-26.7,4.1l-0.6-0.4l-15.6-80.1L1754.9,479.4z M1761.1,555.3l-74.1-7.6
				c-1.7-0.2-3.2,1.1-3.3,2.7c-0.1,1.7,1.1,3.2,2.7,3.3l75.9,7.8l5.7,29.6l-122.1-13.6l-30.7-18.6l36.7-92l14.1,9.1v21.6
				c0,1.7,1.3,3,3,3s3-1.3,3-3v-23.3c0-1-0.5-2-1.3-2.6l-16.6-10.7l13.3-33.4l77.6,45.8L1761.1,555.3z M1734.5,443.6l-58.3-38
				l1.5-3.7l14.3-30L1734.5,443.6z M1748.9,219.1c-0.2,0.4-0.4,0.6-0.6,1l-38.9,81.4c0-1-0.5-2.1-1.3-2.7l-17.2-11.2l-10.4-15.8
				c-1-1.5-2.8-1.8-4.3-0.9c-1.5,1-1.8,2.8-0.9,4.3l4.4,6.7l-9.1,8.2c-1.2,1.1-1.3,3-0.2,4.3c0.6,0.7,1.5,1,2.3,1
				c0.7,0,1.5-0.2,2.1-0.7l8.5-7.6l2.9,4.5c0.2,0.4,0.5,0.6,0.9,0.9l17.8,11.6c0.5,0.4,1.1,0.5,1.7,0.5c0.7,0,1.5-0.2,2-0.7
				l-22.2,46.7l-62.4-89.3l26.3-24.1l19.7,28.3c0.6,0.9,1.5,1.3,2.4,1.3s1.8-0.5,2.4-1.2l46-61.3c0.1-0.2,0.4-0.5,0.4-0.7l8.2-21.7
				l35,12.9c0.4,0.1,0.7,0.2,1.1,0.2c0.1,0,0.1,0,0.2,0L1748.9,219.1z M1767.6,189.3c-0.2-0.2-0.6-0.5-1-0.6l-35.5-13l13-53.9
				l36.7,8.8L1767.6,189.3z"/>
		</g>
	</g>
	<g>
		<path d="M947.5,522.8h-6.2l-1.3,3h-1.2l5.1-11.2h1.2l5.1,11.2H949L947.5,522.8z M947.1,521.8l-2.7-6l-2.7,6H947.1z"/>
		<path d="M963.1,526.6c-0.3,0.4-0.7,0.7-1.2,1c-0.5,0.2-1,0.3-1.5,0.3c-0.7,0-1.3-0.2-1.9-0.5s-1.3-0.9-2-1.6c-1.1,0-2-0.3-2.9-0.8
			s-1.5-1.2-2-2c-0.5-0.9-0.7-1.8-0.7-2.9c0-1.1,0.3-2,0.8-2.9s1.2-1.5,2.1-2c0.9-0.5,1.9-0.7,3-0.7s2.1,0.2,3,0.7s1.6,1.2,2.1,2
			c0.5,0.9,0.8,1.8,0.8,2.9c0,0.9-0.2,1.8-0.6,2.6c-0.4,0.8-0.9,1.4-1.6,2c-0.7,0.5-1.5,0.9-2.4,1c0.8,0.9,1.6,1.3,2.4,1.3
			c0.8,0,1.5-0.3,2.1-1L963.1,526.6z M952.6,522.5c0.4,0.7,1,1.3,1.7,1.7s1.5,0.6,2.4,0.6s1.7-0.2,2.4-0.6c0.7-0.4,1.3-1,1.7-1.7
			s0.6-1.5,0.6-2.4s-0.2-1.7-0.6-2.4c-0.4-0.7-1-1.3-1.7-1.7s-1.5-0.6-2.4-0.6s-1.7,0.2-2.4,0.6c-0.7,0.4-1.3,1-1.7,1.7
			s-0.6,1.5-0.6,2.4C951.9,521,952.2,521.8,952.6,522.5z"/>
		<path d="M966.3,524.5c-0.8-0.8-1.2-2-1.2-3.6v-6.4h1.2v6.4c0,1.3,0.3,2.3,0.9,2.9s1.4,1,2.5,1s2-0.3,2.6-1
			c0.6-0.6,0.9-1.6,0.9-2.9v-6.4h1.2v6.4c0,1.6-0.4,2.8-1.2,3.6s-1.9,1.2-3.4,1.2C968.3,525.8,967.1,525.5,966.3,524.5z"/>
		<path d="M979.6,511.7h1.5l-2.6,2h-1.1L979.6,511.7z M977.9,514.5h1.2v11.2h-1.2V514.5z"/>
	</g>
	<g>
		<rect x="958.6" y="545.1" class="st2" width="2.6" height="24.7"/>
		<g>
			<circle class="st3" cx="959.9" cy="520" r="30"/>
		</g>
		<g>
			<path d="M948.3,526c0,0.4-0.1,0.6-0.3,0.9c-0.2,0.2-0.5,0.3-0.8,0.3c-0.2,0-0.5-0.1-0.7-0.2c-0.2-0.1-0.3-0.4-0.5-0.6l-1.1-2.4
				h-6l-1.1,2.5c-0.1,0.3-0.2,0.5-0.4,0.6c-0.2,0.1-0.4,0.2-0.6,0.2c-0.4,0-0.6-0.1-0.8-0.3c-0.2-0.2-0.3-0.4-0.3-0.8
				c0-0.1,0-0.2,0.1-0.4l5-12.1c0.1-0.3,0.3-0.5,0.5-0.6c0.2-0.1,0.5-0.2,0.7-0.2c0.2,0,0.5,0.1,0.7,0.2s0.4,0.3,0.5,0.6l5,11.8
				C948.3,525.7,948.3,525.9,948.3,526z M940,521.6h4l-2-4.7L940,521.6z"/>
			<path d="M963.8,528c0.2,0.2,0.4,0.5,0.4,0.8c0,0.4-0.2,0.8-0.7,1.1c-0.5,0.4-1,0.6-1.7,0.9c-0.7,0.2-1.2,0.3-1.7,0.3
				c-0.9,0-1.5-0.1-2.1-0.3c-0.5-0.2-1-0.4-1.5-0.7c-0.3-0.2-0.6-0.3-0.8-0.4c-0.2-0.1-0.5-0.1-0.8-0.1c-0.2,0-0.3,0-0.4,0.1
				s-0.2,0.1-0.4,0.2c-0.2,0.1-0.3,0.2-0.5,0.2c-0.1,0-0.3,0.1-0.6,0.1c-0.3,0-0.6-0.1-0.8-0.4c-0.2-0.2-0.4-0.5-0.4-0.8
				c0-0.5,0.2-0.9,0.7-1.1l2-0.7c-1.1-0.2-2-0.7-2.8-1.4c-0.8-0.7-1.4-1.5-1.9-2.5c-0.4-1-0.7-2.1-0.7-3.2c0-1.3,0.3-2.6,0.9-3.7
				c0.6-1.1,1.4-2,2.4-2.6c1-0.6,2.2-1,3.5-1s2.5,0.3,3.5,1c1,0.6,1.9,1.5,2.5,2.6c0.6,1.1,0.9,2.3,0.9,3.7c0,1.2-0.2,2.2-0.7,3.2
				c-0.5,1-1.1,1.8-1.9,2.5c-0.8,0.7-1.7,1.1-2.8,1.4l-1.2,0.5c0.3,0,0.6,0.1,0.9,0.2c0.3,0.1,0.6,0.3,0.9,0.4
				c0.4,0.2,0.8,0.4,1.1,0.5c0.3,0.1,0.7,0.2,1.1,0.2c0.3,0,0.6-0.1,0.9-0.2c0.2-0.1,0.5-0.2,0.7-0.4c0.1-0.1,0.2-0.2,0.4-0.3
				c0.2-0.1,0.3-0.2,0.4-0.3s0.3-0.1,0.4-0.1C963.3,527.7,963.6,527.8,963.8,528z M952.4,522.5c0.4,0.7,0.9,1.3,1.5,1.7
				c0.6,0.4,1.4,0.6,2.2,0.6c0.8,0,1.5-0.2,2.2-0.6c0.6-0.4,1.2-1,1.5-1.7c0.4-0.7,0.5-1.6,0.5-2.5c0-0.9-0.2-1.7-0.5-2.5
				c-0.4-0.7-0.9-1.3-1.5-1.7c-0.6-0.4-1.4-0.6-2.2-0.6c-0.8,0-1.6,0.2-2.2,0.6c-0.6,0.4-1.1,1-1.5,1.7c-0.4,0.7-0.5,1.6-0.5,2.5
				C951.8,520.9,952,521.8,952.4,522.5z"/>
			<path d="M976.1,513.3c0.2,0.2,0.3,0.5,0.3,0.9v7.3c0,1.1-0.2,2.1-0.7,3c-0.5,0.9-1.1,1.5-2,2c-0.8,0.5-1.8,0.7-2.9,0.7
				s-2.1-0.2-2.9-0.7c-0.9-0.5-1.5-1.2-2-2c-0.5-0.9-0.7-1.9-0.7-3v-7.3c0-0.3,0.1-0.6,0.4-0.9c0.2-0.2,0.6-0.4,0.9-0.4
				c0.3,0,0.6,0.1,0.8,0.4c0.2,0.2,0.4,0.5,0.4,0.9v7.3c0,0.6,0.1,1.2,0.4,1.7c0.3,0.5,0.7,0.9,1.1,1.2c0.5,0.3,1,0.4,1.5,0.4
				c0.6,0,1.1-0.1,1.6-0.4c0.5-0.3,0.9-0.7,1.2-1.2c0.3-0.5,0.5-1.1,0.5-1.7v-7.3c0-0.4,0.1-0.7,0.3-0.9c0.2-0.2,0.5-0.3,0.8-0.3
				S975.9,513.1,976.1,513.3z"/>
			<path d="M981.6,526.8c-0.3,0.2-0.6,0.4-0.9,0.4c-0.4,0-0.7-0.1-0.9-0.4s-0.4-0.5-0.4-0.9v-11.7c0-0.4,0.1-0.6,0.4-0.9
				c0.2-0.2,0.6-0.4,0.9-0.4c0.3,0,0.6,0.1,0.9,0.4s0.4,0.5,0.4,0.9v11.7C982,526.2,981.8,526.5,981.6,526.8z M980.2,512
				c-0.2-0.1-0.2-0.3-0.2-0.5c0-0.2,0.1-0.4,0.3-0.5l1.7-1.5c0.3-0.3,0.7-0.4,1-0.4c0.3,0,0.5,0.1,0.7,0.3c0.2,0.2,0.3,0.4,0.3,0.7
				c0,0.2-0.1,0.4-0.2,0.6c-0.1,0.2-0.3,0.4-0.6,0.5l-2,1.1c-0.1,0.1-0.3,0.1-0.5,0.1C980.5,512.2,980.3,512.1,980.2,512z"/>
		</g>
	</g>
</g>
</svg>
