<?xml version="1.0" encoding="utf-8"?>
<!-- Generator: Adobe Illustrator 23.0.1, SVG Export Plug-In . SVG Version: 6.00 Build 0)  -->
<svg version="1.1" id="Capa_1" xmlns="http://www.w3.org/2000/svg" xmlns:xlink="http://www.w3.org/1999/xlink" x="0px" y="0px"
	 viewBox="0 0 360 640" style="enable-background:new 0 0 360 640;" xml:space="preserve">
<style type="text/css">
	.st0{fill:url(#SVGID_1_);}
	.st1{fill:#FFFFFF;}
	.st2{fill:#C81E32;}
	.st3{fill:#AF1E32;}
	.st4{fill:#A01E32;}
</style>
<g>
	<g>
		<radialGradient id="SVGID_1_" cx="180" cy="320" r="259.6151" gradientUnits="userSpaceOnUse">
			<stop  offset="0" style="stop-color:#3C3C3C"/>
			<stop  offset="8.008656e-02" style="stop-color:#3C4141"/>
			<stop  offset="0.18" style="stop-color:#3B4F51"/>
			<stop  offset="0.2906" style="stop-color:#39676A"/>
			<stop  offset="0.4078" style="stop-color:#37878D"/>
			<stop  offset="0.5223" style="stop-color:#34AEB7"/>
			<stop  offset="0.7933" style="stop-color:#2AD8BF;stop-opacity:0.1"/>
		</radialGradient>
		<path class="st0" d="M358.9,339.8c0.1,0,0.3,0.1,0.4,0.1c0.3,0,0.5-0.1,0.8-0.2v-13.4l-2.5,11.4
			C357.3,338.6,357.9,339.5,358.9,339.8z M338.6,0c0,0,0.1,0.1,0.1,0.1l4.9,5.2l-27.8,24.4l-5.2-18.3l14-11.4h-5.6l-9.5,7.7L307.2,0
			h-7.4l2.2,7.4l-24.1-5.2l0.7-2.2h-10.3l-5.5,17.7L208.5,3.5l0.6-2.8l2.1-0.7h-11.3l-16.3,5.5c-1.7-0.9-3.6-1.4-5.8-1.6V0h-3.5v3.9
			c-4.7,0.4-10.1,2-15.8,5c-0.1,0.1-0.4,0.2-0.5,0.3V0h-3.5v0.3L149.1,0H80.5L101,1.1l-2.1,14.9l-33.3-3.3L67.1,0h-3.6L60,31.1
			l-26.9-3.3l3-27.8H24.7l-2.9,26.5L0,24v3.5l21.4,2.5L18,62L0,60.4v3.6l17.6,1.7l-5,45.7L0,109.5v3.6l12.3,1.8l-0.6,5.9L0,119.3
			v3.6l11.3,1.4l-0.9,8.8L0,132.1v3.5l9.9,1L7,163l-7-0.6v3.6l6.7,0.6l-1.1,10H0v3.5h5.3l-2.8,25.8L0,206.8v3.8l2.1-0.7L0,229v105.2
			l1.3-11.9l17.4,4.7l-5.4,50.7L0,373.8v3.7l12.9,3.8l-5.1,48.2L0,427.5v3.7l21.1,5.2l-11.8,8.4L0,449.5v7.4l38.8,15.8
			c0.1,0,0.1,0.1,0.2,0.1l77.3,20.7l-10.2,33.1l-53.5-3.9L5.7,512.3L0,510.5v3.8l4.7,1.5c0.1,0,0.1,0,0.1,0.1l4.8,1.1l-4.9,36
			L0,552.3v3.5l4.3,0.5l-4.2,42.9L0,599.2v6.1l92.8-34.9l-8.2,26.9L0,631.6v3.8l83.3-33.8L71.6,640h44.3l-10.2-9.3l-7.4-16.3
			l39.4,19.9l-12.3,5.8h58.7l-26-7.8l0.7-2.6l2-0.9l30.8-7.8l-3.5,19.1H251l18.7-35l24.7-1.3c0.1,0,0.1,0,0.2,0l14.2-1.8l-2.2,5.3
			c-0.1,0.3-0.2,0.5-0.2,0.8l-1.7,8.2l-12.1-0.5c-1,0-1.8,0.7-1.8,1.7c-0.1,1,0.7,1.8,1.7,1.8l11.6,0.5l-4.2,20.3h8.7l6.2-29.9
			l3.5-8.5l20.3,0.8l8.6,37.6h3.7l-8.6-37.6l17.8-3.8v-5.1l-18.9,4l-3.2-0.1l22.1-27.6V564l-26.5,33.2l-13.6-0.5l4.8-11.3l35.4-32.3
			v-11.5l-29.5,26.9l-8.6-49.6l38.1-6.7v-5.7l-39.1,6.8l-0.8-4.6l39.9-4.5v-3.5l-40.5,4.5l-8.6-49.9l36.9-7.3c1-0.2,1.6-1.1,1.4-2.1
			c-0.2-1-1.1-1.6-2.1-1.4l-36.9,7.3l-7.2-41.5l6.2,0.6c0.2,0,0.4,0,0.6-0.1l16.9-4.5l4.5,1l3.5,18.2l-9,2c-0.9,0.2-1.6,1.1-1.3,2.1
			c0.2,0.9,0.9,1.4,1.7,1.4c0.1,0,0.3,0,0.4-0.1l33.3-7.3v-3.6l-21.6,4.7l-3.2-16.5l24.8,5.7v-3.6l-32.6-7.5c-0.3-0.1-0.6-0.1-0.9,0
			l-17,4.5l-6.3-0.6l6.9-31.3l49.9,11v-31.4l-8.3-1.1c-0.9-0.1-1.8,0.6-2,1.5l-3.6,24.3l-35.3-7.8l4-18.2l24.1,5.1
			c0.1,0,0.3,0.1,0.4,0.1c0.9,0,1.6-0.6,1.7-1.4c0.2-1-0.4-1.9-1.3-2.1l-24.1-5.1l1.8-8.3l23.2,5.2c0.1,0,0.3,0.1,0.4,0.1
			c0.8,0,1.6-0.6,1.7-1.4c0.2-0.9-0.4-1.9-1.3-2.1l-23.2-5.2l3.1-14.2l24.4,4.4c0.1,0,0.2,0,0.3,0c0.9,0,1.6-0.6,1.8-1.5
			c0.1-1-0.5-1.9-1.4-2.1l-24.3-4.4l6.2-28.1l23.5,5.2l-4.5,18.9c-0.2,0.9,0.4,1.9,1.3,2.1c0.1,0,0.3,0.1,0.4,0.1
			c0.8,0,1.6-0.6,1.7-1.3l4.5-19l4.9,1.1v-3.6l-31-6.9l17.5-79.6l6.7,1.5l6.8,31.5v-33.6l-0.1,0l-6.2-27.9l-1.3-6.8
			c0.3-0.1,0.5-0.4,0.6-0.8l2.5-5.3c0.1-0.1,0.1-0.3,0.1-0.4l2.5-12.3l1.8,0.4v-3.7l-1.1-0.2l1.1-5.3V129l-7.7,38.1l-0.9,2
			l-10.2-51.3c0-0.1-0.1-0.2-0.1-0.3l-1-3.4l1.3-1.1c0.3-0.2,0.6-0.5,0.8-0.8l3.1-4.5l14.6,3.8v-3.8l-12.5-3.1l10.9-15.5l1.6-1.6
			v-9.8l-6.7,6.4c-0.1,0.1-0.4,0.4-0.4,0.5l-15,21.3V106l10.9-19.1L360,75.6v-5l-3.8,3.8l-6.5-7.2l10.4-10v-5l-12.7,12.3L337.7,54
			l13.2-11.1l9.2,9.3V47l-6.5-6.6L360,35v-4.6l-8.9,7.6l-18.2-18.5l13.3-11.6L360,22.5v-9.2L347.4,0H338.6z M310,35l8.1,28.4l-15-1
			l-15.7-1.2l7.6-28.1l2.5,0.7c0.1,0,0.2,0.1,0.4,0.1L310,35z M249.5,199.8l28.1,7l-9.6,44.1l-10.2-2.6c-0.9-0.2-1.9,0.4-2.1,1.3
			c-0.2,0.9,0.4,1.9,1.3,2.1l10.4,2.6l-4.3,20l-19.1-4.3l5.2-26.2c0.1-0.8-0.6-1.7-1.5-1.9c-1-0.2-1.9,0.4-2.1,1.4l-5.2,26l-30-6.7
			c-0.1,0-0.1,0-0.1,0l-0.9-0.1l21.4-78.5l49.4,11l-1.8,8.4l-27.9-6.9c-0.9-0.2-1.9,0.4-2.1,1.3S248.6,199.6,249.5,199.8z
			 M216.9,403.4l17.2,2.8l-2.6,11.6l-37.7-8.9l3.3-13.3c0.2-0.9-0.4-1.9-1.3-2.1c-0.9-0.2-1.9,0.4-2.1,1.3l-3.3,13.3l-10.8-2.5
			l4.6-16.9c0.3-0.9-0.3-1.9-1.3-2.2c-0.9-0.3-1.9,0.3-2.2,1.3l-4.7,17l-5.4-1.3l15.2-55.5l11,2.4l-3.3,11.9
			c-0.3,0.9,0.3,1.9,1.3,2.2c0.1,0.1,0.3,0.1,0.5,0.1c0.8,0,1.5-0.5,1.7-1.3l3.3-12.1l14.9,3.3l-7.1,32c-0.2,0.9,0.4,1.9,1.3,2.1
			c0.1,0,0.3,0.1,0.4,0.1c0.8,0,1.6-0.6,1.7-1.4l7.1-32l25.2,5.6l-9.1,41.7l-17.4-2.8c-1-0.1-1.8,0.5-2.1,1.5
			C215.3,402.3,215.9,403.2,216.9,403.4z M36.3,193.2L58,180.8l91.3,26.7l-6.5,14.4l-13.9,25L33.5,221l2.9-27.3
			C36.4,193.6,36.4,193.4,36.3,193.2z M52.1,123.6l4.3,0.1l29.7,29.1c0.4,0.4,0.8,0.6,1.3,0.8l9.7,3.6l-10.6,0.3l-37.9-10
			L52.1,123.6z M39.7,115.9l12.6-9.1l-0.9,9.6L39.7,115.9z M189.9,69.5l32.4,59.7l-3.9-1.8l-45-32.5l-3.2-2.3l7.2-42.6l15.4,5.5
			l-3,12.7C189.7,68.6,189.7,69.1,189.9,69.5z M193.3,68.4l2.7-11.6l49.3,17.4l-17.7,57.4L193.3,68.4z M277.5,84l-9.8,36.1
			l-30.3,13.5l17.4-56.5L277.5,84z M255.9,73.8l4.9-15.8l10.8,5.4c0.2,0.1,0.4,0.1,0.6,0.2l10.7,0.8l-4.5,16.2L255.9,73.8z
			 M246.4,70.8l-49.5-17.5l4-17.2l50.6,18.1L246.4,70.8z M233.3,147.3l1.1,9.5L205.7,262l-7.4-1L233.3,147.3z M197.1,438
			c-0.9-0.4-1.8-0.6-2.8-0.6c-3.9,0-7.1,3.2-7.1,7.1c0,1.9,0.7,3.6,1.9,4.9l-5.5,8l-6.7,2.2l-20.5-4.2l13.2-48.4l21.5,5l13,3
			l-4.8,19.5L197.1,438z M198,444.5c0,2-1.6,3.6-3.6,3.6c-2,0-3.6-1.6-3.6-3.6c0-2,1.6-3.6,3.6-3.6C196.4,440.9,198,442.5,198,444.5
			z M85.4,332.7l19.2-34.6l20.8,5.2l-14.2,46.9l-21.6-6.4c0.1-0.6,0.1-1.2,0.1-1.8C89.9,338.3,88.2,334.9,85.4,332.7z M83.6,335.8
			c1.6,1.6,2.7,3.8,2.7,6.2c0,4.8-3.8,8.6-8.6,8.6c-0.9,0-1.6-0.1-2.4-0.4L83.6,335.8z M82.4,330.8c-1.4-0.6-3-0.9-4.7-0.9
			c-1.5,0-3,0.3-4.3,0.8l-22-47.5l42,11.8l7.7,2.1L82.4,330.8z M129,304.2l20,5.1l-14.8,47.7l-19.5-5.7L129,304.2z M152.4,310.1
			l18.9,4.8l-15,48.6l-18.7-5.5L152.4,310.1z M153.5,306.7l14.1-45.7l18.8,5l-14,45.5L153.5,306.7z M150,305.9l-20.1-5.1l14-46.2
			l20.3,5.5L150,305.9z M126.6,299.9l-20.1-5.1l24.3-43.8l9.9,2.6L126.6,299.9z M102.9,293.9l-7-2l4.5-49l26.7,7.2L102.9,293.9z
			 M92.4,290.9l-18.6-5.2l5.2-48.6L97,242L92.4,290.9z M70.4,284.7l-20.2-5.7l4.9-48.4l20.6,5.5L70.4,284.7z M70.3,332.4
			c-1.4,1.1-2.6,2.4-3.3,4l-22-6l4.4-43.4L70.3,332.4z M77.7,333.4c1,0,2,0.2,2.9,0.5l-8.4,14.7c-1.8-1.6-3-3.9-3-6.6
			C69.1,337.3,72.9,333.4,77.7,333.4z M73.6,353.4c1.3,0.5,2.7,0.8,4.2,0.8c0.4,0,0.9,0,1.2-0.1c0,0.1,0.1,0.2,0.1,0.3L95.2,400
			L53,389.4L73.6,353.4z M82.4,353.3c2.8-1.1,5-3.3,6.3-6l21.6,6.4l-12.8,42.2L82.4,353.3z M113.7,354.6l19.5,5.7l-14.1,45.7
			l-19.5-4.9L113.7,354.6z M136.6,361.4l18.8,5.5l-13.8,44.9l-19.1-4.8L136.6,361.4z M154.5,403.4l11.8,2.8l-13.3,48.5l-14.1-0.4
			L154.5,403.4z M167.2,402.7l-11.6-2.7l9.3-30.2l10.4,3.4L167.2,402.7z M166,366.4l31.3-101.9l7.4,1l-28.4,104.3L166,366.4z
			 M202.1,215.2l-48.4-10.3l0.8-28.5h7.4c0.4,0,0.8-0.1,1.1-0.4l7-5.8c0.4-0.3,0.6-0.8,0.6-1.3l26.9-1.3c0.6,0,1.2-0.2,1.7-0.6
			l21.9-13.7L202.1,215.2z M200.9,218.6l-13.5,44.1l-20-5.4c-0.1-0.1-0.3-0.1-0.4-0.2c-0.2-0.1-0.4-0.1-0.6-0.1l-33.9-9.1l13.5-24.3
			c0-0.1,0.1-0.1,0.1-0.1l6.8-15L200.9,218.6z M150.1,204L62,178.2L87,161l19.1-0.5l26.5,9.9c0.4,0.1,0.9,0.2,1.2,0.2
			c0.1,0,0.1,0,0.1,0l17-0.9L150.1,204z M151.9,137.9l-51.8-5.7L82.9,105l69.8,2.8L151.9,137.9z M153.3,83.8l-0.4,15.2
			c-0.1,0.2-0.2,0.5-0.2,0.8s0.1,0.5,0.1,0.7l-0.1,3.6l-72.2-2.8L74,91l24.7-17.8l47.4,7.8l7.2,1.7L153.3,83.8z M72.1,88.1
			L60.4,69.6l32.9,3.1L72.1,88.1z M69.3,90.1l-12.6,9.1L59.1,74L69.3,90.1z M71.1,93.2l6.9,10.9l19.5,30.8c0.3,0.4,0.8,0.8,1.3,0.8
			l52.9,5.8l-0.6,21.2l-16.9,0.9l-43.7-16.3l-30.1-29.5c-0.6-0.6-1.4-1-2.3-1l-3.2-0.1l1.2-12.6L71.1,93.2z M82.1,160l-24.5,16.9
			l-0.1,0.1l-12.5-3.7l3.1-22.3L82.1,160z M53.3,179.4l-9.9,5.7l1.1-8.2L53.3,179.4z M51.6,229.7l-4.9,48.4L28,272.9l5.1-48.2
			L51.6,229.7z M46.3,281.7l-4.8,47.8l-18.9-5.1l5.1-47.9L46.3,281.7z M44.6,334l21.1,5.7c-0.1,0.8-0.2,1.5-0.2,2.3
			c0,4,1.9,7.5,4.9,9.7l-21,36.7l-10.1-3L44.6,334z M51.2,392.6l20.3,5.1l-12.8,45.4l-28.9-8.2l-2.4-0.6L51.2,392.6z M74.9,398.5
			l20.2,5.2l-13.9,45.8l-19.1-5.5L74.9,398.5z M98.5,404.6l19.4,4.9l-14.3,46.5l-19-5.4L98.5,404.6z M121.4,410.3l19.1,4.8
			L126,462.2l-19-5.4L121.4,410.3z M137.9,457.8l14.8,0.5v9.1c0,0.2,0.1,0.5,0.1,0.7l19.7,46.9l-22.7,5.7h-31.3L137.9,457.8z
			 M171.7,503.7l14.6,4c0.1,0.1,0.3,0.1,0.5,0.1c0.8,0,1.5-0.5,1.7-1.3c0.3-0.9-0.3-1.9-1.3-2.2l-17.3-4.8l-13.8-32.6v-8.1l20.6,4.2
			c0.1,0,0.2,0.1,0.4,0.1c0.2,0,0.4,0,0.6-0.1l7.7-2.5c0.4-0.1,0.7-0.4,0.9-0.7l5.9-8.6c0.7,0.2,1.4,0.4,2.2,0.4
			c3.9,0,7.1-3.2,7.1-7.1c0-1.7-0.6-3.2-1.6-4.5l2.7-3.9c0.1-0.2,0.2-0.4,0.3-0.6l4.8-19.9l23.1,5.4l-20.4,93.9l-25.5-3.1
			c-0.2,0-0.4,0-0.6,0.1l-8.2,2.1L171.7,503.7z M247.4,361.7l22.3,5l-9.8,46.9l-24.8,4.2L247.4,361.7z M244.6,357.2l-57.9-12.6
			l6.3-23.3l14.8,2.6c0.1,0,0.2,0,0.3,0c0.9,0,1.6-0.6,1.8-1.5c0.1-1-0.5-1.9-1.4-2.1l-14.4-2.6l14.2-52l1.3,0.1l5.4,1.2l-6.8,28.3
			c-0.2,0.9,0.4,1.9,1.3,2.1c0.1,0,0.3,0.1,0.4,0.1c0.8,0,1.6-0.6,1.7-1.3l6.8-28.4l22.1,5c0.2,0.2,0.5,0.4,0.8,0.4
			c0.1,0,0.2,0,0.4,0c0.1,0,0.3,0,0.4-0.1l20,4.5L244.6,357.2z M256.5,186.2l2.1-12.9c0.1-1-0.5-1.8-1.5-2.1c-1-0.1-1.8,0.5-2.1,1.5
			l-2.1,12.7l-21.5-4.8l6.3-23.2c0.1-0.2,0.1-0.4,0.1-0.7l-1.3-11.6l31.3,8.3l-0.4,1.9c-0.1,1,0.6,1.9,1.5,2.1
			c0.1,0,0.2,0.1,0.4,0.1c0.9,0,1.6-0.6,1.7-1.4l0.4-1.8l16.7,4.4l-7.2,32.8L256.5,186.2z M268.6,150l-31.6-8.4l36.7-16.4L268.6,150
			z M272.6,118l-0.6,0.3l9-33.2l12.5,3.8l-9.2,29.4l-10-0.5C273.6,117.7,273.1,117.8,272.6,118z M281.8,81.6l4.6-17l14.2,1.1
			l-6.2,19.8L281.8,81.6z M304.3,66l14.9,1l8.2,28.4l-29.5-8.9L304.3,66z M276.8,5.5l26.3,5.7l5.7,20.1l-10.6-1l-26.7-7.7L276.8,5.5
			z M270.6,26.1l21,6l-7.8,28.8l-11.1-0.9l-10.9-5.5L270.6,26.1z M261.7,21.1l-9.1,29.6l-50.8-18.2l6-25.5L261.7,21.1z M205.1,1.9
			L198.6,30l-10.1-10.4c1.1-3.5,1.1-6.9-0.5-9.9c-0.4-0.6-0.7-1.2-1.2-1.8L205.1,1.9z M172.8,36.1c6.5-3.5,11.5-8.1,14.2-12.8
			l10.7,11L193.6,52l-16.9-6l-15.9-5.6C164.5,39.8,168.6,38.4,172.8,36.1z M157.9,43.2l16,5.7L167,90.3L156.8,83L157.9,43.2z
			 M156.7,87.2l12.5,9l-2.9,1.8h-9.9L156.7,87.2z M156.3,101.6h10.4c0.4,0,0.6-0.1,0.9-0.3l4.6-2.9l44.2,31.8
			c0.1,0.1,0.2,0.1,0.3,0.1l9.9,4.6l-1.4,4.5l-16.9,4.5l-53-5.8L156.3,101.6z M155.3,141.9l53,5.8c0.1,0,0.1,0,0.2,0
			c0.1,0,0.3,0,0.4-0.1l13.5-3.6l-26.2,16.5l-41.4,2.1L155.3,141.9z M154.5,169.6l11.3-0.5l-4.6,3.8h-6.7L154.5,169.6z M153.4,79.1
			l-6.6-1.6c-0.1,0-0.1,0-0.1,0l-44-7.2l38.4-27.8l11.5-1.2l1.8,0.6L153.4,79.1z M104.5,1.3l49.9,2.6v7.5c-4,2.7-7.2,5.9-9.2,9.2
			l-42.6-4.3L104.5,1.3z M101.9,19.9l41.5,4.1c-1.3,3.7-1.1,7.3,0.5,10.4c0.9,1.6,2,2.8,3.3,3.8l-7,0.8c-0.3,0-0.6,0.1-0.9,0.4
			l-1.8,1.3l-37.8-4.6L101.9,19.9z M99.3,39.6l34,4.2L98.9,68.6l-2.8-6.1L99.3,39.6z M65.3,16.2l33.1,3.3l-2.2,16.2l-32.7-4
			L65.3,16.2z M63.3,35.1l32.6,4l-3.3,23.5c-0.1,0.3,0,0.6,0.1,0.9l2.6,5.7l-35.6-3.3L63.3,35.1z M32.7,31.4l26.9,3.3l-3.5,30.9
			l-26.9-2.6L32.7,31.4z M28.9,66.6L56,69.2c0,0.1,0.1,0.1,0.1,0.1c-0.1,0.2-0.2,0.4-0.2,0.6L52.8,102l-18.7,13.5l-10.4-0.4
			L28.9,66.6z M22.9,122.3l25.7,1.1l-1.9,13.5l-25-2.6L22.9,122.3z M18,168.1l9.6,2.5c0.1,0.1,0.3,0.1,0.4,0.1
			c0.8,0,1.5-0.6,1.7-1.3c0.2-0.9-0.4-1.9-1.3-2.1l-10.1-2.6l2.9-26.7l24.9,2.6l-4.5,31.8l-3.5-1c-0.9-0.3-1.9,0.3-2.2,1.2
			s0.3,1.9,1.2,2.2l4,1.1l-1.6,11.1c0,0.1,0,0.3,0,0.4l-25.2,14.4L18,168.1z M13.8,206l18.9-10.8l-2.6,25l-17.2-4.6L13.8,206z
			 M12.4,219.1l17.2,4.6l-5.1,48.2l-17.3-4.8L12.4,219.1z M1.7,318.7l5.2-48l17.3,4.8L19,323.4L1.7,318.7z M22.1,327.9l18.9,5.1
			l-5.2,51.3l-19.1-5.7L22.1,327.9z M11.3,430.3l5.1-48l20.6,6.1l10.7,3.2l-23.9,41.8L11.3,430.3z M40.2,469.3L0.6,453.2l10.5-5.4
			c0.1-0.1,0.1-0.1,0.2-0.1l13.7-9.6c0.2-0.1,0.4-0.4,0.5-0.6l3.3,0.9l96.2,27.4l-7.4,24.3L40.2,469.3z M117.5,524.3h32.7
			c0.1,0,0.3,0,0.4-0.1l23.5-6l4.3,7.4c0.1,0.1,0.2,0.4,0.4,0.4l11.5,10l-47.6,7.4c-0.2,0-0.4,0.1-0.6,0.1l-18.7,7.7
			c0.6-2.3,0.8-5.4-0.1-8.9c-0.4-1.3-1.1-2.3-2.3-2.8c-2.1-1.1-5.2-0.7-7.9-0.1L117.5,524.3z M169.5,565.9c-0.5-0.3-1.1-0.3-1.6-0.1
			l-41.4,17.3l-9.3-23.3l26.6-10.9l47.3-7.3l0.2,13.7l-8.7,18L169.5,565.9z M181,576.6l-0.4,0.9L165,596.7c-0.1,0.2-0.3,0.4-0.4,0.6
			l-0.7,2.5l-10.6-24l15-6.2L181,576.6z M111.6,543.4c2.9-0.9,6.2-1.5,7.7-0.8c0.4,0.1,0.4,0.4,0.5,0.6c1.3,4.7,0,8.3-0.7,9.8
			l-11.9,4.9L111.6,543.4z M114,561.2l9.3,23.3l-27.9,11.6l9.6-31.3c0.1,0,0.4-0.1,0.5-0.1L114,561.2z M3.8,597.8l4-41.1l80.1,9.4
			L3.8,597.8z M8.3,553.3l4.8-35.7l39,8.6c0.1,0,0.1,0,0.3,0.1l52.9,3.9L95,563.6L8.3,553.3z M95.8,601.9c-0.6-0.4-1.3-0.5-2.1-0.5
			l0.2-0.8l30.6-12.8l14.3,35.8L95.8,601.9z M156.6,625.3l-7.4,3.5l-5.5-2.8c0-0.1-0.1-0.2-0.1-0.3l-15.7-39.2l22.3-9.3l12.3,27.9
			L156.6,625.3z M327.4,571.4l-9.2,8.4c-0.4,0.4-0.9,0.9-1.1,1.5l-6.4,15.5l-15,1.9l-0.4-21.3c0-0.4-0.1-0.8-0.4-1.1l-3.8-4.8
			c-0.6-0.8-1.7-0.9-2.5-0.3c-0.8,0.6-0.9,1.7-0.3,2.5l3.4,4.3l0.4,21l-18.4,1v-7.2l5.7-7.9c0.6-0.8,0.4-1.9-0.4-2.5
			c-0.8-0.6-1.9-0.4-2.5,0.4l-6,8.3c-0.2,0.3-0.4,0.6-0.4,1.1v8l-8.9,0.5l1.6-20.9c0.1-1-0.6-1.8-1.6-1.9c-1-0.1-1.8,0.6-1.9,1.6
			l-1.7,21.8l-43.7,8.9c-0.1,0-0.1,0-0.1,0l-53,13.5l7.3-25l15.5-19.1c0.1-0.1,0.1-0.2,0.2-0.4l11-22.7c0.1-0.3,0.2-0.5,0.2-0.8
			l-0.3-14.7l89.7-15.6l1.5,23.3c0.1,0.9,0.9,1.6,1.8,1.6c0.1,0,0.1,0,0.1,0c1-0.1,1.7-0.9,1.6-1.9l-1.5-23.7l8.8-1.6l2.6,22.3
			c0.1,0.9,0.9,1.6,1.8,1.6c0.1,0,0.1,0,0.2,0c1-0.1,1.7-1,1.6-2l-2.6-22.5l18.2-3.2L327.4,571.4z M317.5,513.9l-123.1,21.4
			c-0.1-0.2-0.3-0.4-0.4-0.6l-12.8-11.1l-3.6-6.2l7.2-1.8l26,3.2c0.2,0.1,0.4,0.2,0.6,0.3c0.1,0,0.3,0.1,0.4,0.1
			c0.2,0,0.4-0.1,0.6-0.1l19.2,2.3c0.1,0,0.4,0,0.5,0l32.1-5.7l52.5-6.4L317.5,513.9z M282.7,499.4c-0.8,0.1-1.5-0.4-1.6-1.2
			l-2.1-14.6c-0.1-0.8,0.4-1.5,1.2-1.6c0.1,0,0.2,0,0.2,0c0.3,0,0.6,0.1,0.8,0.3c0.3,0.2,0.5,0.6,0.6,1l2.1,14.6
			C284.1,498.5,283.5,499.3,282.7,499.4z M315.8,505.5l-29.6,3.7l-1-7c1.6-1,2.6-2.9,2.3-4.9l-2.1-14.6c-0.2-1.3-0.9-2.5-1.9-3.3
			c-1.1-0.8-2.4-1.1-3.7-0.9c-2.7,0.4-4.6,2.9-4.2,5.6l2.1,14.6c0.2,1.3,0.9,2.5,1.9,3.3c0.6,0.5,1.3,0.7,2,0.9l1,6.7l-19,2.3h-0.1
			l-31.9,5.7l-17.8-2.2l6.7-31.1l28.9,6c0.1,0,0.2,0.1,0.4,0.1c0.1,0,0.2,0,0.3,0l14-2.3c1-0.1,1.6-1.1,1.5-2.1
			c-0.1-1-1.1-1.6-2.1-1.5l-13.7,2.3l-28.5-5.9l3.8-17.4l20.6,5.5c0.1,0.1,0.3,0.1,0.4,0.1c0.1,0,0.3,0,0.5-0.1l9.6-2.7
			c0.9-0.3,1.5-1.2,1.2-2.2c-0.3-0.9-1.2-1.5-2.2-1.2l-9.2,2.6l-20.3-5.5l5-22.8l18.6,4.4c0.1,0,0.3,0.1,0.4,0.1
			c0.8,0,1.6-0.6,1.7-1.3c0.2-0.9-0.4-1.9-1.3-2.1l-18.7-4.4l2.7-12.4l21.2-3.6l6.6,31.2c0.1,0.9,0.9,1.4,1.7,1.4
			c0.1,0,0.2,0,0.4-0.1c1-0.2,1.6-1.1,1.3-2.1l-6.5-31.1l13.2-2.2l4.3,29.6c0.1,0.9,0.9,1.5,1.8,1.5c0.1,0,0.1,0,0.3,0
			c1-0.1,1.6-1.1,1.5-2l-4.3-29.6l23.8-4L315.8,505.5z M299.6,406.8l-35.8,6l9.5-45.5l6.7,1.5l-3.4,15.9c-0.2,1,0.4,1.9,1.3,2.1
			c0.1,0,0.3,0.1,0.4,0.1c0.9,0,1.6-0.6,1.7-1.4l3.4-15.8l23.3,5.1L299.6,406.8z M307.3,371.3l-59.1-13.1l17.3-79.4l59.3,13.3
			L307.3,371.3z M325.5,288.6l-59.3-13.3l12.8-58.9l16.2,3.4c0.1,0,0.2,0.1,0.4,0.1c0.9,0,1.6-0.6,1.7-1.4c0.2-1-0.4-1.9-1.3-2.1
			l-16.1-3.4l1.3-6c0.2-0.2,0.4-0.5,0.5-0.9c0.1-0.4,0.1-0.8-0.1-1.1l2-9.2l59.5,13.3L325.5,288.6z M352.3,207.4l-5.1-1.1l2.4-11
			L352.3,207.4z M346.9,182.7l1,4.7c-0.1,0.1-0.2,0.4-0.2,0.6l-3.9,17.7l-19.6-4.4l1.8-12.6c0.1-1-0.5-1.8-1.5-2
			c-1-0.1-1.8,0.5-2,1.5l-1.8,12.4l-9.9-2.2l2.6-10.7c0.2-0.9-0.4-1.9-1.3-2.1c-0.9-0.2-1.9,0.4-2.1,1.3l-2.6,10.8l-23-5.1l7.1-32.6
			l26,6.9l-1.6,14.9c-0.3,0.9,0.4,1.8,1.4,1.8c0.1,0,0.1,0,0.2,0c0.9,0,1.6-0.7,1.8-1.6l1.5-14.3l5.7,1.5l-2.1,12.7
			c-0.1,1,0.5,1.8,1.5,2.1c0.1,0,0.2,0,0.3,0c0.9,0,1.6-0.6,1.8-1.5l2.1-12.3l15,4L346.9,182.7z M344.3,170.1l-72.3-19.1l5.2-25.6
			c0-0.1,0-0.2,0-0.3l44,2.3c0.9,0.1,1.6-0.2,2.3-0.7l10.4-7.9l0.2,0.6L344.3,170.1z M353.7,76.9l-7.7,7.7c-0.1,0.1-0.2,0.2-0.3,0.4
			l-9.3,16.4l-10.7-37.2l9.3-7.8L353.7,76.9z M348.4,40.3l-23.7,20.1L317,33.5l13.2-11.6L348.4,40.3z M353,0c0,0,0.1,0.1,0.1,0.1
			l6.9,7.3V0H353z"/>
	</g>
</g>
<g>
	<rect x="180.9" y="314.3" class="st1" width="1.7" height="16.2"/>
	<g>
		<circle class="st2" cx="181.7" cy="297.8" r="17.4"/>
		<circle class="st3" cx="181.2" cy="298.4" r="14.9"/>
		<path class="st4" d="M186.2,308.3c-8.1,0-14.9-6.7-14.9-14.9c0-1.4,0.2-2.7,0.5-3.9c0.3-1-1-1.8-1.7-1c-2.8,3.1-4.2,7.3-3.7,11.8
			c0.9,6.7,6.2,12.1,12.8,12.8c4.5,0.6,8.7-0.9,11.8-3.7c0.8-0.7,0.1-2-1-1.7C188.9,308.1,187.5,308.3,186.2,308.3z"/>
	</g>
</g>
</svg>
