<?xml version="1.0" encoding="utf-8"?>
<!-- Generator: Adobe Illustrator 23.0.1, SVG Export Plug-In . SVG Version: 6.00 Build 0)  -->
<svg version="1.1" id="Capa_1" xmlns="http://www.w3.org/2000/svg" xmlns:xlink="http://www.w3.org/1999/xlink" x="0px" y="0px"
	 viewBox="0 0 366.5 375" style="enable-background:new 0 0 366.5 375;" xml:space="preserve">
<style type="text/css">
	.st0{fill:#FFFFFF;}
</style>
<path class="st0" d="M331.3,290.9c-11.1,6.4-27.8,14.1-44.8,14.1c-17.3,0-42.7-19.1-69.6-39.3c-7.8-5.9-16.1-12.1-24.9-18.4
	c54-11.7,94.5-59.8,94.5-117.3v-10c0-66.3-53.7-120-120-120h-60v0h-60c-5.5,0-10,4.5-10,10v170c-8.4-1.1-17.1-1.8-26.1-2.1
	c-5.7-0.2-10.4,4.3-10.4,10v50c0,5.4,4.2,9.7,9.6,10c9.3,0.4,18.3,1.4,26.9,2.9V360c0,5.5,4.5,10,10,10h50c5.5,0,10-4.5,10-10v-84.3
	c25.2,13.5,47.4,30.2,68.3,46c36.5,27.4,71,53.4,111.7,53.4c26.2,0,53.1-7.9,80.1-23.6L331.3,290.9z M166.5,70c27.6,0,50,22.4,50,50
	v10c0,27.6-22.4,50-50,50h-60V70H166.5z"/>
</svg>
