<?xml version="1.0" encoding="utf-8"?>
<!-- Generator: Adobe Illustrator 23.0.1, SVG Export Plug-In . SVG Version: 6.00 Build 0)  -->
<svg version="1.1" id="Capa_1" xmlns="http://www.w3.org/2000/svg" xmlns:xlink="http://www.w3.org/1999/xlink" x="0px" y="0px"
	 viewBox="0 0 382.7 206.9" style="enable-background:new 0 0 382.7 206.9;" xml:space="preserve">
<style type="text/css">
	.st0{fill:none;}
	.st1{fill:#FFFFFF;}
	.st2{fill:#C81E32;}
	.st3{fill:#AF1E32;}
	.st4{fill:#A01E32;}
	.st5{fill:#DCDCDC;}
</style>
<rect x="-540.1" y="-330.9" class="st0" width="925.2" height="160.9"/>
<g>
	<g>
		<path class="st1" d="M19.1,187.9c0.8,0.4,1.5,0.9,2,1.6c0.1,0.2,0.2,0.4,0.2,0.6c0,0.3-0.1,0.5-0.4,0.7c-0.1,0.1-0.3,0.1-0.5,0.1
			c-0.4,0-0.7-0.1-0.9-0.4c-0.8-1-2-1.4-3.4-1.4c-0.9,0-1.7,0.2-2.2,0.6c-0.6,0.4-0.8,0.9-0.8,1.4c0,0.6,0.3,1.1,0.8,1.5
			s1.5,0.7,2.8,0.9c1.8,0.3,3.1,0.8,3.9,1.5s1.2,1.5,1.2,2.6c0,0.8-0.2,1.5-0.7,2.1s-1.1,1.1-2,1.4c-0.8,0.3-1.8,0.5-2.8,0.5
			c-1.1,0-2.1-0.2-3-0.5c-1-0.4-1.8-0.9-2.3-1.5c-0.2-0.2-0.3-0.4-0.3-0.6c0-0.3,0.1-0.5,0.4-0.8c0.2-0.2,0.4-0.2,0.6-0.2
			c0.3,0,0.5,0.1,0.7,0.4c0.4,0.5,0.9,0.8,1.6,1.1c0.7,0.3,1.4,0.4,2.2,0.4c1.2,0,2.1-0.2,2.7-0.6c0.6-0.4,0.9-0.9,0.9-1.6
			c0-0.6-0.3-1.1-0.9-1.5s-1.5-0.7-2.8-0.9c-1.7-0.3-2.9-0.7-3.7-1.4s-1.2-1.5-1.2-2.4c0-1.2,0.5-2.2,1.4-2.9s2.2-1,3.6-1
			C17.3,187.3,18.3,187.5,19.1,187.9z"/>
		<path class="st1" d="M37.1,188.3c1.1,0.6,1.9,1.5,2.5,2.6s0.9,2.3,0.9,3.6s-0.3,2.6-0.9,3.6s-1.5,1.9-2.5,2.5
			c-1.1,0.6-2.3,0.9-3.6,0.9s-2.6-0.3-3.6-0.9c-1.1-0.6-1.9-1.5-2.5-2.5s-0.9-2.3-0.9-3.6s0.3-2.6,0.9-3.6s1.5-1.9,2.5-2.6
			c1.1-0.6,2.3-0.9,3.6-0.9C34.8,187.3,36.1,187.6,37.1,188.3z M30.9,189.8c-0.8,0.5-1.4,1.1-1.9,1.9s-0.7,1.7-0.7,2.7
			s0.2,1.9,0.7,2.7s1.1,1.4,1.9,1.9s1.7,0.7,2.6,0.7c1,0,1.9-0.2,2.7-0.7s1.4-1.1,1.8-1.9c0.4-0.8,0.7-1.7,0.7-2.7s-0.2-1.9-0.7-2.7
			c-0.4-0.8-1.1-1.4-1.8-1.9c-0.8-0.5-1.7-0.7-2.7-0.7S31.7,189.4,30.9,189.8z"/>
		<path class="st1" d="M46.2,181.8c0.2-0.2,0.4-0.3,0.7-0.3s0.5,0.1,0.7,0.3s0.3,0.4,0.3,0.7V197c0,0.7,0.1,1.3,0.4,1.8
			c0.3,0.5,0.7,0.7,1.1,0.7H50c0.3,0,0.5,0.1,0.6,0.3c0.2,0.2,0.2,0.4,0.2,0.7s-0.1,0.5-0.3,0.7s-0.5,0.3-0.8,0.3h-0.3
			c-1,0-1.9-0.4-2.5-1.2c-0.7-0.8-1-1.9-1-3.2v-14.5C45.9,182.2,46,181.9,46.2,181.8z"/>
		<path class="st1" d="M68.1,187.7c0.2,0.2,0.3,0.4,0.3,0.7v12c0,0.3-0.1,0.5-0.3,0.7c-0.2,0.2-0.4,0.3-0.7,0.3
			c-0.3,0-0.5-0.1-0.7-0.3s-0.3-0.4-0.3-0.7v-0.9c-0.6,0.6-1.2,1.1-2,1.5c-0.8,0.4-1.7,0.5-2.6,0.5c-1.2,0-2.3-0.3-3.3-0.8
			s-1.7-1.3-2.3-2.2c-0.5-1-0.8-2.1-0.8-3.5v-6.6c0-0.3,0.1-0.5,0.3-0.7s0.4-0.3,0.7-0.3s0.5,0.1,0.7,0.3s0.3,0.4,0.3,0.7v6.6
			c0,1.5,0.4,2.7,1.3,3.5s1.9,1.2,3.3,1.2c0.8,0,1.6-0.2,2.3-0.5c0.7-0.3,1.2-0.8,1.6-1.3c0.4-0.6,0.6-1.2,0.6-1.9v-7.6
			c0-0.3,0.1-0.5,0.3-0.7s0.4-0.3,0.7-0.3C67.7,187.5,67.9,187.6,68.1,187.7z"/>
		<path class="st1" d="M86.2,189.8c0.1,0.2,0.2,0.3,0.2,0.5c0,0.3-0.1,0.5-0.4,0.7c-0.2,0.1-0.3,0.2-0.5,0.2c-0.3,0-0.5-0.1-0.7-0.4
			c-0.5-0.6-1.1-1-1.7-1.3s-1.3-0.4-2-0.4c-0.9,0-1.8,0.2-2.5,0.7s-1.3,1.1-1.7,1.9c-0.4,0.8-0.6,1.7-0.6,2.8c0,1,0.2,1.9,0.6,2.7
			s1,1.4,1.8,1.9s1.6,0.7,2.6,0.7c1.4,0,2.5-0.4,3.3-1.1c0.2-0.2,0.5-0.3,0.7-0.3s0.4,0.1,0.6,0.2c0.2,0.2,0.4,0.4,0.4,0.7
			c0,0.2-0.1,0.4-0.3,0.6c-1.2,1.1-2.8,1.7-4.6,1.7c-1.3,0-2.5-0.3-3.6-0.9c-1.1-0.6-1.9-1.5-2.5-2.6s-0.9-2.3-0.9-3.6
			c0-1.4,0.3-2.6,0.9-3.7c0.6-1.1,1.4-1.9,2.4-2.5s2.2-0.9,3.4-0.9C83.1,187.3,84.8,188.2,86.2,189.8z"/>
		<path class="st1" d="M94.6,182.4c0.3,0.3,0.4,0.6,0.4,1s-0.1,0.7-0.4,1s-0.6,0.4-1,0.4s-0.7-0.1-1-0.4c-0.3-0.3-0.4-0.6-0.4-1
			s0.1-0.7,0.4-1s0.6-0.4,1-0.4S94.4,182.2,94.6,182.4z M92.9,187.7c0.2-0.2,0.4-0.3,0.7-0.3c0.3,0,0.5,0.1,0.7,0.3s0.3,0.4,0.3,0.7
			v12c0,0.3-0.1,0.5-0.3,0.7c-0.2,0.2-0.4,0.3-0.7,0.3c-0.3,0-0.5-0.1-0.7-0.3s-0.3-0.4-0.3-0.7v-12
			C92.7,188.2,92.8,187.9,92.9,187.7z"/>
		<path class="st1" d="M111.6,188.3c1.1,0.6,1.9,1.5,2.5,2.6s0.9,2.3,0.9,3.6s-0.3,2.6-0.9,3.6s-1.5,1.9-2.5,2.5
			c-1.1,0.6-2.3,0.9-3.6,0.9c-1.3,0-2.6-0.3-3.6-0.9c-1.1-0.6-1.9-1.5-2.5-2.5s-0.9-2.3-0.9-3.6s0.3-2.6,0.9-3.6s1.5-1.9,2.5-2.6
			c1.1-0.6,2.3-0.9,3.6-0.9C109.4,187.3,110.6,187.6,111.6,188.3z M105.4,189.8c-0.8,0.5-1.4,1.1-1.9,1.9s-0.7,1.7-0.7,2.7
			s0.2,1.9,0.7,2.7s1.1,1.4,1.9,1.9s1.7,0.7,2.6,0.7c1,0,1.9-0.2,2.7-0.7c0.8-0.5,1.4-1.1,1.8-1.9c0.4-0.8,0.7-1.7,0.7-2.7
			s-0.2-1.9-0.7-2.7c-0.4-0.8-1.1-1.4-1.8-1.9c-0.8-0.5-1.7-0.7-2.7-0.7S106.2,189.4,105.4,189.8z"/>
		<path class="st1" d="M130.8,188.1c1,0.5,1.7,1.3,2.3,2.2s0.8,2.1,0.8,3.5v6.6c0,0.3-0.1,0.5-0.3,0.7s-0.4,0.3-0.7,0.3
			s-0.5-0.1-0.7-0.3s-0.3-0.4-0.3-0.7v-6.6c0-1.5-0.4-2.7-1.3-3.5c-0.8-0.8-1.9-1.2-3.3-1.2c-0.8,0-1.6,0.2-2.3,0.5
			c-0.7,0.3-1.2,0.8-1.6,1.3c-0.4,0.6-0.6,1.2-0.6,1.9v7.6c0,0.3-0.1,0.5-0.3,0.7c-0.2,0.2-0.4,0.3-0.7,0.3c-0.3,0-0.5-0.1-0.7-0.3
			s-0.3-0.4-0.3-0.7v-12c0-0.3,0.1-0.5,0.3-0.7c0.2-0.2,0.4-0.3,0.7-0.3c0.3,0,0.5,0.1,0.7,0.3s0.3,0.4,0.3,0.7v0.9
			c0.6-0.6,1.2-1.1,2-1.5s1.7-0.5,2.6-0.5C128.8,187.3,129.9,187.6,130.8,188.1z"/>
		<path class="st1" d="M149.6,188.2c1,0.6,1.7,1.4,2.3,2.4c0.5,1,0.8,2.2,0.8,3.5c0,0.3-0.1,0.5-0.3,0.7s-0.4,0.2-0.7,0.2h-10.3
			c0.1,1.4,0.7,2.5,1.6,3.4c1,0.9,2.1,1.3,3.6,1.3c0.6,0,1.2-0.1,1.8-0.3s1.1-0.5,1.5-0.8c0.2-0.2,0.5-0.3,0.7-0.3s0.4,0.1,0.6,0.2
			c0.2,0.2,0.3,0.4,0.3,0.7c0,0.2-0.1,0.4-0.3,0.6c-0.6,0.5-1.3,0.9-2.1,1.2c-0.9,0.3-1.7,0.5-2.5,0.5c-1.4,0-2.6-0.3-3.6-0.9
			c-1.1-0.6-1.9-1.4-2.5-2.5s-0.9-2.3-0.9-3.7s0.3-2.6,0.9-3.7c0.6-1.1,1.4-1.9,2.4-2.5s2.2-0.9,3.5-0.9
			C147.5,187.3,148.6,187.6,149.6,188.2z M143,190.3c-0.9,0.8-1.4,1.9-1.6,3.2h9.3c-0.1-1.3-0.6-2.4-1.4-3.2s-1.9-1.2-3.1-1.2
			C144.9,189.1,143.9,189.5,143,190.3z"/>
		<path class="st1" d="M165.8,187.9c0.8,0.4,1.5,0.9,2,1.6c0.1,0.2,0.2,0.4,0.2,0.6c0,0.3-0.1,0.5-0.4,0.7c-0.1,0.1-0.3,0.1-0.5,0.1
			c-0.4,0-0.7-0.1-0.9-0.4c-0.8-1-2-1.4-3.4-1.4c-0.9,0-1.7,0.2-2.2,0.6c-0.6,0.4-0.8,0.9-0.8,1.4c0,0.6,0.3,1.1,0.8,1.5
			s1.5,0.7,2.8,0.9c1.8,0.3,3.1,0.8,3.9,1.5c0.8,0.7,1.2,1.5,1.2,2.6c0,0.8-0.2,1.5-0.7,2.1s-1.1,1.1-2,1.4
			c-0.8,0.3-1.8,0.5-2.8,0.5c-1.1,0-2.1-0.2-3-0.5c-1-0.4-1.8-0.9-2.3-1.5c-0.2-0.2-0.3-0.4-0.3-0.6c0-0.3,0.1-0.5,0.4-0.8
			c0.2-0.2,0.4-0.2,0.6-0.2c0.3,0,0.5,0.1,0.7,0.4c0.4,0.5,0.9,0.8,1.6,1.1c0.7,0.3,1.4,0.4,2.2,0.4c1.2,0,2.1-0.2,2.7-0.6
			c0.6-0.4,0.9-0.9,0.9-1.6c0-0.6-0.3-1.1-0.9-1.5c-0.6-0.4-1.5-0.7-2.8-0.9c-1.7-0.3-2.9-0.7-3.7-1.4s-1.2-1.5-1.2-2.4
			c0-1.2,0.5-2.2,1.4-2.9s2.2-1,3.6-1C163.9,187.3,164.9,187.5,165.8,187.9z"/>
		<path class="st1" d="M190.1,199.7c0.2,0.2,0.3,0.4,0.3,0.7s-0.1,0.5-0.3,0.7s-0.5,0.3-0.8,0.3h-0.5c-0.9,0-1.7-0.2-2.4-0.7
			c-0.7-0.4-1.3-1-1.7-1.8c-0.4-0.7-0.6-1.6-0.6-2.5v-6.8h-1.7c-0.3,0-0.5-0.1-0.7-0.2c-0.2-0.2-0.2-0.4-0.2-0.6
			c0-0.3,0.1-0.5,0.2-0.6s0.4-0.2,0.7-0.2h1.7v-4c0-0.3,0.1-0.5,0.3-0.7s0.4-0.3,0.7-0.3s0.5,0.1,0.7,0.3s0.3,0.4,0.3,0.7v4h2.9
			c0.3,0,0.5,0.1,0.7,0.2s0.2,0.4,0.2,0.6c0,0.2-0.1,0.4-0.2,0.6c-0.2,0.2-0.4,0.2-0.7,0.2h-3v6.8c0,0.9,0.3,1.6,0.8,2.1
			s1.2,0.8,2,0.8h0.7C189.7,199.5,189.9,199.5,190.1,199.7z"/>
		<path class="st1" d="M204.9,188.2c1,0.6,1.7,1.4,2.3,2.4c0.5,1,0.8,2.2,0.8,3.5c0,0.3-0.1,0.5-0.3,0.7s-0.4,0.2-0.7,0.2h-10.3
			c0.1,1.4,0.7,2.5,1.6,3.4c1,0.9,2.1,1.3,3.6,1.3c0.6,0,1.2-0.1,1.8-0.3s1.1-0.5,1.5-0.8c0.2-0.2,0.5-0.3,0.7-0.3s0.4,0.1,0.6,0.2
			c0.2,0.2,0.3,0.4,0.3,0.7c0,0.2-0.1,0.4-0.3,0.6c-0.6,0.5-1.3,0.9-2.1,1.2c-0.9,0.3-1.7,0.5-2.5,0.5c-1.4,0-2.6-0.3-3.6-0.9
			c-1.1-0.6-1.9-1.4-2.5-2.5s-0.9-2.3-0.9-3.7s0.3-2.6,0.9-3.7c0.6-1.1,1.4-1.9,2.4-2.5s2.2-0.9,3.5-0.9
			C202.8,187.3,203.9,187.6,204.9,188.2z M198.3,190.3c-0.9,0.8-1.4,1.9-1.6,3.2h9.3c-0.1-1.3-0.6-2.4-1.4-3.2s-1.9-1.2-3.1-1.2
			C200.3,189.1,199.2,189.5,198.3,190.3z"/>
		<path class="st1" d="M223.9,189.8c0.1,0.2,0.2,0.3,0.2,0.5c0,0.3-0.1,0.5-0.4,0.7c-0.2,0.1-0.3,0.2-0.5,0.2
			c-0.3,0-0.5-0.1-0.7-0.4c-0.5-0.6-1.1-1-1.7-1.3c-0.6-0.3-1.3-0.4-2-0.4c-0.9,0-1.8,0.2-2.5,0.7s-1.3,1.1-1.7,1.9
			c-0.4,0.8-0.6,1.7-0.6,2.8c0,1,0.2,1.9,0.6,2.7c0.4,0.8,1,1.4,1.8,1.9s1.6,0.7,2.6,0.7c1.4,0,2.5-0.4,3.3-1.1
			c0.2-0.2,0.5-0.3,0.7-0.3s0.4,0.1,0.6,0.2c0.2,0.2,0.4,0.4,0.4,0.7c0,0.2-0.1,0.4-0.3,0.6c-1.2,1.1-2.8,1.7-4.6,1.7
			c-1.3,0-2.5-0.3-3.6-0.9c-1.1-0.6-1.9-1.5-2.5-2.6s-0.9-2.3-0.9-3.6c0-1.4,0.3-2.6,0.9-3.7c0.6-1.1,1.4-1.9,2.4-2.5
			s2.2-0.9,3.4-0.9C220.9,187.3,222.6,188.2,223.9,189.8z"/>
		<path class="st1" d="M239.9,188.1c1,0.5,1.7,1.3,2.3,2.2s0.8,2.1,0.8,3.5v6.6c0,0.3-0.1,0.5-0.3,0.7s-0.4,0.3-0.7,0.3
			s-0.5-0.1-0.7-0.3s-0.3-0.4-0.3-0.7v-6.6c0-1.5-0.4-2.7-1.3-3.5c-0.8-0.8-1.9-1.2-3.3-1.2c-0.8,0-1.6,0.2-2.3,0.5
			s-1.2,0.8-1.6,1.3c-0.4,0.6-0.6,1.2-0.6,1.9v7.6c0,0.3-0.1,0.5-0.3,0.7s-0.4,0.3-0.7,0.3s-0.5-0.1-0.7-0.3s-0.3-0.4-0.3-0.7v-12
			c0-0.3,0.1-0.5,0.3-0.7s0.4-0.3,0.7-0.3s0.5,0.1,0.7,0.3s0.3,0.4,0.3,0.7v0.9c0.6-0.6,1.2-1.1,2-1.5s1.7-0.5,2.6-0.5
			C237.9,187.3,238.9,187.6,239.9,188.1z"/>
		<path class="st1" d="M259.3,188.3c1.1,0.6,1.9,1.5,2.5,2.6s0.9,2.3,0.9,3.6s-0.3,2.6-0.9,3.6s-1.5,1.9-2.5,2.5
			c-1.1,0.6-2.3,0.9-3.6,0.9c-1.3,0-2.6-0.3-3.6-0.9c-1.1-0.6-1.9-1.5-2.5-2.5s-0.9-2.3-0.9-3.6s0.3-2.6,0.9-3.6s1.5-1.9,2.5-2.6
			c1.1-0.6,2.3-0.9,3.6-0.9C257,187.3,258.3,187.6,259.3,188.3z M253.1,189.8c-0.8,0.5-1.4,1.1-1.9,1.9s-0.7,1.7-0.7,2.7
			s0.2,1.9,0.7,2.7s1.1,1.4,1.9,1.9c0.8,0.5,1.7,0.7,2.6,0.7c1,0,1.9-0.2,2.7-0.7c0.8-0.5,1.4-1.1,1.8-1.9c0.4-0.8,0.7-1.7,0.7-2.7
			s-0.2-1.9-0.7-2.7c-0.4-0.8-1.1-1.4-1.8-1.9c-0.8-0.5-1.7-0.7-2.7-0.7C254.7,189.1,253.9,189.4,253.1,189.8z"/>
		<path class="st1" d="M268.4,181.8c0.2-0.2,0.4-0.3,0.7-0.3c0.3,0,0.5,0.1,0.7,0.3s0.3,0.4,0.3,0.7V197c0,0.7,0.1,1.3,0.4,1.8
			s0.7,0.7,1.1,0.7h0.6c0.3,0,0.5,0.1,0.6,0.3c0.2,0.2,0.2,0.4,0.2,0.7s-0.1,0.5-0.3,0.7c-0.2,0.2-0.5,0.3-0.8,0.3h-0.3
			c-1,0-1.9-0.4-2.5-1.2c-0.7-0.8-1-1.9-1-3.2v-14.5C268.2,182.2,268.2,181.9,268.4,181.8z"/>
		<path class="st1" d="M287.1,188.3c1.1,0.6,1.9,1.5,2.5,2.6s0.9,2.3,0.9,3.6s-0.3,2.6-0.9,3.6s-1.5,1.9-2.5,2.5
			c-1.1,0.6-2.3,0.9-3.6,0.9c-1.3,0-2.6-0.3-3.6-0.9c-1.1-0.6-1.9-1.5-2.5-2.5s-0.9-2.3-0.9-3.6s0.3-2.6,0.9-3.6s1.5-1.9,2.5-2.6
			c1.1-0.6,2.3-0.9,3.6-0.9C284.8,187.3,286,187.6,287.1,188.3z M280.8,189.8c-0.8,0.5-1.4,1.1-1.9,1.9s-0.7,1.7-0.7,2.7
			s0.2,1.9,0.7,2.7s1.1,1.4,1.9,1.9s1.7,0.7,2.6,0.7c1,0,1.9-0.2,2.7-0.7c0.8-0.5,1.4-1.1,1.8-1.9c0.4-0.8,0.7-1.7,0.7-2.7
			s-0.2-1.9-0.7-2.7c-0.4-0.8-1.1-1.4-1.8-1.9c-0.8-0.5-1.7-0.7-2.7-0.7C282.5,189.1,281.6,189.4,280.8,189.8z M286.1,180.5
			c0.3,0,0.5,0.1,0.7,0.3s0.3,0.4,0.3,0.7s-0.1,0.5-0.3,0.7l-2.9,2.9c-0.2,0.2-0.4,0.3-0.7,0.3c-0.3,0-0.5-0.1-0.7-0.3
			s-0.3-0.4-0.3-0.7s0.1-0.5,0.2-0.7l2.9-2.9C285.6,180.6,285.8,180.5,286.1,180.5z"/>
		<path class="st1" d="M306.4,188.2c1.1,0.6,1.9,1.4,2.5,2.5s0.9,2.3,0.9,3.7v5.2c0,1.4-0.3,2.6-0.9,3.7c-0.6,1.1-1.4,2-2.5,2.6
			s-2.3,1-3.6,1c-1.3,0-2.5-0.2-3.5-0.7s-1.9-1.2-2.6-2.1c-0.2-0.2-0.2-0.4-0.2-0.6c0-0.3,0.1-0.5,0.4-0.7c0.2-0.1,0.4-0.2,0.6-0.2
			s0.3,0,0.5,0.1s0.3,0.2,0.4,0.3c0.5,0.6,1.2,1.1,1.9,1.5s1.7,0.5,2.7,0.5s1.8-0.2,2.6-0.7s1.4-1.1,1.8-2c0.4-0.8,0.7-1.8,0.7-2.9
			v-1.1c-0.5,1-1.2,1.7-2.2,2.3c-0.9,0.6-2,0.8-3.2,0.8c-1.3,0-2.5-0.3-3.6-0.9c-1-0.6-1.9-1.4-2.4-2.5c-0.6-1.1-0.9-2.3-0.9-3.7
			s0.3-2.6,0.9-3.7c0.6-1.1,1.5-1.9,2.5-2.5c1.1-0.6,2.3-0.9,3.6-0.9C304.2,187.3,305.4,187.6,306.4,188.2z M305.5,199.1
			c0.8-0.5,1.4-1.1,1.8-1.9c0.4-0.8,0.7-1.7,0.7-2.7s-0.2-1.9-0.7-2.7c-0.4-0.8-1.1-1.4-1.8-1.9c-0.8-0.5-1.7-0.7-2.7-0.7
			s-1.9,0.2-2.7,0.7c-0.8,0.5-1.4,1.1-1.8,1.9s-0.7,1.7-0.7,2.7s0.2,1.9,0.7,2.7c0.4,0.8,1.1,1.4,1.8,1.9c0.8,0.5,1.7,0.7,2.7,0.7
			S304.7,199.5,305.5,199.1z"/>
		<path class="st1" d="M318.1,182.4c0.3,0.3,0.4,0.6,0.4,1s-0.1,0.7-0.4,1s-0.6,0.4-1,0.4s-0.7-0.1-1-0.4c-0.3-0.3-0.4-0.6-0.4-1
			s0.1-0.7,0.4-1s0.6-0.4,1-0.4S317.9,182.2,318.1,182.4z M316.4,187.7c0.2-0.2,0.4-0.3,0.7-0.3c0.3,0,0.5,0.1,0.7,0.3
			s0.3,0.4,0.3,0.7v12c0,0.3-0.1,0.5-0.3,0.7c-0.2,0.2-0.4,0.3-0.7,0.3c-0.3,0-0.5-0.1-0.7-0.3s-0.3-0.4-0.3-0.7v-12
			C316.2,188.2,316.3,187.9,316.4,187.7z"/>
		<path class="st1" d="M336.3,189.8c0.1,0.2,0.2,0.3,0.2,0.5c0,0.3-0.1,0.5-0.4,0.7c-0.2,0.1-0.3,0.2-0.5,0.2
			c-0.3,0-0.5-0.1-0.7-0.4c-0.5-0.6-1.1-1-1.7-1.3s-1.3-0.4-2-0.4c-0.9,0-1.8,0.2-2.5,0.7s-1.3,1.1-1.7,1.9
			c-0.4,0.8-0.6,1.7-0.6,2.8c0,1,0.2,1.9,0.6,2.7s1,1.4,1.8,1.9s1.6,0.7,2.6,0.7c1.4,0,2.5-0.4,3.3-1.1c0.2-0.2,0.5-0.3,0.7-0.3
			s0.4,0.1,0.6,0.2c0.2,0.2,0.4,0.4,0.4,0.7c0,0.2-0.1,0.4-0.3,0.6c-1.2,1.1-2.8,1.7-4.6,1.7c-1.3,0-2.5-0.3-3.6-0.9
			c-1.1-0.6-1.9-1.5-2.5-2.6s-0.9-2.3-0.9-3.6c0-1.4,0.3-2.6,0.9-3.7c0.6-1.1,1.4-1.9,2.4-2.5s2.2-0.9,3.4-0.9
			C333.3,187.3,335,188.2,336.3,189.8z"/>
		<path class="st1" d="M352.4,188.3c1.1,0.6,1.9,1.5,2.6,2.6c0.6,1.1,0.9,2.3,0.9,3.6v6c0,0.3-0.1,0.5-0.3,0.7
			c-0.2,0.2-0.4,0.3-0.7,0.3s-0.5-0.1-0.7-0.3s-0.3-0.4-0.3-0.7V199c-0.6,0.8-1.4,1.5-2.3,1.9c-0.9,0.5-1.9,0.7-3,0.7
			c-1.3,0-2.5-0.3-3.5-0.9c-1-0.6-1.9-1.5-2.5-2.6s-0.9-2.3-0.9-3.6s0.3-2.5,0.9-3.6s1.5-1.9,2.6-2.6c1.1-0.6,2.3-0.9,3.6-0.9
			S351.3,187.6,352.4,188.3z M351.4,199.1c0.8-0.5,1.4-1.1,1.8-1.9c0.5-0.8,0.7-1.7,0.7-2.7s-0.2-1.9-0.7-2.7s-1.1-1.4-1.8-1.9
			c-0.8-0.5-1.7-0.7-2.6-0.7c-1,0-1.8,0.2-2.6,0.7c-0.8,0.5-1.4,1.1-1.9,1.9c-0.5,0.8-0.7,1.7-0.7,2.7s0.2,1.9,0.7,2.7
			s1.1,1.4,1.9,1.9s1.7,0.7,2.6,0.7C349.7,199.8,350.6,199.5,351.4,199.1z"/>
		<path class="st1" d="M369.5,187.9c0.8,0.4,1.5,0.9,2,1.6c0.1,0.2,0.2,0.4,0.2,0.6c0,0.3-0.1,0.5-0.4,0.7c-0.1,0.1-0.3,0.1-0.5,0.1
			c-0.4,0-0.7-0.1-0.9-0.4c-0.8-1-2-1.4-3.4-1.4c-0.9,0-1.7,0.2-2.2,0.6c-0.6,0.4-0.8,0.9-0.8,1.4c0,0.6,0.3,1.1,0.8,1.5
			s1.5,0.7,2.8,0.9c1.8,0.3,3.1,0.8,3.9,1.5s1.2,1.5,1.2,2.6c0,0.8-0.2,1.5-0.7,2.1s-1.1,1.1-2,1.4c-0.8,0.3-1.8,0.5-2.8,0.5
			c-1.1,0-2.1-0.2-3-0.5c-1-0.4-1.8-0.9-2.3-1.5c-0.2-0.2-0.3-0.4-0.3-0.6c0-0.3,0.1-0.5,0.4-0.8c0.2-0.2,0.4-0.2,0.6-0.2
			c0.3,0,0.5,0.1,0.7,0.4c0.4,0.5,0.9,0.8,1.6,1.1s1.4,0.4,2.2,0.4c1.2,0,2.1-0.2,2.7-0.6c0.6-0.4,0.9-0.9,0.9-1.6
			c0-0.6-0.3-1.1-0.9-1.5s-1.5-0.7-2.8-0.9c-1.7-0.3-2.9-0.7-3.7-1.4c-0.8-0.7-1.2-1.5-1.2-2.4c0-1.2,0.5-2.2,1.4-2.9s2.2-1,3.6-1
			C367.7,187.3,368.7,187.5,369.5,187.9z"/>
	</g>
	<g>
		<g>
			<circle class="st2" cx="353.9" cy="28.8" r="28.8"/>
			<circle class="st3" cx="353.1" cy="29.6" r="24.7"/>
			<path class="st4" d="M361.3,46c-13.4,0-24.7-11.2-24.7-24.7c0-2.3,0.3-4.4,0.9-6.5c0.5-1.7-1.7-3-2.8-1.6c-4.5,5.1-7,12-6,19.6
				C330,43.8,339,52.7,350,54c7.5,0.9,14.5-1.5,19.6-6c1.3-1.2,0.1-3.3-1.6-2.8C365.8,45.7,363.6,46,361.3,46z"/>
		</g>
		<g>
			<path class="st1" d="M136.1,129.8c-4.6,2.6-11.4,5.8-18.4,5.8c-7.1,0-17.5-7.8-28.6-16.1c-3.2-2.4-6.6-5-10.2-7.6
				c22.2-4.8,38.8-24.6,38.8-48.2v-4.1c0-27.2-22.1-49.3-49.3-49.3H43.8l0,0H19.1c-2.3,0-4.1,1.8-4.1,4.1v69.9
				c-3.5-0.5-7-0.7-10.7-0.9C1.9,83.3,0,85.1,0,87.5V108c0,2.2,1.7,4,3.9,4.1c3.8,0.2,7.5,0.6,11.1,1.2v44.9c0,2.3,1.8,4.1,4.1,4.1
				h20.5c2.3,0,4.1-1.8,4.1-4.1v-34.6c10.4,5.5,19.5,12.4,28.1,18.9c15,11.3,29.2,21.9,45.9,21.9c10.8,0,21.8-3.2,32.9-9.7
				L136.1,129.8z M68.4,39c11.3,0,20.5,9.2,20.5,20.5v4.1c0,11.3-9.2,20.5-20.5,20.5H43.7V39H68.4z"/>
			<g>
				<path class="st5" d="M136.1,129.9c-4.6,2.6-11.4,5.8-18.3,5.8c-3.3,0-7.4-1.8-12-4.5c3.5,13.9,12.7,25.3,24.8,31.7
					c6.7-1.6,13.4-4.3,20.1-8.2L137,131.1C136.6,130.7,136.3,130.3,136.1,129.9z"/>
				<path class="st5" d="M117.7,60.5c-6.7,7.1-11.3,16.1-12.9,26.3c-0.6,3.7-0.9,7.5-1.2,11.3c8.7-8.9,14.1-21,14.1-34.4V60.5z"/>
			</g>
			<path class="st1" d="M213.5,117.2c0.5-4.8,0.8-9.7,0.8-14.5c0-6.3-0.5-12.7-1.4-18.9c-3.5-23.8-23.1-41.7-46.8-42.6
				c-2.1-0.1-4.3-0.1-6.4,0c-23.5,0.9-43.1,18.4-46.6,41.6c-1,6.6-1.5,13.3-1.5,20c0,6.3,0.5,12.6,1.3,18.9
				c3.4,23.9,23.1,41.9,46.8,42.7c1,0,2.1,0,3.1,0c16.6,0,30-4,41.1-10.8c1.8-1.1,2.4-3.3,1.6-5.2l-7.4-16c-0.9-2-3.2-2.9-5.3-2.1
				c-8.3,3.5-16.4,5.3-30,5.3c-0.7,0-1.4,0-2.1,0c-9.9-0.4-18.2-8.1-19.5-18.4l0,0L213.5,117.2z M160.8,69.9c1.4,0,2.9,0,4.3,0
				c9.8,0.4,17.9,7.9,19.4,18c0,0.2,0,0.3,0,0.5h-43.1c0-0.5,0.1-0.9,0.2-1.3C143,77.5,151.1,70.3,160.8,69.9z"/>
			<path class="st5" d="M199.9,106.8c0,3.5,0.1,6.9,0.3,10.3h13.3c0.5-4.8,0.8-9.7,0.8-14.5c0-6.3-0.5-12.7-1.4-18.9
				c-0.8-5.5-2.5-10.8-5-15.6c-4,6.4-6.6,13.9-7.3,21.9C200.2,95.4,199.9,101,199.9,106.8z"/>
			<path class="st1" d="M277.9,4.1V48c-0.1,0-7.2-6.9-20.9-6.9c-24.8,0-46,19.4-48.2,44.9c-0.5,5.3-0.7,10.9-0.7,16.8
				c0,5.8,0.3,11.4,0.7,16.8c2.2,25.5,23.3,44.9,48.2,44.9c13.8,0,20.9-6.8,20.9-6.9v2.8c0,2.3,1.8,4.1,4.1,4.1h20.5
				c2.3,0,4.1-1.8,4.1-4.1V4.1c0-2.3-1.8-4.1-4.1-4.1H282C279.8,0,277.9,1.8,277.9,4.1z M257,135.2c-10.1,0-18.7-8-19.5-18.2
				c-0.4-4.7-0.6-9.5-0.6-14.3c0-4.7,0.2-9.5,0.6-14.3c0.9-10.2,9.5-18.2,19.5-18.2c15.8,0,20.9,3.6,20.9,3.6v57.7
				C277.9,131.6,272.9,135.2,257,135.2z"/>
			<g>
				<path class="st5" d="M15,113.3v6c10.7,3,20.1,7.7,28.8,13.2v-8.9C35.1,118.9,25.7,115.2,15,113.3z"/>
			</g>
			<g>
				<path class="st5" d="M277.9,131.6c0,0-3.5,2.5-13.5,3.3l-2.9,29.2c10.8-1.2,16.4-6.6,16.4-6.6V131.6L277.9,131.6z"/>
			</g>
		</g>
	</g>
</g>
</svg>
